<svg width="115" height="95" xmlns="http://www.w3.org/2000/svg"><g fill-rule="nonzero" fill="none"><path d="M69.4 78.8c11.6-1.5 22-5.2 30.4-10.4 9.9-6.2 15.6-18 14.1-31.9C112.4 20.7 96.1.2 58.3.2 43 .2 28.1 3.4 17.5 10.8 7.1 18.2.2 29.1.2 40.2.2 58.5 17.3 73.6 43.5 78l28.9 16.8-3-16z" fill="#C32608"/><path d="M38.3 13.8c5.7 0 10.1 2 13.8 5.7 3.7 4 5.4 8.7 5.4 14.8 0 7.4-2.7 14.1-8.4 20s-12.6 9.6-21 10.9l-3.5.5h-1c-.7 0-1-.2-1-1.2 0-.5.2-.7.2-.7.1 0 .4-.1.7-.2.4-.1.9-.2 1.5-.3 4-.7 7.9-2.7 11.9-5.7 3.7-3 6.4-6.2 7.7-9.6l.7-2.2c.1-.2.1-.4.2-.5.2-.5.3-.8.3-1.2 0-.7-.2-1.2-1-1.2-.2 0-.7.2-1.2.5-1.5 1-3.5 1.7-5.4 2.5-2.2.7-4 1-5.4 1-4 0-7.2-1.5-9.9-4.2s-4-6.2-4-10.1c0-5.4 1.7-9.9 5.4-13.3 3.6-3.8 8.3-5.5 14-5.5z" fill="#FFF"/><path d="M35.8 16.2c-2.7 0-4.7 1-6.2 3s-2.5 4.7-2.5 7.9c0 4.4 1 8.2 3.2 11.1 2.2 3 4.9 4.2 8.4 4.2 2.7 0 5.2-1 6.9-3 2-2 2.7-4.5 2.7-7.4 0-4.2-1.2-8.2-3.7-11.4-2.4-2.9-5.3-4.4-8.8-4.4z" fill="#C32608"/><path d="M94.2 19.4c-3.7-3.7-8.2-5.7-13.8-5.7-5.6 0-10.4 1.7-13.8 4.7-3.7 3.5-5.4 7.9-5.4 13.3 0 4.2 1.2 7.9 4 10.6 2.7 2.7 5.9 4.2 9.9 4.2 1.5 0 3.2-.2 5.4-1s4-1.5 5.4-2.5c.5-.2 1-.5 1.2-.5.7 0 1 .5 1 1.2 0 .4-.1.7-.3 1.2-.1.2-.1.3-.2.5l-.7 2.2c-1.2 3.5-4 6.7-7.7 9.6-4 3-7.9 4.9-11.9 5.7-.6.1-1.1.2-1.5.3-.4.1-.6.2-.7.2 0 0-.2.2-.2.7 0 1 .2 1.2 1 1.2h1l3.5-.5c8.4-1.2 15.3-4.9 21-10.9 5.7-5.9 8.4-12.6 8.4-20-.2-5.8-1.9-10.5-5.6-14.5z" fill="#FFF"/><path d="M71.7 19.2c1.5-2 3.7-3 6.2-3 3.5 0 6.4 1.2 8.9 4.4s3.7 7.2 3.7 11.4c0 3-.7 5.4-2.7 7.4s-4.2 3-6.9 3c-3.5 0-6.2-1.2-8.4-4.2s-3.2-6.7-3.2-11.1c-.1-3.2.9-5.9 2.4-7.9z" fill="#C32608"/></g></svg>