<svg width="283" height="283" xmlns="http://www.w3.org/2000/svg"><defs><radialGradient cx="50%" cy="50%" fx="50%" fy="50%" r="50.002%" gradientTransform="matrix(1 0 0 .99993 0 0)" id="a"><stop stop-color="#808285" offset="0%"/><stop stop-color="#414042" offset="100%"/></radialGradient></defs><g fill-rule="nonzero" fill="none"><path d="M240.999 141.137c0 55.184-44.704 99.896-99.872 99.896-55.194 0-99.89-44.712-99.89-99.896 0-55.169 44.696-99.88 99.89-99.88 55.168 0 99.872 44.71 99.872 99.88z" fill="url(#a)"/><path d="M141.252.086C63.393.086.271 63.211.271 141.064c0 77.873 63.121 140.995 140.981 140.995 77.862 0 140.984-63.122 140.984-140.995C282.236 63.211 219.114.086 141.252.086zm0 273.395c-73.129 0-132.408-59.278-132.408-132.417 0-73.123 59.279-132.402 132.408-132.402 73.131 0 132.412 59.279 132.412 132.402 0 73.139-59.281 132.417-132.412 132.417z" fill="#58595B"/><g fill="#27AAE1"><path d="M154.313 13.663l-1.775 19.286 1.873 1.919-7.174-.656 2.273-1.539 1.346-14.641a4.25 4.25 0 01-1.995.32c-1.021-.097-1.767-.587-2.243-1.462l.13.008c.626.615 1.333.963 2.12 1.032.742.065 1.421-.061 2.037-.393l.094-1.041c-.806.49-1.716.68-2.724.587-.554-.044-1.007-.211-1.354-.503-.351-.291-.506-.627-.47-1 .049-.558.338-.822.86-.797.468.024.681.259.642.696a.761.761 0 01-.056.223.755.755 0 00-.027.125c-.004.174.136.279.423.308.734.061 1.479-.154 2.241-.656.764-.494 1.358-1.162 1.798-1.997l1.981.181zm.802.376l.428.259-1.725 18.763 2.394 3.35-8.52-.782-.324-.482 7.921.725-1.928-2.713 1.754-19.12zM182.726 19.177c1.999.693 3.469 2.057 4.414 4.094 1.22 2.595 1.177 5.774-.129 9.54-1.075 3.109-2.627 5.32-4.649 6.623-2.027 1.316-4.242 1.561-6.651.725-2.455-.854-4.086-2.51-4.899-4.979-.817-2.454-.667-5.291.45-8.503 1.074-3.094 2.655-5.329 4.742-6.69 2.091-1.372 4.33-1.644 6.722-.81zm4.087 2.126c1.355 1.259 2.171 2.923 2.451 4.997.278 2.069-.011 4.337-.869 6.802-1.43 4.123-3.448 6.834-6.051 8.118-2.11 1.053-4.332 1.167-6.671.361-1.07-.377-1.948-.863-2.633-1.449-.683-.604-1.344-1.47-1.99-2.6l.179-.065c1.101 1.808 2.557 3.013 4.378 3.649 2.66.919 5.076.676 7.239-.733 2.164-1.402 3.838-3.819 5.028-7.252.871-2.509 1.219-4.721 1.034-6.624-.182-1.907-.896-3.587-2.146-5.062l.051-.142zm-4.663-.68c-1.659-.58-3.118-.279-4.361.895-1.243 1.174-2.421 3.361-3.525 6.539-2.095 6.042-1.438 9.649 1.972 10.836 3.052 1.057 5.62-1.413 7.704-7.434 1.144-3.289 1.579-5.762 1.304-7.422-.271-1.653-1.304-2.794-3.094-3.414zm2.542 3.94c-.436-1.32-1.294-2.199-2.567-2.645-1.292-.437-2.456-.125-3.489.959-1.03 1.082-2.044 3.062-3.033 5.928-.869 2.499-1.28 4.51-1.228 6.022.051 1.522.572 2.668 1.558 3.465l-.054.153c-.734-.396-1.299-1.121-1.702-2.177-.555-1.528-.188-4.156 1.106-7.88 1.018-2.936 2.085-4.944 3.197-6.025 1.113-1.09 2.405-1.364 3.877-.859 1.379.479 2.251 1.478 2.622 3l-.287.059zM212.451 34.961l.258.424-10.257 15.812.561 4.069-7.174-4.655-.062-.58 6.67 4.333-.449-3.299 10.453-16.104zm-.539-.706l-10.543 16.238.763 2.571-6.038-3.927 2.728-.301 8.004-12.328a4.202 4.202 0 01-1.914-.645c-.862-.558-1.294-1.345-1.307-2.349l.11.085c.266.831.734 1.461 1.397 1.89a3.452 3.452 0 001.984.6l.566-.874c-.938.057-1.832-.19-2.684-.741-.467-.304-.786-.667-.961-1.089-.172-.413-.155-.786.049-1.093.305-.475.68-.571 1.135-.308.404.235.482.539.241.915a.869.869 0 01-.152.175 1.44 1.44 0 00-.082.092c-.089.158-.011.308.233.47.616.396 1.378.555 2.286.469a5.286 5.286 0 002.517-.931l1.668 1.081zM237.097 56.056c.616 1.753.566 3.604-.143 5.564-.714 1.968-2.022 3.838-3.92 5.628-3.179 2.992-6.218 4.458-9.127 4.397-2.355-.053-4.379-.984-6.074-2.772-.776-.827-1.333-1.666-1.663-2.516-.33-.841-.517-1.913-.566-3.214l.19.027c.141 2.102.877 3.843 2.195 5.252 1.932 2.053 4.181 2.96 6.75 2.713 2.568-.247 5.172-1.607 7.816-4.101 1.942-1.823 3.272-3.62 3.99-5.389a9.021 9.021 0 00.442-5.487l.11-.102zm-2.641-3.778c1.451 1.539 2.123 3.434 2.016 5.673-.117 2.876-1.627 5.67-4.533 8.406-2.391 2.247-4.791 3.483-7.191 3.713-2.402.236-4.479-.59-6.227-2.445-1.776-1.887-2.461-4.114-2.039-6.672.419-2.555 1.868-5.005 4.339-7.338 2.389-2.238 4.82-3.495 7.308-3.733 2.485-.242 4.597.555 6.327 2.396zm-1.178 1.02c-1.204-1.284-2.636-1.691-4.282-1.227-1.651.47-3.7 1.851-6.148 4.155-4.656 4.389-5.746 7.888-3.274 10.519 2.217 2.357 5.637 1.353 10.273-3.008 2.536-2.393 4.064-4.381 4.59-5.979.527-1.596.143-3.082-1.159-4.46zm.428 4.661c.222-1.368-.13-2.538-1.051-3.526-.942-.992-2.121-1.255-3.537-.766-1.417.49-3.227 1.766-5.434 3.838-1.931 1.822-3.228 3.414-3.878 4.782-.66 1.365-.73 2.619-.223 3.789l-.122.114c-.47-.696-.634-1.603-.498-2.725.217-1.607 1.757-3.762 4.628-6.465 2.264-2.135 4.139-3.409 5.626-3.86 1.487-.445 2.763-.098 3.836 1.041.997 1.06 1.31 2.344.935 3.862l-.282-.084zM253.506 79.999l.034.502-16.402 9.28-1.379 3.876-4.215-7.447.212-.547 3.918 6.924 1.122-3.13 16.71-9.458zm-.149-.878l-16.855 9.539-.505 2.633-3.547-6.269 2.56.992 12.793-7.239c-.609-.402-1.074-.888-1.4-1.459-.501-.895-.528-1.785-.078-2.685l.065.113c-.148.876-.026 1.653.358 2.333.371.655.868 1.133 1.489 1.445l.904-.51c-.859-.38-1.538-1.021-2.036-1.903-.277-.478-.389-.943-.352-1.4.037-.451.222-.774.551-.953.486-.278.866-.19 1.144.247.25.398.181.71-.207.933-.068.037-.14.061-.22.088-.051.014-.091.022-.11.038-.148.097-.15.266-.011.521.361.64.966 1.134 1.812 1.471a5.223 5.223 0 002.668.331l.977 1.734zM265.602 110.138c-.263 1.833-1.164 3.45-2.706 4.867-1.547 1.4-3.573 2.456-6.083 3.162-4.206 1.174-7.581 1.064-10.124-.345-2.063-1.129-3.427-2.895-4.097-5.271-.305-1.094-.407-2.09-.305-2.994.099-.901.431-1.938.993-3.113l.153.114c-.848 1.927-1.015 3.813-.495 5.672.756 2.709 2.334 4.56 4.721 5.526 2.391.98 5.336.98 8.831-.008 2.565-.711 4.579-1.683 6.035-2.926 1.458-1.235 2.435-2.779 2.932-4.641l.145-.043zm-.586-4.569c.574 2.033.289 4.02-.848 5.955-1.435 2.486-4.067 4.264-7.911 5.342-3.164.882-5.862.871-8.094-.045-2.235-.915-3.695-2.596-4.381-5.052-.701-2.503-.271-4.791 1.291-6.856 1.558-2.076 3.972-3.57 7.246-4.487 3.155-.878 5.887-.857 8.204.081 2.315.94 3.81 2.625 4.493 5.062zm-1.513.348c-.475-1.688-1.55-2.717-3.23-3.068-1.675-.357-4.132-.073-7.371.835-6.161 1.721-8.753 4.324-7.78 7.798.87 3.105 4.366 3.811 10.495 2.093 3.356-.935 5.637-1.992 6.845-3.166 1.205-1.167 1.554-2.665 1.041-4.492zm-1.789 4.341c.832-1.117 1.068-2.321.708-3.62-.371-1.324-1.296-2.09-2.775-2.316-1.483-.235-3.682.064-6.603.882-2.549.712-4.436 1.522-5.651 2.425-1.213.908-1.866 1.998-1.95 3.256l-.163.041c-.092-.827.182-1.709.824-2.64.936-1.325 3.303-2.511 7.099-3.58 2.993-.839 5.25-1.105 6.777-.809 1.523.296 2.493 1.194 2.91 2.695.396 1.402.073 2.698-.965 3.86l-.211-.194zM269.011 139.014l-.204.451-18.839.603-3.021 2.786-.269-8.551.438-.377.247 7.94 2.455-2.243 19.193-.609zm.272-.845l-19.354.606-1.672 2.098-.232-7.199 1.806 2.064 14.698-.464c-.355-.632-.544-1.284-.563-1.935-.033-1.026.359-1.831 1.176-2.419l.001.139c-.533.696-.786 1.441-.761 2.226.023.754.239 1.406.647 1.976l1.033-.036c-.578-.738-.886-1.62-.919-2.624-.015-.562.099-1.031.341-1.413.243-.381.558-.574.936-.588.554-.011.855.231.895.757.035.47-.169.706-.616.717-.076 0-.156 0-.232-.019-.059-.008-.097-.017-.121-.017-.175.017-.258.174-.252.464.027.726.332 1.447.924 2.143a5.223 5.223 0 002.204 1.531l.061 1.993zM265.792 171.239c-1.082 1.498-2.631 2.521-4.652 3.056-2.018.538-4.304.538-6.852 0-4.275-.898-7.216-2.56-8.82-4.983-1.308-1.951-1.708-4.139-1.199-6.573.234-1.105.606-2.039 1.11-2.793.505-.749 1.28-1.515 2.321-2.305l.082.174c-1.641 1.322-2.661 2.921-3.061 4.804-.578 2.761-.034 5.117 1.635 7.09 1.669 1.968 4.279 3.325 7.835 4.069 2.607.553 4.842.615 6.705.189 1.862-.418 3.447-1.344 4.75-2.761l.146.033zm1.592-4.329c-.437 2.068-1.603 3.699-3.508 4.898-2.417 1.539-5.581 1.894-9.481 1.078-3.216-.682-5.604-1.936-7.163-3.778-1.558-1.843-2.077-4.004-1.55-6.512.535-2.529 1.97-4.364 4.311-5.482 2.341-1.121 5.175-1.33 8.501-.63 3.204.676 5.617 1.968 7.239 3.862 1.619 1.898 2.171 4.091 1.651 6.564zm-1.508-.386c.361-1.724-.121-3.13-1.443-4.215-1.33-1.083-3.636-1.977-6.929-2.671-6.256-1.316-9.756-.207-10.498 3.327-.663 3.162 2.115 5.396 8.337 6.696 3.416.725 5.924.844 7.535.366 1.61-.49 2.606-1.652 2.998-3.503zm-3.589 3.013c1.254-.595 2.02-1.558 2.299-2.874.279-1.341-.184-2.457-1.391-3.336-1.208-.891-3.294-1.647-6.258-2.272-2.596-.542-4.644-.697-6.138-.458-1.496.252-2.577.912-3.239 1.992l-.16-.041c.3-.776.951-1.433 1.953-1.962 1.441-.741 4.09-.706 7.95.1 3.041.643 5.168 1.45 6.384 2.413 1.213.961 1.66 2.213 1.338 3.738-.298 1.433-1.183 2.421-2.641 2.978l-.097-.278zM255.467 198.411l-.394.31-16.969-8.191-3.973 1.066 3.72-7.703.567-.139-3.46 7.166 3.219-.857 17.29 8.348zm.634-.632l-17.44-8.417-2.451 1.08 3.131-6.481.642 2.668 13.244 6.395c-.023-.73.111-1.395.399-1.976.445-.934 1.165-1.458 2.161-1.602l-.061.13c-.796.355-1.368.904-1.71 1.623a3.435 3.435 0 00-.338 2.041l.931.445c-.171-.914-.038-1.843.404-2.752.242-.502.558-.866.95-1.086.392-.236.763-.258 1.102-.101.502.242.653.611.44 1.097-.181.421-.474.546-.874.355a1.097 1.097 0 01-.197-.136.353.353 0 00-.099-.064c-.163-.065-.307.026-.436.29-.322.657-.38 1.434-.178 2.329a5.28 5.28 0 001.24 2.372l-.86 1.79zM237.59 225.523c-1.65.831-3.5 1.013-5.533.543-2.04-.453-4.065-1.509-6.075-3.181-3.366-2.779-5.195-5.613-5.494-8.509-.247-2.34.419-4.463 1.994-6.365.728-.882 1.48-1.531 2.281-1.968.799-.424 1.842-.749 3.127-.964l-.007.195c-2.065.396-3.713 1.344-4.94 2.831-1.795 2.169-2.412 4.514-1.848 7.032.565 2.522 2.243 4.935 5.044 7.253 2.049 1.691 4 2.793 5.844 3.278a8.943 8.943 0 005.493-.238l.114.093zm3.424-3.091c-1.352 1.634-3.143 2.537-5.382 2.711-2.857.236-5.822-.912-8.895-3.452-2.535-2.096-4.06-4.321-4.584-6.677-.525-2.346.023-4.517 1.651-6.479 1.652-2.006 3.775-2.953 6.366-2.853 2.594.095 5.199 1.227 7.817 3.398 2.527 2.076 4.065 4.337 4.613 6.777.554 2.438.025 4.629-1.586 6.575zm-1.155-1.037c1.121-1.357 1.348-2.828.677-4.405-.667-1.577-2.299-3.437-4.892-5.586-4.926-4.068-8.54-4.712-10.836-1.93-2.06 2.489-.638 5.763 4.266 9.817 2.688 2.215 4.855 3.487 6.502 3.816 1.648.318 3.075-.252 4.283-1.712zm-4.58.999c1.39.057 2.512-.438 3.371-1.477.874-1.059.979-2.256.324-3.604-.661-1.344-2.156-2.988-4.493-4.916-2.04-1.686-3.784-2.773-5.224-3.26-1.435-.477-2.698-.393-3.782.258l-.129-.103c.626-.557 1.507-.831 2.637-.836 1.626.014 3.956 1.273 6.996 3.791 2.394 1.977 3.906 3.676 4.53 5.098.627 1.417.442 2.728-.55 3.928-.929 1.129-2.174 1.599-3.725 1.411l.045-.29zM215.909 244.773l-.49.098-11.264-15.107-4.017-.888 6.858-5.113.566.146-6.379 4.75 3.25.728 11.476 15.386zm.849-.258l-11.577-15.525-2.668-.169 5.771-4.305-.661 2.66 8.786 11.791c.322-.66.743-1.184 1.268-1.574.824-.616 1.706-.755 2.653-.413l-.107.079c-.878-.041-1.634.179-2.268.648-.599.442-1.015.996-1.246 1.661l.621.822c.272-.895.817-1.652 1.631-2.253.445-.328.896-.505 1.346-.529.453-.014.794.128 1.019.429.334.454.297.842-.108 1.165-.362.301-.676.271-.943-.087a.896.896 0 01-.115-.203.372.372 0 00-.055-.106c-.114-.133-.289-.114-.521.057-.59.435-1.003 1.097-1.233 1.981a5.267 5.267 0 00.005 2.688l-1.598 1.183zM187.535 260.562c-1.85-.03-3.569-.714-5.167-2.071-1.588-1.347-2.891-3.225-3.909-5.632-1.695-4.028-2.008-7.386-.936-10.089.866-2.183 2.438-3.768 4.716-4.726 1.045-.445 2.022-.674 2.93-.685.906-.014 1.98.185 3.215.592l-.092.169c-2.018-.601-3.916-.527-5.686.223-2.604 1.102-4.232 2.888-4.895 5.385-.665 2.491-.29 5.409 1.118 8.759 1.039 2.453 2.257 4.323 3.67 5.615 1.41 1.292 3.067 2.065 4.979 2.321l.057.139zm4.463-1.154c-1.946.82-3.956.798-6.022-.095-2.644-1.1-4.745-3.493-6.291-7.171-1.278-3.023-1.608-5.708-.985-8.037.624-2.329 2.119-3.992 4.465-4.988 2.389-1.005 4.712-.866 6.966.42 2.255 1.284 4.039 3.496 5.361 6.626 1.275 3.016 1.593 5.729.958 8.143-.639 2.417-2.122 4.114-4.452 5.102zm-.542-1.457c1.619-.686 2.5-1.881 2.64-3.589.137-1.71-.449-4.114-1.756-7.217-2.488-5.89-5.392-8.135-8.717-6.728-2.979 1.257-3.226 4.81-.757 10.678 1.355 3.211 2.689 5.342 4.003 6.387 1.312 1.047 2.842 1.201 4.587.469zm-4.523-1.233c1.205.692 2.429.773 3.674.247 1.264-.529 1.912-1.542 1.952-3.046.037-1.492-.529-3.64-1.711-6.433-1.029-2.442-2.072-4.207-3.127-5.301-1.052-1.094-2.205-1.599-3.47-1.53l-.068-.149c.812-.191 1.722-.041 2.727.485 1.433.76 2.918 2.95 4.454 6.588 1.208 2.863 1.757 5.07 1.656 6.617-.101 1.547-.87 2.619-2.311 3.235-1.341.565-2.66.407-3.951-.476l.175-.237zM159.302 267.578l-.482-.139-2.941-18.619-3.142-2.649 8.451-1.341.432.393-7.858 1.243 2.54 2.145 3 18.967zm.869.166l-3.022-19.133-2.286-1.396 7.113-1.121-1.824 2.047 2.295 14.526c.585-.426 1.203-.703 1.855-.798 1.014-.168 1.858.125 2.541.86l-.134.021c-.759-.437-1.53-.603-2.309-.482-.741.119-1.364.412-1.872.888l.159 1.022c.663-.662 1.493-1.071 2.493-1.237.55-.09 1.03-.032 1.44.166.407.189.642.475.7.854.085.543-.126.874-.641.975-.457.098-.72-.076-.79-.511a.683.683 0 01-.004-.247l-.001-.111c-.038-.173-.203-.244-.487-.195-.729.117-1.401.508-2.013 1.179a5.292 5.292 0 00-1.25 2.388l-1.963.305zM126.845 268.384c-1.625-.883-2.831-2.297-3.615-4.232-.785-1.936-1.068-4.202-.857-6.8.361-4.351 1.64-7.478 3.843-9.377 1.779-1.542 3.899-2.21 6.369-2.001 1.132.095 2.101.337 2.908.741.813.418 1.672 1.091 2.58 2.017l-.158.105c-1.516-1.466-3.23-2.274-5.153-2.429-2.808-.236-5.086.6-6.829 2.497-1.744 1.905-2.764 4.668-3.06 8.286-.221 2.655-.006 4.875.647 6.678a8.978 8.978 0 003.335 4.358l-.01.157zm4.492 1.045c-2.108-.18-3.876-1.135-5.298-2.866-1.83-2.215-2.579-5.307-2.254-9.283.272-3.273 1.225-5.8 2.859-7.575 1.63-1.772 3.718-2.56 6.262-2.348 2.586.206 4.583 1.414 5.979 3.591 1.403 2.19 1.968 4.973 1.686 8.357-.268 3.257-1.246 5.816-2.927 7.656-1.686 1.852-3.786 2.677-6.307 2.468zm.195-1.547c1.752.141 3.086-.514 3.999-1.96.912-1.449 1.508-3.854 1.785-7.206.525-6.371-1.013-9.707-4.606-10.002-3.221-.27-5.091 2.768-5.616 9.114-.286 3.469-.085 5.977.589 7.516.679 1.531 1.958 2.375 3.849 2.538zm-3.446-3.187c.756 1.176 1.804 1.811 3.146 1.925 1.367.117 2.414-.485 3.142-1.8.729-1.308 1.215-3.469 1.466-6.495.213-2.636.114-4.692-.316-6.145-.426-1.447-1.219-2.438-2.372-2.956l.017-.163c.809.19 1.542.758 2.188 1.678.918 1.344 1.219 3.979.893 7.903-.255 3.105-.789 5.312-1.593 6.637-.808 1.324-1.991 1.922-3.545 1.797-1.455-.117-2.55-.874-3.284-2.247l.258-.134zM98.619 261.56l-.359-.353 6.001-17.87-1.559-3.801 8.106 2.723.207.546-7.538-2.535 1.252 3.092-6.11 18.198zm.695.543l6.167-18.353-1.38-2.294 6.827 2.286-2.561.979-4.684 13.938a4.128 4.128 0 012.014.144c.97.326 1.588.973 1.851 1.941l-.126-.041c-.47-.741-1.077-1.237-1.826-1.493-.71-.235-1.398-.263-2.075-.081l-.326.988c.892-.288 1.823-.269 2.781.051.529.174.93.451 1.201.807.275.361.348.725.228 1.08-.176.526-.517.717-1.019.581-.452-.128-.607-.407-.467-.831.028-.07.062-.141.108-.214.031-.041.047-.087.052-.098.047-.18-.068-.307-.343-.401-.699-.234-1.471-.193-2.331.116a5.3 5.3 0 00-2.207 1.531l-1.884-.636zM69.51 247.232c-1.027-1.539-1.44-3.344-1.235-5.432.207-2.068 1.006-4.218 2.403-6.416 2.341-3.681 4.924-5.86 7.76-6.517 2.289-.538 4.481-.136 6.57 1.181.957.61 1.702 1.289 2.231 2.021.527.741.976 1.734 1.342 2.98l-.187.024c-.66-2.009-1.8-3.518-3.426-4.555-2.381-1.509-4.785-1.826-7.214-.958-2.425.874-4.614 2.845-6.558 5.912-1.43 2.25-2.271 4.316-2.531 6.215-.258 1.895.054 3.697.925 5.413l-.08.132zm3.494 3.005c-1.784-1.127-2.906-2.799-3.356-4.994-.592-2.807.179-5.891 2.315-9.259 1.763-2.771 3.777-4.573 6.049-5.382 2.27-.823 4.484-.538 6.639.825 2.19 1.392 3.4 3.376 3.622 5.966.231 2.578-.568 5.304-2.388 8.178-1.756 2.763-3.807 4.57-6.156 5.426-2.347.857-4.588.594-6.725-.76zm.889-1.268c1.489.938 2.974.975 4.454.122 1.483-.86 3.127-2.715 4.926-5.554 3.43-5.401 3.621-9.065.573-11.001-2.729-1.728-5.796.093-9.205 5.461-1.869 2.942-2.86 5.25-2.974 6.933-.118 1.675.63 3.013 2.226 4.039zm-1.568-4.426c.124 1.384.756 2.442 1.892 3.17 1.159.722 2.363.684 3.616-.136 1.251-.819 2.691-2.508 4.315-5.062 1.422-2.247 2.284-4.114 2.579-5.597.298-1.484.058-2.728-.724-3.721l.087-.145c.626.549 1.011 1.395 1.154 2.517.194 1.609-.768 4.082-2.883 7.415-1.662 2.619-3.161 4.332-4.493 5.122-1.33.801-2.65.781-3.97-.052-1.231-.779-1.854-1.96-1.866-3.512h.293v.001zM47.689 228.083l-.156-.469 13.593-13.064.377-4.087 5.927 6.169-.073.575-5.509-5.729-.313 3.312-13.846 13.293zm.36.817l13.97-13.416-.162-2.674 4.99 5.195-2.725-.329-10.606 10.185c.689.235 1.26.591 1.718 1.061.711.744.955 1.605.738 2.584l-.092-.095c-.068-.877-.375-1.601-.923-2.174-.521-.529-1.118-.877-1.799-1.029l-.749.717c.924.163 1.741.613 2.443 1.341.387.396.618.825.689 1.273.073.444-.024.801-.3 1.059-.399.391-.789.401-1.17.037-.339-.322-.353-.641-.028-.944a.786.786 0 01.192-.133c.048-.041.08-.057.098-.067.121-.139.08-.305-.12-.519-.51-.527-1.219-.855-2.124-.977a5.289 5.289 0 00-2.661.342l-1.379-1.437zM28.475 201.893c-.202-1.835.265-3.632 1.41-5.382 1.14-1.74 2.842-3.271 5.096-4.579 3.781-2.193 7.079-2.918 9.893-2.193 2.28.578 4.04 1.946 5.282 4.085.566.982.917 1.925 1.044 2.823.127.898.065 1.986-.188 3.262l-.176-.073c.341-2.076.031-3.946-.932-5.615-1.414-2.432-3.401-3.827-5.955-4.178-2.556-.353-5.407.389-8.55 2.215-2.303 1.327-4.008 2.777-5.111 4.335-1.104 1.561-1.665 3.301-1.683 5.233l-.13.067zm1.706 4.283c-1.062-1.832-1.284-3.821-.663-5.982.77-2.763 2.877-5.141 6.326-7.141 2.846-1.643 5.462-2.311 7.854-1.981 2.393.339 4.225 1.599 5.503 3.805 1.3 2.248 1.455 4.568.46 6.96-.992 2.396-2.96 4.454-5.901 6.155-2.835 1.64-5.487 2.291-7.967 1.963-2.473-.331-4.344-1.588-5.612-3.779zm1.379-.716c.881 1.52 2.181 2.245 3.891 2.166 1.713-.076 4.024-.958 6.934-2.644 5.536-3.203 7.396-6.367 5.59-9.494-1.62-2.793-5.181-2.593-10.687.592-3.016 1.748-4.96 3.336-5.838 4.774-.875 1.433-.837 2.966.11 4.606zm.653-4.647c-.531 1.286-.459 2.518.218 3.684.686 1.175 1.772 1.701 3.263 1.552 1.49-.151 3.547-.979 6.172-2.499 2.294-1.336 3.916-2.587 4.867-3.771.952-1.173 1.311-2.389 1.076-3.635l.145-.087c.301.79.255 1.71-.135 2.771-.575 1.515-2.571 3.263-5.985 5.236-2.687 1.558-4.805 2.383-6.355 2.478-1.55.09-2.714-.534-3.499-1.886-.73-1.268-.737-2.593-.025-3.982l.258.139zM17.935 175.709l18.597-5.401 1.098-2.442 2.01 6.916-2.259-1.556-14.12 4.102c.501.534.844 1.11 1.027 1.737.285.996.105 1.873-.542 2.633l-.037-.131c.345-.806.407-1.59.186-2.348-.209-.722-.58-1.3-1.119-1.748l-.992.285c.745.575 1.263 1.349 1.545 2.32.154.535.16 1.018.016 1.447-.141.432-.392.7-.757.809-.533.146-.882-.024-1.052-.513-.155-.442-.014-.73.413-.855.075-.016.155-.026.236-.026a.913.913 0 01.114-.014c.169-.068.214-.239.133-.521-.206-.7-.68-1.316-1.428-1.843a5.24 5.24 0 00-2.517-.939l-.552-1.912zm.059-.885l.077-.494 18.102-5.263 2.234-3.444 2.386 8.211-.33.478-2.219-7.638-1.814 2.798-18.436 5.352zM12.676 147.329c-.09-2.111.642-3.984 2.19-5.608 1.965-2.085 4.939-3.219 8.92-3.377 3.283-.143 5.909.49 7.872 1.89 1.969 1.401 3.003 3.375 3.112 5.918.105 2.595-.832 4.72-2.827 6.384-1.993 1.661-4.688 2.562-8.08 2.706-3.275.136-5.928-.516-7.97-1.96-2.038-1.443-3.113-3.423-3.217-5.953zm.477-4.59c.673-1.724 1.923-3.092 3.749-4.101 1.822-1.024 4.04-1.587 6.64-1.696 4.365-.186 7.626.7 9.779 2.648 1.749 1.574 2.675 3.6 2.781 6.078.049 1.135-.081 2.125-.384 2.98-.307.857-.863 1.789-1.682 2.801l-.124-.136c1.269-1.689 1.862-3.49 1.781-5.415-.118-2.817-1.229-4.965-3.33-6.471-2.107-1.493-4.97-2.166-8.599-2.011-2.66.109-4.842.6-6.544 1.466-1.705.874-3.007 2.158-3.921 3.857h-.146zm1.079 4.593c.073 1.759.885 3.005 2.435 3.73 1.554.729 4.01 1.02 7.374.879 6.389-.271 9.506-2.206 9.353-5.811-.131-3.227-3.379-4.705-9.734-4.447-3.486.146-5.947.653-7.387 1.523-1.442.855-2.122 2.237-2.041 4.126zm2.731-3.814c-1.065.898-1.569 2.011-1.515 3.36.06 1.373.782 2.337 2.173 2.895 1.388.562 3.596.782 6.623.646 2.649-.108 4.67-.47 6.06-1.072 1.39-.602 2.269-1.515 2.646-2.712l.167-.014c-.099.825-.569 1.629-1.406 2.387-1.216 1.077-3.793 1.69-7.735 1.861-3.1.133-5.361-.125-6.778-.757-1.414-.644-2.151-1.737-2.219-3.295-.06-1.455.546-2.644 1.823-3.54l.161.241zM15.926 114.639l18.988 3.793 2.106-1.655-1.414 7.066-1.287-2.425-14.418-2.888c.201.701.236 1.376.108 2.017-.202 1.012-.768 1.696-1.698 2.076l.029-.125c.68-.554 1.096-1.227 1.251-1.995.147-.738.085-1.427-.183-2.071l-1.015-.206c.398.855.496 1.783.296 2.774-.108.551-.324.977-.648 1.292-.324.32-.676.434-1.046.364-.544-.113-.779-.423-.697-.939.068-.464.324-.651.76-.559a.735.735 0 01.223.071c.053.024.091.044.113.044.175.024.291-.109.35-.388.145-.725.008-1.494-.41-2.3a5.237 5.237 0 00-1.797-1.992l.389-1.954zm.459-.765l.301-.4 18.482 3.701 3.576-2.029-1.68 8.385-.515.276 1.561-7.798-2.902 1.636-18.823-3.771zM24.395 87.024c.9-1.923 2.416-3.239 4.54-3.964 2.71-.935 5.868-.559 9.475 1.138 2.972 1.4 5.005 3.175 6.1 5.321 1.091 2.158 1.095 4.385.007 6.692-1.103 2.353-2.924 3.8-5.46 4.345-2.539.551-5.34.106-8.414-1.343-2.964-1.402-5.015-3.211-6.156-5.426-1.136-2.223-1.166-4.484-.092-6.763zm1.379.717c-.75 1.595-.605 3.069.433 4.43 1.038 1.364 3.079 2.766 6.125 4.195 5.786 2.721 9.447 2.449 10.983-.817 1.373-2.92-.814-5.729-6.57-8.447-3.155-1.479-5.57-2.179-7.25-2.078-1.677.102-2.913 1.004-3.721 2.717zm4.188-2.113c-1.357.298-2.323 1.06-2.9 2.274-.583 1.243-.387 2.429.585 3.576.967 1.137 2.828 2.349 5.571 3.644 2.395 1.129 4.35 1.741 5.863 1.859 1.511.101 2.716-.292 3.604-1.186l.151.072c-.473.685-1.254 1.171-2.351 1.461-1.574.388-4.145-.259-7.712-1.931-2.813-1.329-4.697-2.596-5.657-3.826-.959-1.216-1.104-2.527-.441-3.944.616-1.316 1.705-2.086 3.257-2.293l.03.294zm-3.019-2.445c1.395-1.219 3.141-1.859 5.229-1.917 2.087-.057 4.313.47 6.673 1.58 3.948 1.859 6.425 4.154 7.436 6.879.818 2.211.702 4.434-.355 6.669-.48 1.029-1.057 1.847-1.724 2.466-.662.616-1.593 1.186-2.787 1.713l-.042-.191c1.904-.906 3.264-2.223 4.084-3.968 1.2-2.552 1.216-4.973.042-7.269-1.166-2.307-3.397-4.226-6.683-5.773-2.408-1.135-4.567-1.71-6.481-1.729-1.91-.021-3.66.513-5.254 1.594l-.138-.054zM42.478 59.559l15.046 12.184 2.631-.482-4.533 5.592-.011-2.746-11.428-9.251c-.147.712-.424 1.324-.839 1.829-.647.794-1.468 1.151-2.47 1.062l.086-.106c.86-.178 1.54-.578 2.036-1.186.472-.583.735-1.219.798-1.911l-.802-.657c-.046.941-.388 1.802-1.024 2.592-.353.434-.744.709-1.178.839-.432.133-.796.073-1.092-.163-.435-.348-.493-.733-.179-1.162.277-.377.589-.416.932-.141.062.049.12.104.163.169.037.049.064.072.079.094.145.101.312.035.49-.187.464-.576.7-1.311.708-2.226a5.255 5.255 0 00-.666-2.604l1.253-1.539zm.757-.457l.456-.214 14.641 11.86 4.109-.134-5.387 6.645-.58.008 5.004-6.183-3.325.102-14.918-12.084zM62.745 39.046c1.684-1.278 3.636-1.753 5.854-1.409 2.836.413 5.463 2.211 7.877 5.381 1.988 2.615 2.972 5.134 2.943 7.544-.023 2.413-1.05 4.389-3.083 5.939-2.064 1.571-4.347 2.014-6.851 1.329-2.501-.688-4.78-2.38-6.838-5.085-1.981-2.603-2.968-5.16-2.945-7.661.014-2.49 1.029-4.507 3.043-6.038zm.888 1.28c-1.403 1.06-1.957 2.441-1.666 4.127.291 1.688 1.456 3.874 3.495 6.547 3.872 5.098 7.24 6.544 10.114 4.356 2.572-1.952 1.932-5.466-1.92-10.523-2.112-2.774-3.936-4.507-5.465-5.195-1.532-.69-3.052-.459-4.558.688zm4.689.057c-1.342-.357-2.549-.137-3.623.676-1.088.837-1.467 1.98-1.134 3.434.336 1.47 1.418 3.397 3.254 5.818 1.603 2.106 3.049 3.56 4.344 4.354 1.289.798 2.538 1.004 3.744.616l.098.137c-.737.39-1.656.457-2.756.21-1.58-.385-3.561-2.15-5.948-5.285-1.882-2.473-2.965-4.473-3.25-6-.287-1.522.19-2.757 1.43-3.705 1.164-.878 2.478-1.058 3.948-.519l-.107.264zm-1.544-3.572c1.801-.429 3.639-.186 5.519.734 1.881.907 3.607 2.405 5.187 4.478 2.644 3.474 3.784 6.657 3.413 9.544-.291 2.335-1.425 4.251-3.394 5.745-.9.696-1.792 1.155-2.668 1.394-.871.23-1.964.312-3.261.222l.05-.187c2.104.082 3.92-.461 5.454-1.627 2.242-1.708 3.378-3.847 3.402-6.434.026-2.576-1.064-5.317-3.262-8.202-1.611-2.119-3.264-3.629-4.95-4.527a8.995 8.995 0 00-5.397-1.017l-.093-.123zM91.432 23.069l7.71 17.759 2.564.782-6.609 2.87 1.255-2.441-5.851-13.488c-.46.559-.991.981-1.592 1.234-.942.41-1.833.35-2.678-.198l.124-.056c.846.243 1.628.198 2.354-.114a3.493 3.493 0 001.592-1.324l-.412-.947c-.474.81-1.176 1.413-2.106 1.822-.509.218-.988.292-1.433.202-.445-.089-.743-.308-.892-.651-.223-.518-.097-.883.375-1.118.418-.203.719-.105.895.307a.95.95 0 01.066.227c.01.057.02.102.026.114.083.166.258.19.522.068.673-.295 1.227-.842 1.65-1.644a5.21 5.21 0 00.616-2.616l1.824-.788zm.89-.061l.499.024 7.502 17.29 3.704 1.778-7.847 3.409-.519-.275 7.297-3.167-2.995-1.449-7.641-17.61zM119.01 14.266c2.088-.356 4.032.138 5.839 1.474 2.315 1.684 3.806 4.498 4.466 8.426.546 3.244.246 5.923-.902 8.042-1.144 2.129-2.974 3.409-5.491 3.826-2.56.429-4.787-.242-6.686-2.011-1.892-1.767-3.123-4.329-3.685-7.682-.545-3.223-.226-5.943.949-8.146 1.18-2.2 3.016-3.516 5.51-3.929zm.193 1.539c-1.738.291-2.873 1.251-3.401 2.882-.52 1.636-.507 4.102.048 7.422 1.06 6.309 3.368 9.164 6.929 8.56 3.185-.539 4.252-3.94 3.196-10.207-.577-3.442-1.384-5.823-2.421-7.147-1.034-1.316-2.487-1.826-4.351-1.51zm4.119 2.239c-1.018-.944-2.192-1.308-3.522-1.082-1.352.223-2.217 1.061-2.602 2.515-.385 1.441-.323 3.664.181 6.645.436 2.62 1.045 4.576 1.816 5.88.773 1.307 1.783 2.078 3.03 2.292l.027.162c-.837.008-1.682-.361-2.54-1.102-1.223-1.068-2.157-3.552-2.81-7.43-.517-3.069-.545-5.345-.089-6.831.458-1.482 1.455-2.356 2.995-2.607 1.437-.243 2.68.214 3.735 1.369l-.221.189zm.296-3.879c1.794.453 3.309 1.523 4.547 3.211 1.235 1.676 2.072 3.806 2.504 6.377.725 4.308.25 7.648-1.413 10.03-1.348 1.935-3.242 3.105-5.68 3.509-1.124.196-2.124.188-3.013-.002-.883-.2-1.879-.641-2.991-1.322l.132-.141c1.827 1.057 3.689 1.416 5.586 1.098 2.781-.474 4.782-1.839 6.003-4.113 1.223-2.277 1.535-5.2.934-8.783-.444-2.624-1.201-4.722-2.276-6.309-1.068-1.583-2.508-2.721-4.307-3.409l-.026-.146z"/></g><g fill="#FFF"><path d="M136.674 216.83a5.653 5.653 0 005.241 3.431 5.648 5.648 0 005.578-5.694 5.636 5.636 0 00-5.696-5.578c-2.184.02-4.048 1.301-4.965 3.133-37.008-2.204-66.627-32.791-67.002-70.417-.031-2.961.141-5.88.465-8.747h10.26c-2.163 16.603 2.451 33.908 13.848 47.428-.87 2.052-.477 4.52 1.196 6.186 2.196 2.195 5.771 2.195 7.973 0 2.197-2.193 2.197-5.779 0-7.973-1.533-1.527-3.728-1.968-5.665-1.367-11.67-13.919-15.599-32.167-11.752-48.996H70.982c5.976-32.951 34.699-58.193 69.41-58.542 37.626-.381 68.81 28.619 71.76 65.572-1.813.953-3.058 2.846-3.034 5.028.03 3.107 2.584 5.618 5.694 5.578 3.108-.024 5.609-2.582 5.578-5.69a5.638 5.638 0 00-3.521-5.168 75.745 75.745 0 00-3.659-18.055H228.482a90.113 90.113 0 00-19.648-36.002 5.64 5.64 0 00-1.231-6.116 5.638 5.638 0 00-7.976 7.969c1.56 1.561 3.805 1.992 5.766 1.34a85.335 85.335 0 0116.669 28.098H211.45c-11.466-27.963-39.097-47.589-71.106-47.262-41.903.425-75.649 34.855-75.231 76.763.406 40.148 32.048 72.795 71.561 75.081z"/><path d="M191.099 167.621a56.28 56.28 0 01-6.516 9.611c-1.938-.601-4.134-.16-5.666 1.367a5.64 5.64 0 000 7.973 5.65 5.65 0 007.973 0c1.665-1.662 2.063-4.115 1.207-6.164a60.94 60.94 0 008.282-12.787h-5.28z"/><path d="M229.651 121.665h-4.825c6.528 28.014-1.088 58.682-22.88 80.472-33.538 33.535-88.111 33.535-121.647 0-32.345-32.343-33.483-84.25-3.436-117.983 1.96.647 4.202.214 5.758-1.345a5.635 5.635 0 10-7.973-7.969 5.646 5.646 0 00-1.238 6.103c-31.766 35.58-30.589 90.379 3.555 124.525 35.378 35.377 92.936 35.377 128.317 0 22.703-22.702 30.808-54.549 24.369-83.803z"/><path d="M124.812 137.671a17.206 17.206 0 00-.348 3.438c0 9.423 7.665 17.088 17.085 17.088 7.522.003 13.915-4.894 16.189-11.663 2.398-.648 4.181-2.82 4.181-5.425 0-3.106-2.531-5.633-5.64-5.633a5.642 5.642 0 00-5.639 5.633c0 1.899.947 3.571 2.387 4.594-1.828 4.555-6.281 7.785-11.48 7.785-6.821-.006-12.369-5.557-12.372-12.379 0-1.19.179-2.344.499-3.438h-4.862z"/><path d="M198.416 162.909c8.384-21.902 3.782-47.679-13.845-65.308-23.891-23.89-62.763-23.89-86.651 0a60.841 60.841 0 00-15.418 25.926h4.95a56.222 56.222 0 0113.799-22.599c22.052-22.046 57.933-22.046 79.986 0 15.47 15.473 20.05 37.739 13.815 57.269h-10.759c1.576-3.862 2.626-7.991 3.115-12.285 2.104-.819 3.607-2.853 3.607-5.25a5.646 5.646 0 00-5.639-5.64 5.648 5.648 0 00-5.639 5.64c0 2.139 1.208 3.977 2.962 4.935-2.452 20.745-20.118 36.897-41.512 36.897-23.064 0-41.832-18.764-41.832-41.833 0-21.391 16.155-39.053 36.901-41.505.957 1.753 2.795 2.958 4.93 2.958a5.646 5.646 0 005.638-5.642 5.646 5.646 0 00-5.638-5.635c-2.384 0-4.416 1.493-5.238 3.587-23.208 2.612-41.304 22.349-41.304 46.236 0 25.664 20.876 46.544 46.543 46.544 17.609 0 32.969-9.831 40.87-24.298h16.359v.003z"/><path d="M141.738 175.918c2.447 0 4.514-1.579 5.29-3.765 15.027-2.532 26.525-15.596 26.525-31.332 0-17.537-14.274-31.814-31.815-31.814-15.74 0-28.809 11.502-31.338 26.527-2.183.779-3.757 2.842-3.757 5.286a5.641 5.641 0 005.638 5.64 5.639 5.639 0 005.635-5.64c0-2.078-1.142-3.874-2.82-4.852.189-1.021.418-2.03.717-3.012H132.273a12.485 12.485 0 014.697-3.314 5.619 5.619 0 004.581 2.374 5.642 5.642 0 005.642-5.635c0-3.11-2.53-5.638-5.642-5.638-2.606 0-4.78 1.782-5.424 4.189a17.054 17.054 0 00-5.784 3.307h-12.589c4.541-8.616 13.585-14.516 23.986-14.516 14.945 0 27.103 12.158 27.103 27.096 0 13.288-9.617 24.346-22.25 26.643-.979-1.678-2.776-2.82-4.853-2.82a5.643 5.643 0 00-5.638 5.635 5.641 5.641 0 005.636 5.641z"/></g></g></svg>