<svg width="349" height="62" xmlns="http://www.w3.org/2000/svg" xmlns:xlink="http://www.w3.org/1999/xlink"><defs><linearGradient x1="100%" y1="100%" x2="0%" y2="0%" id="a"><stop stop-color="#0C0E0F" offset="0%"/><stop stop-color="#23282B" offset="100%"/></linearGradient><linearGradient x1="34.538%" y1="7.166%" x2="51.937%" y2="95.118%" id="b"><stop stop-color="#556FF2" offset="0%"/><stop stop-color="#00BFFF" offset="100%"/></linearGradient><linearGradient x1="94.949%" y1="51.051%" x2="4.943%" y2="44.294%" id="c"><stop stop-color="#8C66FF" offset="0%"/><stop stop-color="#5C26FF" offset="100%"/></linearGradient><linearGradient x1="50%" y1="95.087%" x2="53.904%" y2="7.859%" id="d"><stop stop-color="#FF9F19" offset="0%"/><stop stop-color="#FC3" offset="100%"/></linearGradient><linearGradient x1="100%" y1="93.691%" x2="0%" y2="6.309%" id="f"><stop stop-color="#5C26FF" offset="0%"/><stop stop-color="#8C66FF" offset="100%"/></linearGradient><linearGradient x1="100%" y1="54.325%" x2="0%" y2="45.675%" id="h"><stop stop-color="#556FF2" offset="0%"/><stop stop-color="#00BFFF" offset="100%"/></linearGradient><linearGradient x1="50%" y1="84.52%" x2="76.653%" y2="17.736%" id="i"><stop stop-color="#FF9F19" offset="0%"/><stop stop-color="#FC3" offset="100%"/></linearGradient><linearGradient x1="100%" y1="100%" x2="0%" y2="0%" id="j"><stop stop-color="#0C0E0F" offset="0%"/><stop stop-color="#24292B" offset="100%"/></linearGradient><linearGradient x1="50%" y1="66.231%" x2="76.653%" y2="34.83%" id="k"><stop stop-color="#FF9F19" offset="0%"/><stop stop-color="#FC3" offset="100%"/></linearGradient><linearGradient x1="100%" y1="68.001%" x2="0%" y2="31.999%" id="l"><stop stop-color="#556FF2" offset="0%"/><stop stop-color="#00BFFF" offset="100%"/></linearGradient><linearGradient x1="83.988%" y1="55.888%" x2="15.931%" y2="18.029%" id="m"><stop stop-color="#8C66FF" offset="0%"/><stop stop-color="#5C26FF" offset="100%"/></linearGradient><linearGradient x1="50%" y1="95.087%" x2="70.153%" y2="7.859%" id="n"><stop stop-color="#FF9F19" offset="0%"/><stop stop-color="#FC3" offset="100%"/></linearGradient><linearGradient x1="12.193%" y1="7.166%" x2="54.736%" y2="95.118%" id="o"><stop stop-color="#556FF2" offset="0%"/><stop stop-color="#00BFFF" offset="100%"/></linearGradient><linearGradient x1="1.934%" y1="97.811%" x2="100%" y2="2.189%" id="p"><stop stop-color="#8C66FF" offset="0%"/><stop stop-color="#5C26FF" offset="100%"/></linearGradient><linearGradient x1="100%" y1="100%" x2="0%" y2="0%" id="q"><stop stop-color="#556FF2" offset="0%"/><stop stop-color="#00BFFF" offset="100%"/></linearGradient><linearGradient x1="50%" y1="95.087%" x2="76.653%" y2="7.859%" id="r"><stop stop-color="#FF9F19" offset="0%"/><stop stop-color="#FC3" offset="100%"/></linearGradient><linearGradient x1="100%" y1="58.252%" x2="0%" y2="41.748%" id="s"><stop stop-color="#5C26FF" offset="0%"/><stop stop-color="#8C66FF" offset="100%"/></linearGradient><linearGradient x1="100%" y1="53.955%" x2="0%" y2="46.045%" id="t"><stop stop-color="#556FF2" offset="0%"/><stop stop-color="#00BFFF" offset="100%"/></linearGradient><linearGradient x1="100%" y1="78.125%" x2="0%" y2="21.875%" id="u"><stop stop-color="#FF9F19" offset="0%"/><stop stop-color="#FC3" offset="100%"/></linearGradient><linearGradient x1="100%" y1="54.255%" x2="0%" y2="81.9%" id="v"><stop stop-color="#556FF2" offset="0%"/><stop stop-color="#00BFFF" offset="100%"/></linearGradient><linearGradient x1="50%" y1="95.087%" x2="76.59%" y2="7.859%" id="w"><stop stop-color="#FF9F19" offset="0%"/><stop stop-color="#FC3" offset="100%"/></linearGradient><linearGradient x1="54.261%" y1="55.888%" x2="45.729%" y2="18.029%" id="x"><stop stop-color="#8C66FF" offset="0%"/><stop stop-color="#5C26FF" offset="100%"/></linearGradient><path d="M0 0h4.898v3.061h22.04c.677 0 1.225.548 1.225 1.225v20.816c0 .676-.548 1.224-1.225 1.224H3.673A3.673 3.673 0 010 22.653V0z" id="e"/><path d="M3.061 0h16.53c.677 0 1.225.548 1.225 1.224v4.898H3.061a3.061 3.061 0 110-6.122z" id="g"/></defs><g fill="none" fill-rule="evenodd"><g transform="translate(79.59 6.122)"><rect fill="url(#a)" width="48.979" height="48.979" rx="6.122"/><g fill-rule="nonzero"><path d="M16.697 4.453V0c9.222 0 16.698 7.476 16.698 16.697 0 5.445-2.607 10.281-6.64 13.33l-2.563-3.645a12.22 12.22 0 004.745-9.332l.005-.353c0-6.66-5.317-12.078-11.938-12.24l-.307-.004V0z" fill="url(#b)" transform="translate(7.792 7.792)"/><path d="M16.697 28.942a12.17 12.17 0 006.584-1.918l2.563 3.642-.162.107a16.61 16.61 0 01-8.535 2.616l-.45.006c-5.749 0-10.82-2.906-13.823-7.329l3.77-2.375a12.229 12.229 0 0010.053 5.251z" fill="url(#c)" transform="translate(7.792 7.792)"/><path d="M4.297 5.515l3.208 3.093a12.18 12.18 0 00-3.047 7.726l-.005.363c0 2.158.556 4.226 1.597 6.053L2.28 25.124l-.104-.178a16.61 16.61 0 01-2.171-7.799L0 16.697c0-4.3 1.626-8.222 4.297-11.182z" fill="url(#d)" transform="translate(7.792 7.792)"/><path d="M23.376 7.829v4.466a12.184 12.184 0 00-7.305 3.303l-3.208-3.093A16.64 16.64 0 0123.376 7.83z" fill="#FFF" opacity=".3"/></g></g><g transform="translate(214.282 6.122)"><rect fill="url(#a)" width="48.979" height="48.979" rx="6.122"/><use fill="url(#f)" xlink:href="#e" transform="translate(9.796 12.857)"/><use fill="url(#h)" xlink:href="#g" transform="translate(9.796 9.796)"/><path d="M29.387 13.47v8.57h-5.51a4.286 4.286 0 110-8.57h5.51zm-5.51 2.448a1.837 1.837 0 100 3.674 1.837 1.837 0 000-3.674z" fill="url(#i)" fill-rule="nonzero" transform="translate(9.796 9.796)"/></g><path d="M9.811 0h41.601c3.414 0 4.649.355 5.896 1.022a6.953 6.953 0 012.893 2.893c.667 1.248 1.022 2.484 1.022 5.896v41.601c0 3.414-.355 4.649-1.022 5.896a6.953 6.953 0 01-2.893 2.893c-1.247.667-2.484 1.022-5.896 1.022h-41.6c-3.414 0-4.65-.355-5.897-1.022a6.953 6.953 0 01-2.893-2.893C.355 56.061 0 54.826 0 51.412v-41.6c0-3.414.355-4.65 1.022-5.897a6.953 6.953 0 012.893-2.893C5.163.355 6.398 0 9.811 0z" fill="url(#j)" transform="translate(140.814)"/><path d="M37.988 12.245l10.99 9.183-10.99 9.184v-6.123h-18.09a1.53 1.53 0 01-1.531-1.53v-3.061c0-.846.685-1.531 1.53-1.531h18.091v-6.122z" fill="url(#k)" fill-rule="nonzero" transform="translate(140.814)"/><path d="M31.824 30.612l11.032 9.183-11.032 9.184v-6.123H13.775a1.53 1.53 0 01-1.53-1.53v-3.061c0-.846.685-1.53 1.53-1.53h18.05v-6.123z" fill="url(#l)" fill-rule="nonzero" transform="rotate(-180 97.958 39.795)"/><g opacity=".8" transform="translate(275.505 12.245)"><rect fill="url(#a)" width="36.734" height="36.734" rx="6.428"/><g fill-rule="nonzero"><path d="M21.354 8.481l3.21 1.905a.996.996 0 01.482.858v3.81a.996.996 0 01-.482.858l-3.21 1.905a.942.942 0 01-.964 0l-3.21-1.905a.996.996 0 01-.483-.858v-3.81c0-.354.184-.68.482-.858l3.21-1.905a.942.942 0 01.965 0z" fill="url(#m)" transform="translate(5.844 5.01)"/><path d="M10.5 13.49l3.21 1.905a.996.996 0 01.483.858v3.81a.996.996 0 01-.482.858l-3.21 1.905a.942.942 0 01-.965 0l-3.21-1.905a.996.996 0 01-.482-.858v-3.81c0-.354.184-.68.482-.858l3.21-1.904a.942.942 0 01.964 0z" fill="#FFF" opacity=".3"/><path d="M13.005 16.83l3.21 1.905a.996.996 0 01.482.858v3.81a.996.996 0 01-.482.858l-3.21 1.905a.942.942 0 01-.964 0l-3.21-1.905a.996.996 0 01-.482-.858v-3.81c0-.354.183-.681.482-.858l3.21-1.905a.942.942 0 01.964 0z" fill="url(#n)" transform="translate(5.844 5.01)"/><path d="M13.005.133l3.21 1.905a.996.996 0 01.482.858v3.81a.996.996 0 01-.482.857l-3.21 1.905a.942.942 0 01-.964 0l-3.21-1.905a.996.996 0 01-.482-.858v-3.81c0-.353.183-.68.482-.857L12.04.133a.942.942 0 01.964 0z" fill="url(#o)" transform="translate(5.844 5.01)"/></g></g><g opacity=".8" transform="translate(36.734 12.245)"><rect fill="url(#a)" width="36.734" height="36.734" rx="7.013"/><path fill="url(#p)" d="M15.404 1.113h2.599L3.91 17.438H1.31z" transform="translate(8.571 9.184)"/><path d="M4.453 0a4.453 4.453 0 110 8.905 4.453 4.453 0 010-8.905zm0 2.226a2.226 2.226 0 100 4.453 2.226 2.226 0 000-4.453z" fill="url(#q)" transform="translate(8.571 9.184)"/><path d="M14.842 9.647a4.453 4.453 0 110 8.906 4.453 4.453 0 010-8.906zm0 2.227a2.226 2.226 0 100 4.452 2.226 2.226 0 000-4.452z" fill="url(#r)" fill-rule="nonzero" transform="translate(8.571 9.184)"/></g><g opacity=".6" transform="translate(324.484 18.367)"><rect width="24.489" height="24.489" rx="4.286" fill="url(#a)"/><path d="M3.34 11.132h17.81v4.897a2.338 2.338 0 01-2.338 2.338H5.677a2.338 2.338 0 01-2.338-2.338v-4.897z" fill="url(#s)"/><path d="M5.677 6.122h13.135A2.338 2.338 0 0121.15 8.46v2.672H3.34V8.46a2.338 2.338 0 012.337-2.338z" fill="url(#t)"/><path d="M11.704 13.96a.073.073 0 01.015-.008.021.021 0 00.008-.005.037.037 0 01.017-.004c.018 0 .034.005.048.015.015.01.024.023.029.039l.06.19a.047.047 0 01.003.02c0 .016-.005.03-.015.045-.01.015-.022.023-.035.025a.2.2 0 00-.027.007l-.334.033.25.22.02.02a.077.077 0 01.014.044c0 .027-.01.047-.03.06l-.164.117a.05.05 0 01-.036.014.076.076 0 01-.064-.03l-.013-.024-.134-.3-.133.3-.014.024a.076.076 0 01-.063.03.05.05 0 01-.037-.014l-.163-.117a.067.067 0 01-.03-.06c0-.015.004-.03.013-.043l.02-.02.247-.22-.33-.034a.2.2 0 00-.027-.007.064.064 0 01-.042-.035.065.065 0 01-.005-.055l.06-.19a.07.07 0 01.038-.044.08.08 0 01.056-.006.021.021 0 00.008.005.073.073 0 01.015.008l.287.17-.07-.327-.003-.027c0-.017.007-.034.021-.05a.068.068 0 01.052-.023h.2c.02 0 .038.008.052.023a.073.073 0 01.022.05l-.003.027-.074.327.29-.17zm1.512 2.09a.087.087 0 01-.026.064.087.087 0 01-.064.027h-.137a.087.087 0 01-.063-.027.087.087 0 01-.027-.063v-1.84l-.54.41a.084.084 0 01-.058.02.085.085 0 01-.07-.033l-.08-.104a.093.093 0 01-.02-.056c0-.03.012-.053.037-.07l.715-.548a.18.18 0 01.106-.027h.137c.025 0 .046.009.064.027a.087.087 0 01.026.063v2.158zm1.46-1.138a.67.67 0 00.153-.19.529.529 0 00.047-.238.42.42 0 00-.107-.3c-.07-.076-.179-.114-.324-.114-.142 0-.249.038-.32.112a.653.653 0 00-.154.302.11.11 0 01-.033.057.08.08 0 01-.054.02h-.153a.07.07 0 01-.052-.022.07.07 0 01-.022-.051.755.755 0 01.374-.611.786.786 0 01.414-.107c.158 0 .294.031.406.095.113.063.198.149.256.257a.755.755 0 01.086.362.82.82 0 01-.071.36 1 1 0 01-.246.302l-.745.694h1.022c.025 0 .046.01.064.027a.087.087 0 01.027.063v.12a.087.087 0 01-.027.064.087.087 0 01-.064.027h-1.439a.087.087 0 01-.063-.027.087.087 0 01-.027-.063v-.12c0-.025.005-.046.015-.062a.336.336 0 01.058-.066l.979-.891zm1.733.962a.6.6 0 00.369-.109.37.37 0 00.145-.316c0-.135-.046-.234-.138-.295a.672.672 0 00-.376-.092h-.277a.087.087 0 01-.064-.027.087.087 0 01-.026-.063v-.12a.09.09 0 01.013-.049.389.389 0 01.04-.051l.601-.648h-.962a.087.087 0 01-.063-.027.087.087 0 01-.027-.064v-.12c0-.024.01-.045.027-.063a.087.087 0 01.063-.027h1.316c.025 0 .046.009.064.027a.087.087 0 01.026.063v.12c0 .032-.02.07-.06.114l-.59.638a.815.815 0 01.543.19.628.628 0 01.208.494.672.672 0 01-.112.386.716.716 0 01-.3.252.99.99 0 01-.42.087c-.19 0-.348-.028-.478-.085a.66.66 0 01-.287-.22.542.542 0 01-.1-.29.07.07 0 01.022-.051.07.07 0 01.052-.022h.153c.022 0 .04.007.055.022.015.014.025.03.032.048a.407.407 0 00.159.217c.076.054.207.08.392.08zm2.31.267a.087.087 0 01-.063-.027.087.087 0 01-.026-.063v-.461H17.58a.087.087 0 01-.063-.027.087.087 0 01-.027-.063v-.12c0-.016.004-.035.013-.056a.274.274 0 01.034-.058l1.055-1.383c.04-.053.083-.08.13-.08h.134c.024 0 .045.009.063.027a.087.087 0 01.027.063v1.396h.287c.025 0 .046.01.064.027a.087.087 0 01.026.063v.12a.087.087 0 01-.026.064.087.087 0 01-.064.027h-.287v.46a.087.087 0 01-.027.064.087.087 0 01-.063.027h-.137zm-.09-1.794l-.724.942h.725v-.942z" fill="#FFF" fill-rule="nonzero"/><rect fill="url(#u)" x="5.566" y="9.462" width="4.453" height="3.339" rx=".779"/></g><g opacity=".6"><path d="M5.494 0h13.501c1.91 0 2.604.199 3.302.572a3.894 3.894 0 011.62 1.62c.373.699.572 1.392.572 3.302v13.501c0 1.91-.199 2.604-.572 3.302a3.894 3.894 0 01-1.62 1.62c-.698.373-1.391.572-3.302.572H5.494c-1.91 0-2.603-.199-3.302-.572a3.894 3.894 0 01-1.62-1.62C.2 21.599 0 20.906 0 18.995V5.494c0-1.91.199-2.603.572-3.302a3.894 3.894 0 011.62-1.62C2.891.2 3.584 0 5.494 0z" fill="url(#a)" transform="translate(0 18.367)"/><g fill-rule="nonzero"><path fill="url(#v)" d="M1.603 10.079l-1.57-1.57 1.57-1.571L6.24 2.302 9.77 5.83v3.14l-3.53-3.529z" transform="translate(3.242 25.523)"/><path fill="url(#w)" d="M8.208 7.409l1.56-1.578 4.94-4.94 1.571 1.57-6.51 6.51z" transform="translate(3.242 25.523)"/><path fill="url(#x)" transform="rotate(-45 40.435 14.485)" d="M6.894 9.242V2.031h2.22l-.011 7.213z"/><path fill="url(#r)" d="M12.118.079h5.234v5.234z" transform="translate(3.242 25.523)"/></g></g></g></svg>