<svg width="1778" height="287" fill="none" xmlns="http://www.w3.org/2000/svg"><path opacity=".5" d="M613 87.53a3.53 3.53 0 013.529-3.53h142.942A3.53 3.53 0 01763 87.53v170.495a3.53 3.53 0 01-2.354 3.328L690.35 286.17a7.057 7.057 0 01-4.7 0l-70.296-24.817a3.53 3.53 0 01-2.354-3.328V87.529z" fill="url(#paint0_linear)"/><path d="M603.082 49.08a4 4 0 013.999-4.08h161.838a4 4 0 013.999 4.08l-3.864 193.195a3.999 3.999 0 01-2.609 3.671l-75.666 28.025a8.003 8.003 0 01-5.558 0l-75.666-28.025a3.999 3.999 0 01-2.609-3.671L603.082 49.08z" fill="url(#paint1_linear)"/><path opacity=".2" fill-rule="evenodd" clip-rule="evenodd" d="M603 45h170v40l-85.005 10L603 85V45z" fill="#1F2033"/><g filter="url(#filter0_d)"><path d="M692.2 12.02l23.311 13.46a7 7 0 013.5 6.061V58.46a7 7 0 01-3.5 6.062L692.2 77.979a7 7 0 01-7 0l-23.311-13.458a7 7 0 01-3.5-6.063V31.541a7 7 0 013.5-6.062L685.2 12.021a7 7 0 017 0z" fill="url(#paint2_linear)"/></g><path d="M686.492 61.147l-13.473-27.442a.665.665 0 01.596-.955h4.668a.67.67 0 01.596.36l9.838 19.908c.877 1.786 3.415 1.786 4.292 0l9.807-19.892a.67.67 0 01.596-.36h.579c.345 0 .564.36.408.658l-13.614 27.723c-.877 1.785-3.415 1.785-4.293 0z" fill="#fff"/><g opacity=".1"><path d="M686.493 61.147l-7.614-28.021a.647.647 0 00-.564-.36h-4.684a.666.666 0 00-.611.955l13.473 27.426z" fill="#757575"/><path d="M688.717 53.033L673.02 33.706c-.188-.454.094-.908.532-.955h4.747c.266.016.47.188.564.36l9.854 19.923z" fill="#8C8989"/></g><path opacity=".5" d="M412 87.53a3.53 3.53 0 013.529-3.53h142.942A3.53 3.53 0 01562 87.53v170.495a3.53 3.53 0 01-2.354 3.328L489.35 286.17a7.057 7.057 0 01-4.7 0l-70.296-24.817a3.53 3.53 0 01-2.354-3.328V87.529z" fill="url(#paint3_linear)"/><path d="M402.082 49.08a4 4 0 013.999-4.08h161.838a4 4 0 013.999 4.08l-3.864 193.195a3.999 3.999 0 01-2.609 3.671l-75.666 28.025a8.003 8.003 0 01-5.558 0l-75.666-28.025a3.999 3.999 0 01-2.609-3.671L402.082 49.08z" fill="url(#paint4_linear)"/><path opacity=".1" fill-rule="evenodd" clip-rule="evenodd" d="M402 45h170v40l-85 10-85-10V45z" fill="#1F2033"/><g filter="url(#filter1_d)"><path d="M490.931 10.963l23.944 13.824a7.19 7.19 0 013.595 6.227v27.652a7.19 7.19 0 01-3.595 6.227l-23.944 13.823a7.191 7.191 0 01-7.191 0l-23.945-13.823a7.192 7.192 0 01-3.595-6.227V31.014a7.192 7.192 0 013.595-6.227l23.945-13.824a7.191 7.191 0 017.191 0z" fill="url(#paint5_linear)"/></g><path d="M490.086 62.816c-2.58 0-4.46-.618-5.641-1.853-1.181-1.235-1.771-2.567-1.771-3.995 0-.52.102-.961.309-1.317.201-.352.493-.644.845-.845.356-.207.795-.31 1.318-.31.521 0 .96.103 1.317.31.356.207.639.487.845.845.205.356.306.796.306 1.317 0 .631-.149 1.145-.45 1.545-.263.37-.64.644-1.073.782.36.494.921.844 1.69 1.05.75.217 1.526.328 2.306.33 1.07 0 2.037-.287 2.904-.864.862-.578 1.502-1.43 1.914-2.553.414-1.127.618-2.404.618-3.833 0-1.55-.226-2.876-.679-3.972-.44-1.113-1.091-1.937-1.958-2.472a5.226 5.226 0 00-2.799-.802c-.659 0-1.483.273-2.471.823l-1.812.906v-.906l8.154-10.872h-11.284v11.284c0 .935.205 1.702.618 2.306.412.604 1.043.906 1.895.906.658 0 1.289-.219 1.893-.66a6.671 6.671 0 001.564-1.605.603.603 0 01.207-.27c.074-.064.17-.1.269-.1.149 0 .327.075.534.227.193.219.288.472.288.76a5.372 5.372 0 01-.103.577c-.467 1.043-1.112 1.839-1.936 2.389a4.796 4.796 0 01-2.716.823c-2.445 0-4.135-.48-5.068-1.44-.932-.961-1.398-2.265-1.398-3.913V36.13h-5.767V34.03h5.767v-4.775l-1.32-1.32v-1.07h3.831l1.442.74v6.425l14.908-.042 1.483 1.483-9.143 9.143a6.168 6.168 0 011.729-.413c.989 0 2.102.318 3.337.949 1.249.618 2.211 1.469 2.881 2.553.674 1.071 1.106 2.101 1.298 3.088.207.989.309 1.868.309 2.635 0 1.758-.37 3.392-1.11 4.902a7.202 7.202 0 01-3.38 3.376 10.972 10.972 0 01-4.899 1.113h-.001z" fill="#2C7DF7"/><g><path opacity=".5" fill-rule="evenodd" clip-rule="evenodd" d="M211 87.53a3.53 3.53 0 013.529-3.53h142.942A3.53 3.53 0 01361 87.53v170.495a3.53 3.53 0 01-2.354 3.328L288.35 286.17a7.057 7.057 0 01-4.7 0l-70.296-24.817a3.53 3.53 0 01-2.354-3.328V87.529z" fill="url(#paint6_linear)"/><path fill-rule="evenodd" clip-rule="evenodd" d="M201.082 49.08a4 4 0 013.999-4.08h161.838a4 4 0 013.999 4.08l-3.864 193.195a3.999 3.999 0 01-2.609 3.671l-75.666 28.025a8.003 8.003 0 01-5.558 0l-75.666-28.025a3.999 3.999 0 01-2.609-3.671L201.082 49.08z" fill="url(#paint7_linear)"/><path opacity=".2" fill-rule="evenodd" clip-rule="evenodd" d="M201 45h170v40l-85 10-85-10V45z" fill="#1F2033"/><g filter="url(#filter2_d)"><path fill-rule="evenodd" clip-rule="evenodd" d="M290.057 10.967l24.032 13.875a7.218 7.218 0 013.608 6.25V58.84a7.218 7.218 0 01-3.608 6.25l-24.032 13.874a7.217 7.217 0 01-7.217 0l-24.032-13.874a7.218 7.218 0 01-3.608-6.25V31.09a7.218 7.218 0 013.608-6.25l24.032-13.874a7.218 7.218 0 017.217 0z" fill="url(#paint8_linear)"/></g><circle cx="286.864" cy="44.946" r="16.786" fill="#1B1E36"/><path fill-rule="evenodd" clip-rule="evenodd" d="M281.269 45.006c0-13.972 2.531-25.298 5.654-25.298 3.123 0 5.655 11.326 5.655 25.298 0 13.972-2.532 25.298-5.655 25.298s-5.654-11.326-5.654-25.298zm5.33 23.99s.358.357.715-.12c0 0 1.677-1.43 2.875-8.215 0 0 1.556-8.928 1.318-16.905 0 0 .238-9.167-2.392-18.929 0 0-.891-3.146-1.953-3.899a.446.446 0 00-.572.046c-.731.723-2.882 3.983-4.064 17.782 0 0-.599 17.382 1.916 25.477 0 0 .719 3.096 2.157 4.762z" fill="#6F7390"/><path fill-rule="evenodd" clip-rule="evenodd" d="M284.105 40.101c12.124-6.954 23.207-10.394 24.762-7.684h.001c1.553 2.709-7.001 10.54-19.125 17.494-12.123 6.954-23.209 10.395-24.762 7.685-1.554-2.709 7.001-10.541 19.124-17.495zM265.952 56.66s-.134.489.461.564h-.001s2.074.743 8.557-1.592c0 0 8.52-3.09 15.321-7.268 0 0 8.07-4.356 15.225-11.5 0 0 2.291-2.338 2.41-3.633a.447.447 0 00-.325-.477c-.989-.271-4.889-.517-17.445 5.324 0 0-15.376 8.13-21.149 14.341 0 0-2.324 2.164-3.054 4.24z" fill="#6F7390"/><path fill-rule="evenodd" clip-rule="evenodd" d="M289.763 40.11c12.084 7.004 20.615 14.874 19.049 17.576-1.566 2.706-12.634-.776-24.724-7.781-12.089-7.005-20.619-14.87-19.054-17.577 1.566-2.707 12.646.776 24.729 7.781zm-23.433-7.42s-.49.132-.257.681l.002.005s.395 2.166 5.669 6.606c0 0 6.941 5.825 13.96 9.61 0 0 7.812 4.8 17.58 7.419 0 0 3.169.807 4.353.265a.446.446 0 00.247-.519c-.259-.992-2.001-4.49-13.349-12.43 0 0-14.738-9.232-23.004-11.114 0 0-3.038-.931-5.201-.523z" fill="#6F7390"/><circle cx="286.863" cy="44.946" r="2.976" fill="#B7B9C8"/><ellipse cx="299.067" cy="33.517" rx="1.726" ry="1.786" fill="#B7B9C8"/><ellipse cx="270.733" cy="39.589" rx="1.726" ry="1.786" fill="#B7B9C8"/><ellipse cx="283.352" cy="61.494" rx="1.726" ry="1.786" fill="#B7B9C8"/></g><g><path opacity=".5" d="M10 87.53A3.53 3.53 0 0113.53 84H156.47A3.53 3.53 0 01160 87.53v170.495a3.53 3.53 0 01-2.354 3.328L87.35 286.17a7.057 7.057 0 01-4.7 0l-70.296-24.817A3.53 3.53 0 0110 258.025V87.529z" fill="url(#paint9_linear)"/><path d="M.082 49.08A4 4 0 014.08 45h161.838a4 4 0 013.999 4.08l-3.864 193.195a3.999 3.999 0 01-2.609 3.671l-75.666 28.025a8 8 0 01-5.557 0L6.555 245.946a4 4 0 01-2.61-3.671L.083 49.08z" fill="url(#paint10_linear)"/><path opacity=".1" fill-rule="evenodd" clip-rule="evenodd" d="M0 45h170v40L85 95 0 85V45z" fill="#1F2033"/><g filter="url(#filter3_d)"><path d="M88.595 11.123l23.945 13.824a7.192 7.192 0 013.595 6.227v27.652a7.192 7.192 0 01-3.595 6.227L88.595 78.876a7.19 7.19 0 01-7.19 0L57.46 65.053a7.19 7.19 0 01-3.595-6.227V31.174a7.19 7.19 0 013.595-6.227l23.945-13.823a7.19 7.19 0 017.19 0z" fill="url(#paint11_linear)"/></g><path d="M98.3 56.888h-4.382L91.06 46.304l-6.128 10.584h-4.897l9.466-16.386-1.523-5.696L75.209 56.9H70.3l16.19-28h4.3l1.875 6.96h4.428l-3.023 5.25 4.23 15.778z" fill="#000"/></g><g><path opacity=".5" d="M814 87.53a3.53 3.53 0 013.529-3.53h142.942A3.53 3.53 0 01964 87.53v170.495a3.53 3.53 0 01-2.354 3.328L891.35 286.17a7.057 7.057 0 01-4.7 0l-70.296-24.817a3.53 3.53 0 01-2.354-3.328V87.529z" fill="url(#paint12_linear)"/><path d="M804.082 49.08a4 4 0 013.999-4.08h161.838a4 4 0 013.999 4.08l-3.864 193.195a3.999 3.999 0 01-2.609 3.671l-75.666 28.025a8.003 8.003 0 01-5.558 0l-75.666-28.025a3.999 3.999 0 01-2.609-3.671L804.082 49.08z" fill="url(#paint13_linear)"/><path opacity=".2" fill-rule="evenodd" clip-rule="evenodd" d="M804 45h170v40l-85 10-85-10V45z" fill="#1F2033"/><g filter="url(#filter4_d)"><path d="M893.2 12.021l23.31 13.458a7 7 0 013.5 6.062v26.918a7 7 0 01-3.5 6.062L893.2 77.98a7 7 0 01-7 0L862.89 64.52a7 7 0 01-3.5-6.062V31.541a7 7 0 013.5-6.062L886.2 12.02a7 7 0 017 0z" fill="url(#paint14_linear)"/></g><path fill-rule="evenodd" clip-rule="evenodd" d="M904.767 59.282V45.177l-.001-.002c.097-7.877-6.201-14.346-14.077-14.46a14.237 14.237 0 00-10.304 4.182l24.382 24.385zm-29.925-27.886v14.106c-.097 7.878 6.202 14.347 14.079 14.46 3.859.06 7.577-1.45 10.302-4.182l-24.381-24.385z" fill="#fff"/></g><g><path opacity=".5" d="M1015 87.53a3.53 3.53 0 013.53-3.53h142.94a3.53 3.53 0 013.53 3.53v170.495c0 1.496-.94 2.83-2.35 3.328l-70.3 24.817a7.057 7.057 0 01-4.7 0l-70.3-24.817a3.527 3.527 0 01-2.35-3.328V87.529z" fill="url(#paint15_linear)"/><path d="M1005.08 49.08a4.004 4.004 0 014-4.08h161.84c2.24 0 4.04 1.84 4 4.08l-3.87 193.195a3.984 3.984 0 01-2.61 3.671l-75.66 28.025a8.008 8.008 0 01-5.56 0l-75.66-28.025a3.984 3.984 0 01-2.61-3.671l-3.87-193.195z" fill="url(#paint16_linear)"/><path opacity=".2" fill-rule="evenodd" clip-rule="evenodd" d="M1005 45h170v40l-85 10-85-10V45z" fill="#1F2033"/><g filter="url(#filter5_d)"><path d="M1094.2 12.021l23.31 13.458a6.991 6.991 0 013.5 6.062v26.918c0 2.501-1.33 4.812-3.5 6.062L1094.2 77.98a7 7 0 01-7 0l-23.31-13.458a6.991 6.991 0 01-3.5-6.062V31.541c0-2.501 1.33-4.812 3.5-6.062l23.31-13.458a7 7 0 017 0z" fill="url(#paint17_linear)"/></g><path fill-rule="evenodd" clip-rule="evenodd" d="M1106.6 32.837l-14.91-5.337-16.74 6.125v23.42l15.23 5.455V38.875l16.42-6.038zm0 24.968V34.12l-15.2 5.63v12.63l15.2 5.425z" fill="#fff"/></g><g><path opacity=".6" d="M1216 87.53a3.53 3.53 0 013.53-3.53h142.94a3.53 3.53 0 013.53 3.53v170.495c0 1.496-.94 2.83-2.35 3.328l-70.3 24.817a7.057 7.057 0 01-4.7 0l-70.3-24.817a3.527 3.527 0 01-2.35-3.328V87.529z" fill="url(#paint18_linear)"/><path d="M1206.08 49.08a4.004 4.004 0 014-4.08h161.84c2.24 0 4.04 1.84 4 4.08l-3.87 193.195a3.984 3.984 0 01-2.61 3.671l-75.66 28.025a8.008 8.008 0 01-5.56 0l-75.66-28.025a3.984 3.984 0 01-2.61-3.671l-3.87-193.195z" fill="url(#paint19_linear)"/><path opacity=".1" fill-rule="evenodd" clip-rule="evenodd" d="M1206 45h170v40l-85 10-85-10V45z" fill="#1F2033"/><g filter="url(#filter6_d)"><path d="M1295.2 12.021l23.31 13.458a6.991 6.991 0 013.5 6.062v26.918c0 2.501-1.33 4.812-3.5 6.062L1295.2 77.98a7 7 0 01-7 0l-23.31-13.458a6.991 6.991 0 01-3.5-6.062V31.541c0-2.501 1.33-4.812 3.5-6.062l23.31-13.458a7 7 0 017 0z" fill="url(#paint20_linear)"/></g><path fill-rule="evenodd" clip-rule="evenodd" d="M1305.75 39.992H1309.33v3.225h-2.82c.05.509.08 1.029.08 1.559v.079c0 .588-.04 1.176-.11 1.745h2.84v3.225h-3.64c-2.01 5.255-7.26 8.883-14.15 8.883h-11.47v-8.883h-3.98v-3.226h3.98v-3.382h-3.98v-3.225h3.98V31h11.47c6.97 0 12.26 3.657 14.22 8.992zm-14.22-6.118h-8.25v6.107h18.92c-1.75-3.647-5.55-6.108-10.67-6.108zm0 21.932h-8.25v-5.99h18.9c-1.76 3.587-5.56 5.99-10.65 5.99zm11.62-9.217c.08-.539.12-1.097.12-1.668l.01.002v-.079c0-.558-.04-1.108-.11-1.638h-19.89v3.383h19.87z" fill="#fff"/></g><g><path opacity=".5" d="M1417 87.53a3.53 3.53 0 013.53-3.53h142.94a3.53 3.53 0 013.53 3.53v170.495c0 1.496-.94 2.83-2.35 3.328l-70.3 24.817a7.057 7.057 0 01-4.7 0l-70.3-24.817a3.527 3.527 0 01-2.35-3.328V87.529z" fill="url(#paint21_linear)"/><path d="M1407.08 49.08a4.004 4.004 0 014-4.08h161.84c2.24 0 4.04 1.84 4 4.08l-3.87 193.195a3.984 3.984 0 01-2.61 3.671l-75.66 28.025a8.008 8.008 0 01-5.56 0l-75.66-28.025a3.984 3.984 0 01-2.61-3.671l-3.87-193.195z" fill="url(#paint22_linear)"/><path opacity=".1" fill-rule="evenodd" clip-rule="evenodd" d="M1407 45h170v40l-85 10-85-10V45z" fill="#1F2033"/><g filter="url(#filter7_d)"><path d="M1495.73 10.963l23.94 13.824a7.184 7.184 0 013.6 6.227v27.652a7.184 7.184 0 01-3.6 6.227l-23.94 13.823a7.19 7.19 0 01-7.19 0l-23.94-13.823a7.184 7.184 0 01-3.6-6.227V31.014a7.184 7.184 0 013.6-6.227l23.94-13.824a7.19 7.19 0 017.19 0z" fill="url(#paint23_linear)"/></g><path fill-rule="evenodd" clip-rule="evenodd" d="M1492.62 28.528c.45-.842-.59-1.862-1.45-1.422-.69.273-.87 1.266-.33 1.768.51.523 1.52.34 1.78-.346zm-9.54.372c.06-.559-.6-1.028-1.12-.817-.73.19-.81 1.313-.1 1.58.53.288 1.28-.158 1.22-.764zm17.75.78c-.81-.096-.94-1.354-.16-1.608.61-.291 1.17.255 1.25.822-.12.483-.53.926-1.09.786zm-14.8 3.521c.14-.994-1.11-1.8-1.98-1.26-.81.41-.92 1.634-.18 2.167.76.679 2.12.097 2.16-.907zm11.31-.685c.38-.984 1.96-1.014 2.4-.056.44.746-.1 1.67-.88 1.923-1.03.19-2.01-.907-1.52-1.867zm-5.69.277c-.81.058-1.6.688-1.59 1.534-.04.691.46 1.256 1.05 1.544.06.003.12.008.19.013.33.026.68.054.99-.114.78-.34 1.16-1.362.73-2.105-.23-.538-.82-.765-1.37-.872zm-15.29 2.767c.79-.481 1.87.396 1.56 1.246-.16.735-1.16 1.034-1.74.565-.61-.44-.51-1.497.18-1.811zm31.13.912c.08-.838-1.03-1.429-1.7-.914-.7.418-.62 1.534.12 1.86.67.394 1.63-.182 1.58-.946zm-13.57.607c1.11-.393 2.43.077 3.06 1.054.84 1.193.4 3.01-.9 3.695-1.35.81-3.31.123-3.81-1.355-.56-1.323.26-2.98 1.65-3.394zm-3.04 1.28c-.6-1.242-2.26-1.723-3.49-1.15-1.32.578-1.92 2.282-1.24 3.536.61 1.297 2.38 1.829 3.63 1.128 1.25-.624 1.8-2.307 1.1-3.515zm-10.03 1.05c.09-.783.84-1.291 1.6-1.344.81.097 1.46.72 1.55 1.53-.05.804-.68 1.59-1.55 1.584-.95.08-1.78-.85-1.6-1.77zm21.6.186c.04-1.105-1.31-1.92-2.29-1.36-1.05.487-1.13 2.097-.12 2.668.98.687 2.48-.138 2.41-1.308zm-17.72 2.765c1.14-.31 2.45.22 3.01 1.254.61 1.04.36 2.486-.59 3.248-1.22 1.12-3.48.67-4.13-.857-.75-1.4.16-3.277 1.71-3.645zm15.4 1.098c-.6-.995-1.91-1.417-3.02-1.104-1.56.42-2.38 2.37-1.56 3.748.68 1.333 2.58 1.78 3.81.928 1.18-.734 1.56-2.433.77-3.572zm-22.75.195c.99-.367 2.08.705 1.68 1.668-.24.877-1.5 1.201-2.15.555-.76-.608-.48-1.96.47-2.223zm28.17-.164c-.84.044-1.44.757-1.41 1.562.16.375.36.767.75.961.83.45 2-.2 1.94-1.157.05-.724-.61-1.26-1.28-1.366zm-33.03.637c.6-.255 1.33.251 1.2.9-.03.735-1.14 1.017-1.54.403-.36-.426-.15-1.083.34-1.303zm38.71.383c-.17-.48-.84-.69-1.26-.398-.69.365-.42 1.63.42 1.554.61.089 1.12-.63.84-1.156zm-23.27 3.13c1.56-.4 3.24.882 3.25 2.465.1 1.6-1.55 3.019-3.15 2.65-1.24-.197-2.21-1.369-2.17-2.598 0-1.176.9-2.269 2.07-2.518zm9.48 2.485c.02-1.62-1.71-2.925-3.29-2.489-.94.23-1.74.993-1.95 1.93-.41 1.408.68 3.001 2.15 3.189 1.57.311 3.17-1.06 3.09-2.63zm-15.23-1.514c1.1-.185 2.13 1.02 1.68 2.046-.32 1.092-1.94 1.389-2.65.496-.84-.857-.21-2.424.97-2.542zm20.26 1.523c.07-1.046-1.13-1.879-2.11-1.475-1.18.37-1.38 2.144-.29 2.747.95.672 2.44-.122 2.4-1.272zm2.97 3.531c-.39-.702.31-1.634 1.1-1.504.38-.006.64.267.88.513l.05.043.01.072c.05.4.11.86-.23 1.163-.47.594-1.55.425-1.81-.287zm-27.44-.217c.16-.853-.9-1.577-1.64-1.091-.71.354-.74 1.46-.05 1.848.63.428 1.6-.003 1.69-.757zm13 .487c.97-.42 2.21.41 2.12 1.462.07 1.162-1.46 1.967-2.41 1.27-1.05-.6-.88-2.363.29-2.731zm-4.92 2.779c.07-.91-1.04-1.65-1.86-1.221-.58.214-.82.846-.83 1.413.2.521.6 1.069 1.22 1.082.75.11 1.49-.527 1.47-1.274zm11.88-1.208c.85-.517 2.06.225 1.98 1.198.02 1.018-1.35 1.67-2.14 1.001-.76-.524-.67-1.783.16-2.2zm3.07 4.442c-.61.129-1.06.807-.68 1.37.39.653 1.52.42 1.59-.343.11-.563-.42-.928-.91-1.027zm-19.65.881c.15-.446.52-.89 1.05-.774.78.055 1.01 1.209.33 1.564-.62.407-1.33-.15-1.38-.79zm10.74-.119c-.57-.35-1.44-.03-1.59.63-.27.668.38 1.474 1.11 1.39.39.01.69-.263.92-.537.05-.184.09-.368.15-.553l-.01-.011c-.09-.352-.21-.76-.58-.919z" fill="#fff"/></g><g><path opacity=".5" d="M1618 87.53a3.53 3.53 0 013.53-3.53h142.94a3.53 3.53 0 013.53 3.53v170.495c0 1.496-.94 2.83-2.35 3.328l-70.3 24.817a7.057 7.057 0 01-4.7 0l-70.3-24.817a3.527 3.527 0 01-2.35-3.328V87.529z" fill="url(#paint24_linear)"/><path d="M1608.08 49.08a4.004 4.004 0 014-4.08h161.84c2.24 0 4.04 1.84 4 4.08l-3.87 193.195a3.984 3.984 0 01-2.61 3.671l-75.66 28.025a8.008 8.008 0 01-5.56 0l-75.66-28.025a3.984 3.984 0 01-2.61-3.671l-3.87-193.195z" fill="url(#paint25_linear)"/><path opacity=".1" fill-rule="evenodd" clip-rule="evenodd" d="M1608 45h170v40l-85 10-85-10V45z" fill="#1F2033"/><g filter="url(#filter8_d)"><path d="M1696.73 10.963l23.94 13.824a7.184 7.184 0 013.6 6.227v27.652a7.184 7.184 0 01-3.6 6.227l-23.94 13.823a7.19 7.19 0 01-7.19 0l-23.94-13.823a7.184 7.184 0 01-3.6-6.227V31.014a7.184 7.184 0 013.6-6.227l23.94-13.824a7.19 7.19 0 017.19 0z" fill="url(#paint26_linear)"/></g><path d="M1681.13 52.164c.22-.22.52-.344.83-.344h28.73c.52 0 .79.633.42 1.003l-5.68 5.673c-.22.22-.52.343-.83.343h-28.73a.587.587 0 01-.42-1.002l5.68-5.673z" fill="url(#paint27_linear)"/><path d="M1681.13 30.971c.22-.22.52-.343.83-.343h28.73c.52 0 .79.633.42 1.003l-5.68 5.672c-.22.22-.52.344-.83.344h-28.73a.587.587 0 01-.42-1.003l5.68-5.673z" fill="url(#paint28_linear)"/><path d="M1705.43 41.5c-.22-.22-.52-.343-.83-.343h-28.73c-.53 0-.79.632-.42 1.002l5.68 5.673c.22.22.52.344.83.344h28.73c.52 0 .79-.633.42-1.003l-5.68-5.673z" fill="url(#paint29_linear)"/></g><defs><linearGradient id="paint0_linear" x1="513.883" y1="280.139" x2="828.355" y2="445.104" gradientUnits="userSpaceOnUse"><stop stop-color="#A377CF"/><stop offset="1" stop-color="#1CB6FB"/></linearGradient><linearGradient id="paint1_linear" x1="490.668" y1="267.226" x2="847.024" y2="454.218" gradientUnits="userSpaceOnUse"><stop stop-color="#A377CF"/><stop offset="1" stop-color="#1CB6FB"/></linearGradient><linearGradient id="paint2_linear" x1="618.332" y1="76.624" x2="733.885" y2="149.937" gradientUnits="userSpaceOnUse"><stop stop-color="#A377CF"/><stop offset="1" stop-color="#1CB6FB"/></linearGradient><linearGradient id="paint3_linear" x1="412.113" y1="84" x2="412.113" y2="286.695" gradientUnits="userSpaceOnUse"><stop stop-color="#217AFF"/><stop offset="1" stop-color="#2870DE"/></linearGradient><linearGradient id="paint4_linear" x1="402.128" y1="45" x2="402.128" y2="274.654" gradientUnits="userSpaceOnUse"><stop stop-color="#217AFF"/><stop offset="1" stop-color="#2870DE"/></linearGradient><linearGradient id="paint5_linear" x1="413.942" y1="9.033" x2="506.322" y2="109.025" gradientUnits="userSpaceOnUse"><stop stop-color="#F6F8FE"/><stop offset="1" stop-color="#F2F6FD"/></linearGradient><linearGradient id="paint6_linear" x1="120.776" y1="136.82" x2="303.963" y2="428.825" gradientUnits="userSpaceOnUse"><stop stop-color="#383C58"/><stop offset="1" stop-color="#1B1E36"/></linearGradient><linearGradient id="paint7_linear" x1="98.746" y1="104.846" x2="306.272" y2="435.742" gradientUnits="userSpaceOnUse"><stop stop-color="#383C58"/><stop offset="1" stop-color="#1B1E36"/></linearGradient><linearGradient id="paint8_linear" x1="217.609" y1="28.196" x2="274.906" y2="138.659" gradientUnits="userSpaceOnUse"><stop stop-color="#383C58"/><stop offset="1" stop-color="#1B1E36"/></linearGradient><linearGradient id="paint9_linear" x1="-17.545" y1="200.941" x2="114.174" y2="282.737" gradientUnits="userSpaceOnUse"><stop stop-color="#F7F7F7"/><stop offset="1" stop-color="#EEE"/></linearGradient><linearGradient id="paint10_linear" x1="-31.218" y1="177.495" x2="118.04" y2="270.209" gradientUnits="userSpaceOnUse"><stop stop-color="#F7F7F7"/><stop offset="1" stop-color="#EEE"/></linearGradient><linearGradient id="paint11_linear" x1="42.43" y1="50.3" x2="90.873" y2="86.683" gradientUnits="userSpaceOnUse"><stop stop-color="#F7F7F7"/><stop offset="1" stop-color="#EEE"/></linearGradient><linearGradient id="paint12_linear" x1="713.545" y1="198.172" x2="953.272" y2="346.394" gradientUnits="userSpaceOnUse"><stop stop-color="#3A92CD"/><stop offset="1" stop-color="#7BCCEF"/></linearGradient><linearGradient id="paint13_linear" x1="690.151" y1="174.358" x2="961.798" y2="342.364" gradientUnits="userSpaceOnUse"><stop stop-color="#3A92CD"/><stop offset="1" stop-color="#7BCCEF"/></linearGradient><linearGradient id="paint14_linear" x1="818.793" y1="49.234" x2="904.683" y2="113.462" gradientUnits="userSpaceOnUse"><stop stop-color="#3A92CD"/><stop offset="1" stop-color="#7BCCEF"/></linearGradient><linearGradient id="paint15_linear" x1="942.342" y1="184.202" x2="1132.51" y2="323.334" gradientUnits="userSpaceOnUse"><stop stop-color="#00E599"/><stop offset="1" stop-color="#0DD190"/></linearGradient><linearGradient id="paint16_linear" x1="922.654" y1="158.529" x2="1138.13" y2="316.226" gradientUnits="userSpaceOnUse"><stop stop-color="#00E599"/><stop offset="1" stop-color="#0DD190"/></linearGradient><linearGradient id="paint17_linear" x1="1031.03" y1="44.566" x2="1097.2" y2="103.123" gradientUnits="userSpaceOnUse"><stop stop-color="#00E599"/><stop offset="1" stop-color="#0DD190"/></linearGradient><linearGradient id="paint18_linear" x1="1129.44" y1="193.326" x2="1333.99" y2="333.657" gradientUnits="userSpaceOnUse"><stop stop-color="#F9A606"/><stop offset="1" stop-color="#FBCC5F"/></linearGradient><linearGradient id="paint19_linear" x1="1107.9" y1="168.867" x2="1339.68" y2="327.925" gradientUnits="userSpaceOnUse"><stop stop-color="#F9A606"/><stop offset="1" stop-color="#FBCC5F"/></linearGradient><linearGradient id="paint20_linear" x1="1226.41" y1="47.615" x2="1298.41" y2="107.358" gradientUnits="userSpaceOnUse"><stop stop-color="#F9A606"/><stop offset="1" stop-color="#FBCC5F"/></linearGradient><linearGradient id="paint21_linear" x1="1642" y1="185.5" x2="1447.95" y2="42.114" gradientUnits="userSpaceOnUse"><stop stop-color="#3F64BF"/><stop offset="1" stop-color="#1F4AB5"/></linearGradient><linearGradient id="paint22_linear" x1="1662" y1="160" x2="1442.12" y2="-2.518" gradientUnits="userSpaceOnUse"><stop stop-color="#3F64BF"/><stop offset="1" stop-color="#1F4AB5"/></linearGradient><linearGradient id="paint23_linear" x1="1554.41" y1="44.84" x2="1485.16" y2="-17.039" gradientUnits="userSpaceOnUse"><stop stop-color="#3F64BF"/><stop offset="1" stop-color="#1F4AB5"/></linearGradient><linearGradient id="paint24_linear" x1="1838.33" y1="184.197" x2="1649.08" y2="44.351" gradientUnits="userSpaceOnUse"><stop stop-color="#4D6993"/><stop offset="1" stop-color="#00FFA3"/></linearGradient><linearGradient id="paint25_linear" x1="1857.71" y1="158.524" x2="1643.26" y2=".018" gradientUnits="userSpaceOnUse"><stop stop-color="#4D6993"/><stop offset="1" stop-color="#00FFA3"/></linearGradient><linearGradient id="paint26_linear" x1="1755.41" y1="44.84" x2="1686.16" y2="-17.039" gradientUnits="userSpaceOnUse"><stop/><stop offset="1" stop-color="#1A1A1A"/></linearGradient><linearGradient id="paint27_linear" x1="1503.31" y1="20.876" x2="1503.28" y2="59.342" gradientUnits="userSpaceOnUse"><stop stop-color="#00FFA3"/><stop offset="1" stop-color="#DC1FFF"/></linearGradient><linearGradient id="paint28_linear" x1="1503.31" y1="20.876" x2="1503.28" y2="59.342" gradientUnits="userSpaceOnUse"><stop stop-color="#00FFA3"/><stop offset="1" stop-color="#DC1FFF"/></linearGradient><linearGradient id="paint29_linear" x1="1503.31" y1="20.876" x2="1503.28" y2="59.342" gradientUnits="userSpaceOnUse"><stop stop-color="#00FFA3"/><stop offset="1" stop-color="#DC1FFF"/></linearGradient><filter id="filter0_d" x="632.389" y="3.083" width="112.622" height="119.834" filterUnits="userSpaceOnUse" color-interpolation-filters="sRGB"><feFlood flood-opacity="0" result="BackgroundImageFix"/><feColorMatrix in="SourceAlpha" values="0 0 0 0 0 0 0 0 0 0 0 0 0 0 0 0 0 0 127 0" result="hardAlpha"/><feOffset dy="18"/><feGaussianBlur stdDeviation="13"/><feColorMatrix values="0 0 0 0 0 0 0 0 0 0 0 0 0 0 0 0 0 0 0.3 0"/><feBlend in2="BackgroundImageFix" result="effect1_dropShadow"/><feBlend in="SourceGraphic" in2="effect1_dropShadow" result="shape"/></filter><filter id="filter1_d" x="430.2" y="2" width="114.27" height="121.68" filterUnits="userSpaceOnUse" color-interpolation-filters="sRGB"><feFlood flood-opacity="0" result="BackgroundImageFix"/><feColorMatrix in="SourceAlpha" values="0 0 0 0 0 0 0 0 0 0 0 0 0 0 0 0 0 0 127 0" result="hardAlpha"/><feOffset dy="18"/><feGaussianBlur stdDeviation="13"/><feColorMatrix values="0 0 0 0 0 0 0 0 0 0 0 0 0 0 0 0 0 0 0.3 0"/><feBlend in2="BackgroundImageFix" result="effect1_dropShadow"/><feBlend in="SourceGraphic" in2="effect1_dropShadow" result="shape"/></filter><filter id="filter2_d" x="229.2" y="2" width="114.497" height="121.932" filterUnits="userSpaceOnUse" color-interpolation-filters="sRGB"><feFlood flood-opacity="0" result="BackgroundImageFix"/><feColorMatrix in="SourceAlpha" values="0 0 0 0 0 0 0 0 0 0 0 0 0 0 0 0 0 0 127 0" result="hardAlpha"/><feOffset dy="18"/><feGaussianBlur stdDeviation="13"/><feColorMatrix values="0 0 0 0 0 0 0 0 0 0 0 0 0 0 0 0 0 0 0.4 0"/><feBlend in2="BackgroundImageFix" result="effect1_dropShadow"/><feBlend in="SourceGraphic" in2="effect1_dropShadow" result="shape"/></filter><filter id="filter3_d" x="27.865" y="2.16" width="114.27" height="121.68" filterUnits="userSpaceOnUse" color-interpolation-filters="sRGB"><feFlood flood-opacity="0" result="BackgroundImageFix"/><feColorMatrix in="SourceAlpha" values="0 0 0 0 0 0 0 0 0 0 0 0 0 0 0 0 0 0 127 0" result="hardAlpha"/><feOffset dy="18"/><feGaussianBlur stdDeviation="13"/><feColorMatrix values="0 0 0 0 0 0 0 0 0 0 0 0 0 0 0 0 0 0 0.3 0"/><feBlend in2="BackgroundImageFix" result="effect1_dropShadow"/><feBlend in="SourceGraphic" in2="effect1_dropShadow" result="shape"/></filter><filter id="filter4_d" x="833.39" y="3.083" width="112.62" height="119.833" filterUnits="userSpaceOnUse" color-interpolation-filters="sRGB"><feFlood flood-opacity="0" result="BackgroundImageFix"/><feColorMatrix in="SourceAlpha" values="0 0 0 0 0 0 0 0 0 0 0 0 0 0 0 0 0 0 127 0" result="hardAlpha"/><feOffset dy="18"/><feGaussianBlur stdDeviation="13"/><feColorMatrix values="0 0 0 0 0 0 0 0 0 0 0 0 0 0 0 0 0 0 0.3 0"/><feBlend in2="BackgroundImageFix" result="effect1_dropShadow"/><feBlend in="SourceGraphic" in2="effect1_dropShadow" result="shape"/></filter><filter id="filter5_d" x="1034.39" y="3.083" width="112.62" height="119.833" filterUnits="userSpaceOnUse" color-interpolation-filters="sRGB"><feFlood flood-opacity="0" result="BackgroundImageFix"/><feColorMatrix in="SourceAlpha" values="0 0 0 0 0 0 0 0 0 0 0 0 0 0 0 0 0 0 127 0" result="hardAlpha"/><feOffset dy="18"/><feGaussianBlur stdDeviation="13"/><feColorMatrix values="0 0 0 0 0 0 0 0 0 0 0 0 0 0 0 0 0 0 0.3 0"/><feBlend in2="BackgroundImageFix" result="effect1_dropShadow"/><feBlend in="SourceGraphic" in2="effect1_dropShadow" result="shape"/></filter><filter id="filter6_d" x="1235.39" y="3.083" width="112.62" height="119.833" filterUnits="userSpaceOnUse" color-interpolation-filters="sRGB"><feFlood flood-opacity="0" result="BackgroundImageFix"/><feColorMatrix in="SourceAlpha" values="0 0 0 0 0 0 0 0 0 0 0 0 0 0 0 0 0 0 127 0" result="hardAlpha"/><feOffset dy="18"/><feGaussianBlur stdDeviation="13"/><feColorMatrix values="0 0 0 0 0 0 0 0 0 0 0 0 0 0 0 0 0 0 0.3 0"/><feBlend in2="BackgroundImageFix" result="effect1_dropShadow"/><feBlend in="SourceGraphic" in2="effect1_dropShadow" result="shape"/></filter><filter id="filter7_d" x="1434" y="0" width="116.27" height="123.68" filterUnits="userSpaceOnUse" color-interpolation-filters="sRGB"><feFlood flood-opacity="0" result="BackgroundImageFix"/><feColorMatrix in="SourceAlpha" values="0 0 0 0 0 0 0 0 0 0 0 0 0 0 0 0 0 0 127 0" result="hardAlpha"/><feOffset dy="17"/><feGaussianBlur stdDeviation="13.5"/><feColorMatrix values="0 0 0 0 0 0 0 0 0 0 0 0 0 0 0 0 0 0 0.4 0"/><feBlend in2="BackgroundImageFix" result="effect1_dropShadow"/><feBlend in="SourceGraphic" in2="effect1_dropShadow" result="shape"/></filter><filter id="filter8_d" x="1635" y="0" width="116.27" height="123.68" filterUnits="userSpaceOnUse" color-interpolation-filters="sRGB"><feFlood flood-opacity="0" result="BackgroundImageFix"/><feColorMatrix in="SourceAlpha" values="0 0 0 0 0 0 0 0 0 0 0 0 0 0 0 0 0 0 127 0" result="hardAlpha"/><feOffset dy="17"/><feGaussianBlur stdDeviation="13.5"/><feColorMatrix values="0 0 0 0 0 0 0 0 0 0 0 0 0 0 0 0 0 0 0.4 0"/><feBlend in2="BackgroundImageFix" result="effect1_dropShadow"/><feBlend in="SourceGraphic" in2="effect1_dropShadow" result="shape"/></filter></defs></svg>