<svg width="1233" height="52" xmlns="http://www.w3.org/2000/svg"><defs><linearGradient x1="74.703%" y1="100%" x2="27.833%" y2="0%" id="a"><stop stop-color="#FE9D39" offset="0%"/><stop stop-color="#FFDA47" offset="100%"/></linearGradient><linearGradient x1="10.243%" y1=".219%" x2="88.735%" y2="97.534%" id="b"><stop stop-color="#00E599" offset="0%"/><stop stop-color="#0DD190" offset="100%"/></linearGradient><linearGradient x1="22.351%" y1="-12.223%" x2="98.837%" y2="152.777%" id="c"><stop stop-color="#FA6800" offset="0%"/><stop stop-color="#9B4202" offset="100%"/></linearGradient><linearGradient x1="19.031%" y1="-66.682%" x2="123.324%" y2="91.487%" id="d"><stop stop-color="#F6F8FE" offset="0%"/><stop stop-color="#F2F6FD" offset="100%"/></linearGradient><linearGradient x1="0%" y1="0%" x2="104.002%" y2="143.585%" id="e"><stop stop-color="#11AAE2" offset="0%"/><stop stop-color="#016197" offset="100%"/></linearGradient><linearGradient x1="0%" y1="-8.726%" x2="103.772%" y2="100%" id="f"><stop stop-color="#3A92CD" offset="0%"/><stop stop-color="#7BCCEF" offset="100%"/></linearGradient><linearGradient x1="0%" y1="0%" x2="102%" y2="101%" id="g"><stop stop-color="#53AE94" offset="0%"/><stop stop-color="#2E9175" offset="100%"/></linearGradient><linearGradient x1="102%" y1="101%" x2="0%" y2="0%" id="h"><stop stop-color="#58D98C" offset="0%"/><stop stop-color="#599270" offset="100%"/></linearGradient><linearGradient x1="100%" y1="100%" x2="-19.414%" y2="-28.869%" id="i"><stop stop-color="#8DC651" offset="0%"/><stop stop-color="#648946" offset="100%"/></linearGradient><linearGradient x1="0%" y1="0%" x2="102%" y2="101%" id="j"><stop stop-color="#D8AC29" offset="0%"/><stop stop-color="#FFB700" offset="100%"/></linearGradient><linearGradient x1="-11.238%" y1="-38.609%" x2="98.837%" y2="152.777%" id="k"><stop stop-color="#B38900" offset="0%"/><stop stop-color="#FFC633" offset="100%"/></linearGradient><linearGradient x1="18.586%" y1="6.983%" x2="115.29%" y2="118.723%" id="l"><stop stop-color="#D11212" offset="0%"/><stop stop-color="#7D110B" offset="100%"/></linearGradient><linearGradient x1="19.299%" y1="-44.859%" x2="84.229%" y2="155.311%" id="m"><stop stop-color="#171C30" offset="0%"/><stop stop-color="#5A63B8" offset="100%"/></linearGradient><linearGradient x1="-25.992%" y1="-23.787%" x2="112.433%" y2="107.017%" id="n"><stop stop-color="#00A58B" offset="0%"/><stop stop-color="#27D8BB" offset="100%"/></linearGradient><linearGradient x1="11.224%" y1="-66.682%" x2="141.81%" y2="91.487%" id="o"><stop stop-color="#FFF" offset="0%"/><stop stop-color="#777" offset="100%"/></linearGradient><linearGradient x1="22.351%" y1="-12.223%" x2="98.837%" y2="152.777%" id="p"><stop stop-color="#23203F" offset="0%"/><stop stop-color="#7CADE2" offset="100%"/></linearGradient><linearGradient x1="22.351%" y1="-12.223%" x2="98.837%" y2="152.777%" id="q"><stop stop-color="#164085" offset="0%"/><stop stop-color="#2276FF" offset="100%"/></linearGradient></defs><g fill="none" fill-rule="evenodd"><path d="M1146.5 1.443l16.65 9.614a5 5 0 012.5 4.33v19.226a5 5 0 01-2.5 4.33l-16.65 9.614a5 5 0 01-5 0l-16.65-9.614a5 5 0 01-2.5-4.33V15.387a5 5 0 012.5-4.33l16.65-9.614a5 5 0 015 0z" stroke="#A5A6AE" stroke-dasharray="3,4"/><path d="M1145 18v6h6v2h-6v6h-2v-6h-6v-2h6v-6h2z" fill="#C7C7CB"/><path d="M1212.5 2.443l16.65 9.614a5 5 0 012.5 4.33v19.226a5 5 0 01-2.5 4.33l-16.65 9.614a5 5 0 01-5 0l-16.65-9.614a5 5 0 01-2.5-4.33V16.387a5 5 0 012.5-4.33l16.65-9.614a5 5 0 015 0z" stroke="#FFF" opacity=".5" stroke-dasharray="3,4"/><path d="M1211 19v6h6v2h-6v6h-2v-6h-6v-2h6v-6h2z" fill-opacity=".5" fill="#FFF"/><path d="M24.444 1.222l16.378 9.534c1.467.855 2.445 2.566 2.445 4.277v18.945c0 1.71-.978 3.422-2.445 4.278l-16.378 9.41c-1.466.856-3.422.856-4.888 0l-16.5-9.41C1.589 37.4.61 35.689.61 33.978V14.91c0-1.711.978-3.422 2.445-4.278l16.5-9.41c1.466-.856 3.422-.856 4.888 0z" fill="url(#a)" transform="translate(0 1)"/><path d="M23.223 14.306l-.843 3.146 1.495.4.843-3.146 1.964.526-.853 3.185c1.439.483 2.454 1.053 3.216 2.01.987 1.239.5 2.8.371 3.168-.128.369-.487 1.05-.943 1.428-.456.38-1.388.632-1.388.632s.9.457 1.434 1.141c.534.684.792 1.707.415 3.002-.376 1.295-.989 2.518-2.393 3.026-1.405.509-2.71.317-3.29.24-.286-.038-.77-.126-1.285-.233l-.854 3.19-1.963-.526.84-3.138-1.495-.4-.84 3.137-1.964-.526.84-3.138-3.861-1.035 1.035-2.25 1.174.315c.395.106.57.113.776.002.207-.112.308-.34.36-.534l2.176-8.123c.137-.509.132-.658-.032-.982-.164-.324-.705-.506-1.014-.59l-1.135-.303.546-2.039 3.862 1.035.843-3.146 1.963.526zm-2.976 11.11l-1.129 4.21s1.296.377 2.185.546c.888.17 1.846.19 2.362.063.516-.128 1.16-.368 1.419-1.33.258-.964-.277-1.54-.594-1.822-.318-.282-1.068-.748-2.023-1.073-.956-.325-2.22-.595-2.22-.595zm1.538-5.744l-1.015 3.79s.91.273 1.633.437c.723.164 1.529.203 2.16.047.632-.155 1.071-.548 1.245-1.268.173-.721-.141-1.454-.882-1.919-.741-.464-1.277-.627-1.89-.8-.612-.174-1.25-.287-1.25-.287z" fill="#FFF"/><g fill-rule="nonzero"><path d="M24.444 1.412l16.28 9.399a4.889 4.889 0 012.445 4.233v18.8c0 1.747-.932 3.361-2.445 4.234l-16.28 9.4a4.889 4.889 0 01-4.888 0l-16.28-9.4A4.889 4.889 0 01.83 33.845v-18.8c0-1.747.932-3.361 2.445-4.234l16.28-9.4a4.889 4.889 0 014.888 0z" fill="url(#b)" transform="translate(396 1)"/><path d="M418.693 13.222l10.408 3.728-11.468 4.217v16.5L407 33.857V17.5l11.693-4.278zm10.408 4.624v16.541L418.49 30.6v-8.821l10.612-3.932z" fill="#FFF"/></g><g fill-rule="nonzero"><path d="M25 1.444l16.65 9.612a5 5 0 012.5 4.33v19.228a5 5 0 01-2.5 4.33L25 48.556a5 5 0 01-5 0L3.35 38.944a5 5 0 01-2.5-4.33V15.386a5 5 0 012.5-4.33L20 1.444a5 5 0 015 0z" fill="url(#c)" transform="translate(461 1)"/><g fill="#FFF"><path d="M483.505 14.75a11.245 11.245 0 00-10.67 14.795h3.362v-9.461l7.308 7.31 7.31-7.31v9.462h3.362a11.245 11.245 0 00-10.672-14.796"/><path d="M481.825 29.075l-3.19-3.191v5.953h-4.739a11.241 11.241 0 009.609 5.402 11.234 11.234 0 009.607-5.402h-4.737v-5.953l-3.19 3.191-1.68 1.68-1.679-1.68h-.001z"/></g></g><g fill-rule="nonzero"><path d="M25 1.444l16.65 9.612a5 5 0 012.5 4.33v19.228a5 5 0 01-2.5 4.33L25 48.556a5 5 0 01-5 0L3.35 38.944a5 5 0 01-2.5-4.33V15.386a5 5 0 012.5-4.33L20 1.444a5 5 0 015 0z" fill="url(#d)" transform="translate(528 1)"/><path d="M552.413 38.5c-1.794 0-3.102-.43-3.923-1.289-.821-.858-1.231-1.785-1.231-2.777 0-.363.071-.669.215-.916.14-.245.342-.448.587-.588.248-.144.553-.215.916-.215s.668.071.917.215c.247.144.443.339.587.588.143.247.213.553.213.916 0 .439-.104.796-.313 1.074a1.463 1.463 0 01-.746.543c.25.344.64.588 1.175.73a5.8 5.8 0 001.604.23c.743 0 1.416-.2 2.018-.601.6-.401 1.045-.994 1.332-1.775.287-.784.43-1.671.43-2.665 0-1.077-.158-2-.473-2.762-.306-.774-.759-1.347-1.361-1.72a3.634 3.634 0 00-1.946-.557c-.459 0-1.032.19-1.719.573l-1.26.63v-.63l5.67-7.56h-7.846v7.846c0 .65.142 1.184.43 1.604.286.42.725.63 1.317.63.458 0 .896-.153 1.316-.459a4.634 4.634 0 001.088-1.116.421.421 0 01.144-.188.285.285 0 01.187-.07c.104 0 .228.053.371.158.134.152.2.329.2.529-.016.134-.04.268-.07.4-.326.726-.775 1.28-1.347 1.662a3.336 3.336 0 01-1.889.573c-1.7 0-2.875-.334-3.524-1.002-.648-.668-.972-1.575-.972-2.721v-7.846h-4.01v-1.461h4.01v-3.32l-.918-.918V13.5h2.664l1.003.515v4.468l10.366-.03 1.031 1.032-6.357 6.358c.385-.154.79-.25 1.202-.288.688 0 1.461.221 2.32.66.869.43 1.538 1.021 2.004 1.775.469.745.769 1.461.902 2.148a9.07 9.07 0 01.215 1.832 7.636 7.636 0 01-.772 3.409 5.006 5.006 0 01-2.35 2.347 7.63 7.63 0 01-3.406.774h-.002z" fill="#2C7DF7"/></g><g fill-rule="nonzero"><path d="M24.444 1.412l16.28 9.399a4.889 4.889 0 012.445 4.233v18.8c0 1.747-.932 3.361-2.445 4.234l-16.28 9.4a4.889 4.889 0 01-4.888 0l-16.28-9.4A4.889 4.889 0 01.83 33.845v-18.8c0-1.747.932-3.361 2.445-4.234l16.28-9.4a4.889 4.889 0 014.888 0z" fill="url(#e)" transform="translate(594 1)"/><path d="M623.801 15.917h3.183l-6.62 6.867a5.982 5.982 0 01-8.678 0l-6.62-6.867h3.181l5.03 5.217a3.789 3.789 0 005.496 0l5.028-5.217zm-15.594 19.095h-3.183l6.662-6.91a5.982 5.982 0 018.677 0l6.661 6.91h-3.181l-5.07-5.26a3.789 3.789 0 00-5.496 0l-5.07 5.26z" fill="#FFF"/></g><g fill-rule="nonzero"><path d="M25.556 1.476l17.02 9.826a5.111 5.111 0 012.555 4.426v19.655a5.111 5.111 0 01-2.555 4.426l-17.02 9.826a5.111 5.111 0 01-5.112 0L3.424 39.81A5.111 5.111 0 01.87 35.383V15.728c0-1.826.974-3.513 2.555-4.426l17.02-9.826a5.111 5.111 0 015.112 0z" fill="url(#f)" transform="translate(659)"/><path d="M693.002 25.685v10.299l-17.804-17.805a10.396 10.396 0 017.524-3.054c5.751.083 10.35 4.807 10.278 10.558l.002.002zm-21.85.235V15.622l17.802 17.805a10.396 10.396 0 01-7.523 3.054c-5.751-.083-10.35-4.807-10.28-10.559v-.002z" fill="#FFF"/></g><g fill-rule="nonzero"><path d="M24.444 1.412l16.28 9.399a4.889 4.889 0 012.445 4.233v18.8c0 1.747-.932 3.361-2.445 4.234l-16.28 9.4a4.889 4.889 0 01-4.888 0l-16.28-9.4A4.889 4.889 0 01.83 33.845v-18.8c0-1.747.932-3.361 2.445-4.234l16.28-9.4a4.889 4.889 0 014.888 0z" fill="url(#g)" transform="translate(726 1)"/><path d="M749.853 23.154v-2.195h5.023V17.61h-13.68v3.349h5.026v2.195c-4.085.187-7.156.996-7.156 1.965 0 .97 3.072 1.779 7.156 1.967v7.039h3.633v-7.04c4.076-.187 7.14-.996 7.14-1.964s-3.064-1.776-7.14-1.965m0 3.333v-.002c-.102.007-.63.04-1.802.04a37.5 37.5 0 01-1.83-.04v.002c-3.608-.158-6.302-.788-6.302-1.54 0-.751 2.694-1.378 6.302-1.54v2.455c.236.016.912.056 1.845.056 1.12 0 1.683-.047 1.787-.056V23.41c3.601.16 6.289.79 6.289 1.538s-2.69 1.378-6.289 1.54" fill="#FFF"/></g><g fill-rule="nonzero"><path d="M24.444 1.412l16.28 9.399a4.889 4.889 0 012.445 4.233v18.8c0 1.747-.932 3.361-2.445 4.234l-16.28 9.4a4.889 4.889 0 01-4.888 0l-16.28-9.4A4.889 4.889 0 01.83 33.845v-18.8c0-1.747.932-3.361 2.445-4.234l16.28-9.4a4.889 4.889 0 014.888 0z" fill="url(#h)" transform="translate(792 1)"/><g fill="#FFF"><path d="M806.945 24.17l7.202-3.036 6.981 3.113-6.991-11.025-7.192 10.948zm.022 3.368l7.19 4.165 7.336-4.165-7.268 10.116-7.258-10.116z"/><path d="M814.18 22.619l-7.501 3.155 7.502 4.167 7.29-4.077"/></g></g><g fill-rule="nonzero"><path d="M24.444 1.412l16.28 9.399a4.889 4.889 0 012.445 4.233v18.8c0 1.747-.932 3.361-2.445 4.234l-16.28 9.4a4.889 4.889 0 01-4.888 0l-16.28-9.4A4.889 4.889 0 01.83 33.845v-18.8c0-1.747.932-3.361 2.445-4.234l16.28-9.4a4.889 4.889 0 014.888 0z" fill="url(#i)" transform="translate(858 1)"/><path d="M888.447 29.98c-.984 1.169-2.237 1.666-2.79 1.895-.272.112-.745.28-1.256.45l.874 3.26-2.007.538-.859-3.208-1.528.41.858 3.207-2.007.538-.859-3.208-3.948 1.058-.232-2.521 1.2-.322c.402-.107.561-.19.687-.394.126-.206.098-.459.045-.657l-2.224-8.303c-.14-.521-.22-.65-.53-.854-.31-.202-.883-.088-1.2-.002l-1.16.31-.56-2.083 3.949-1.058-.862-3.217 2.007-.537.863 3.217 1.528-.41-.862-3.217 2.007-.538.872 3.255c1.52-.308 2.711-.321 3.875.137 1.507.592 1.872 2.222 1.948 2.614.075.392.104 1.179-.105 1.747-.209.568-.907 1.269-.907 1.269s1.03-.057 1.854.276c.823.332 1.573 1.106 1.9 2.446.33 1.34.413 2.735-.571 3.902zm-7.09-3.95c-1.011.2-2.269.609-2.269.609l1.154 4.303s1.34-.328 2.212-.632c.874-.305 1.732-.776 2.124-1.152.392-.377.839-.92.575-1.903-.263-.986-1.03-1.223-1.456-1.308-.425-.088-1.327-.118-2.34.083zm-1.135-1.837c.725-.224 1.457-.601 1.936-1.061.48-.46.669-1.033.455-1.76-.215-.726-.868-1.215-1.761-1.247-.894-.033-1.452.098-2.083.257-.63.159-1.254.386-1.254.386l1.04 3.872s.944-.222 1.667-.447z" fill="#FFF"/></g><g fill-rule="nonzero"><path d="M24.444 1.412l16.28 9.399a4.889 4.889 0 012.445 4.233v18.8c0 1.747-.932 3.361-2.445 4.234l-16.28 9.4a4.889 4.889 0 01-4.888 0l-16.28-9.4A4.889 4.889 0 01.83 33.845v-18.8c0-1.747.932-3.361 2.445-4.234l16.28-9.4a4.889 4.889 0 014.888 0z" fill="url(#j)" transform="translate(924 1)"/><g fill="#FFF"><path d="M941.725 23.684l4.269-4.27 4.273 4.273 2.485-2.485-6.758-6.758-6.754 6.756 2.485 2.484M935 25.438l2.485-2.484 2.485 2.484-2.485 2.485L935 25.438zm6.725 1.755l4.269 4.27 4.273-4.272 2.486 2.484h-.001l-6.758 6.758-6.755-6.755-.003-.003 2.489-2.482m10.294-1.753l2.485-2.485 2.485 2.485-2.485 2.484-2.485-2.484z"/><path d="M948.514 25.437h.001l-2.521-2.521-1.863 1.864-.214.213-.442.443-.004.002.004.004 2.519 2.52 2.521-2.521.002-.003h-.003"/></g></g><g fill-rule="nonzero"><path d="M24.444 1.412l16.28 9.399a4.889 4.889 0 012.445 4.233v18.8c0 1.747-.932 3.361-2.445 4.234l-16.28 9.4a4.889 4.889 0 01-4.888 0l-16.28-9.4A4.889 4.889 0 01.83 33.845v-18.8c0-1.747.932-3.361 2.445-4.234l16.28-9.4a4.889 4.889 0 014.888 0z" fill="url(#k)" transform="translate(991)"/><g fill="#FFF"><path d="M1013.001 36.667a12.15 12.15 0 01-4.757-.961 12.261 12.261 0 01-6.503-6.502 12.132 12.132 0 01-.963-4.762 12.21 12.21 0 0112.22-12.22 12.21 12.21 0 0112.224 12.219c0 1.65-.324 3.25-.96 4.757a12.261 12.261 0 01-6.503 6.503 12.07 12.07 0 01-4.759.966h.001zm0-21.731a9.45 9.45 0 00-6.722 2.784 9.443 9.443 0 00-2.784 6.722c0 2.54.99 4.928 2.783 6.725A9.456 9.456 0 001013 33.95a9.46 9.46 0 006.725-2.783 9.456 9.456 0 002.783-6.723 9.46 9.46 0 00-2.783-6.724 9.456 9.456 0 00-6.725-2.783l.001-.001z"/><path d="M1012.267 27.487h5.296v2.66h-3.261c.052.762.082 1.467.134 2.227h-2.743v-2.2h-3.26c0-.87-.11-1.738.052-2.553.083-.435.57-.814.87-1.194 1.033-1.222 2.066-2.416 3.123-3.64.41-.462.815-.897 1.277-1.412h-5.078v-2.66h3.014v-2.226h2.634v2.173h3.288c0 .896.11 1.764-.053 2.581-.082.436-.57.814-.897 1.195a390.92 390.92 0 01-3.123 3.64c-.403.485-.809.917-1.273 1.409"/></g></g><g fill-rule="nonzero"><path d="M24.444 1.412l16.28 9.399a4.889 4.889 0 012.445 4.233v18.8c0 1.747-.932 3.361-2.445 4.234l-16.28 9.4a4.889 4.889 0 01-4.888 0l-16.28-9.4A4.889 4.889 0 01.83 33.845v-18.8c0-1.747.932-3.361 2.445-4.234l16.28-9.4a4.889 4.889 0 014.888 0z" fill="url(#l)" transform="translate(1056 1)"/><path d="M1088.126 21.46c-.892-.625-1.845-1.29-2.778-1.95a.754.754 0 00-.067-.046 1.254 1.254 0 00-.367-.206l-.01-.005c-2.494-.604-5.03-1.223-7.485-1.82l-6.675-1.625a8.304 8.304 0 00-.176-.046c-.2-.056-.433-.119-.68-.087a.474.474 0 00-.19.072l-.062.052a.758.758 0 00-.176.278l-.016.04v.239l.01.035c1.408 3.945 2.852 7.945 4.244 11.816 1.072 2.98 2.185 6.068 3.273 9.1.067.204.257.339.495.36h.051a.58.58 0 00.516-.284l4.082-5.955 2.986-4.35c.407-.592.814-1.191 1.222-1.784.669-.979 1.36-1.99 2.046-2.974l.037-.052v-.061c.015-.181.02-.553-.28-.748m-4.784 2.17c-.958.5-1.938 1.015-2.922 1.526l1.722-1.846c.716-.772 1.463-1.572 2.195-2.355l.016-.016c.061-.082.14-.159.221-.242.058-.056.119-.114.176-.18.382.262.768.53 1.14.794.268.19.54.381.818.572a284.47 284.47 0 00-3.366 1.747m-2.464-.248c-.737.8-1.5 1.62-2.257 2.429a1325.57 1325.57 0 00-4.425-5.341l-1.983-2.387-.005-.005c-.15-.17-.293-.355-.439-.53-.093-.12-.19-.233-.288-.351.599.155 1.201.3 1.794.438a93.5 93.5 0 011.592.387l8.975 2.18c-.995 1.062-1.994 2.139-2.964 3.18m-2.592 10.047c.056-.54.119-1.096.17-1.644l.14-1.314c.071-.685.148-1.397.21-2.093l.015-.123c.052-.443.104-.903.135-1.361.056-.032.118-.061.186-.088.077-.037.154-.067.232-.114 1.19-.623 2.38-1.247 3.577-1.866 1.19-.619 2.413-1.258 3.624-1.892-1.1 1.592-2.194 3.187-3.284 4.785-.923 1.344-1.871 2.731-2.815 4.098-.371.546-.758 1.102-1.124 1.639-.412.599-.835 1.211-1.247 1.825.051-.619.114-1.242.181-1.85m-7.187-15.018c-.067-.185-.139-.375-.201-.556 1.393 1.68 2.794 3.37 4.16 5.01.707.851 1.413 1.696 2.12 2.552.139.16.278.33.411.495.176.211.351.433.542.645-.061.53-.114 1.067-.171 1.581-.036.362-.071.723-.113 1.088v.006c-.016.233-.046.465-.072.69l-.118 1.028-.005.035c-.093 1.041-.207 2.092-.316 3.113-.045.423-.086.856-.134 1.29-.025-.079-.056-.156-.082-.228-.078-.21-.154-.422-.226-.634l-.553-1.53c-1.747-4.862-3.495-9.718-5.243-14.585" fill="#FFF"/></g><g fill-rule="nonzero"><path d="M24.363.656L41.105 10.4c1.499.875 2.498 2.624 2.498 4.373v19.365c0 1.75-.999 3.499-2.498 4.373l-16.742 9.62c-1.5.875-3.498.875-4.998 0L2.5 38.512C.999 37.638 0 35.89 0 34.14V14.65c0-1.75 1-3.498 2.499-4.373L19.365.656c1.5-.875 3.499-.875 4.998 0z" fill="url(#m)" transform="translate(66 1)"/><g fill="#FFF"><path d="M87.81 30.35l-7.746-4.498 7.746-12.869 7.746 12.869z"/><path d="M87.81 38.22l-7.746-10.994 7.746 4.623 7.746-4.623z"/></g></g><g fill-rule="nonzero"><path d="M24.138.67l16.642 9.607a4.997 4.997 0 012.499 4.328v19.218a4.997 4.997 0 01-2.5 4.328l-16.64 9.608a4.998 4.998 0 01-4.998 0L2.499 38.15A4.997 4.997 0 010 33.823V14.605c0-1.785.953-3.435 2.499-4.328L19.14.67a4.998 4.998 0 014.997 0z" fill="url(#n)" transform="translate(132 1)"/><path d="M149.817 32.615a6.076 6.076 0 01-2.29-11.707l-3.785-3.286h4.332l6.545 5.681h-4.802a3.24 3.24 0 00-3.236 3.236 3.24 3.24 0 003.236 3.236h1.53l3.272 2.84h-4.802zm13.334 0h-4.333l-6.544-5.681h4.802a3.24 3.24 0 003.236-3.236 3.238 3.238 0 00-3.236-3.236h-1.528l-3.274-2.84h4.803a6.076 6.076 0 012.289 11.706l3.785 3.287z" fill="#FFF"/></g><g fill-rule="nonzero"><path d="M25 1.444l16.65 9.612a5 5 0 012.5 4.33v19.228a5 5 0 01-2.5 4.33L25 48.556a5 5 0 01-5 0L3.35 38.944a5 5 0 01-2.5-4.33V15.386a5 5 0 012.5-4.33L20 1.444a5 5 0 015 0z" fill="url(#o)" transform="translate(198 1)"/><path d="M220.782 26.385l-1.775 5.98h9.488c.287 0 .495.206.495.495v.124l-.825 2.846a.62.62 0 01-.619.453H213.03l2.432-8.29-2.721.826.619-1.898 2.721-.825 3.424-11.631a.62.62 0 01.619-.454h3.67c.288 0 .495.207.495.495v.125l-2.888 9.815 2.723-.825-.578 1.98-2.762.784z" fill="#FFF"/></g><g fill-rule="nonzero"><path d="M24.444 1.412l16.28 9.399a4.889 4.889 0 012.445 4.233v18.8c0 1.747-.932 3.361-2.445 4.234l-16.28 9.4a4.889 4.889 0 01-4.888 0l-16.28-9.4A4.889 4.889 0 01.83 33.845v-18.8c0-1.747.932-3.361 2.445-4.234l16.28-9.4a4.889 4.889 0 014.888 0z" fill="url(#p)" transform="translate(264 1)"/><g fill="#FFF"><path d="M286.15 15.122l-4.83 6.502-2.212 10.71 7.048 4.123 7.044-4.12-2.285-10.713-4.765-6.502zm-8.272 17.758l2.42-11.713 5.858-7.887 5.78 7.887 2.499 11.715-8.279 4.842-8.278-4.842v-.002z"/><path d="M281.523 21.35l4.626 13.075 4.564-13.074-4.596-6.23-4.594 6.228v.001zm-1.225-.183l5.818-7.887 5.82 7.887-5.78 16.557-5.858-16.557z"/></g></g><g fill-rule="nonzero"><path d="M24.444 1.412l16.28 9.399a4.889 4.889 0 012.445 4.233v18.8c0 1.747-.932 3.361-2.445 4.234l-16.28 9.4a4.889 4.889 0 01-4.888 0l-16.28-9.4A4.889 4.889 0 01.83 33.845v-18.8c0-1.747.932-3.361 2.445-4.234l16.28-9.4a4.889 4.889 0 014.888 0z" fill="url(#q)" transform="translate(329 1)"/><path d="M345.946 28.204a4.725 4.725 0 00-4.718 4.73 4.725 4.725 0 004.718 4.733 4.725 4.725 0 004.718-4.732 4.725 4.725 0 00-4.718-4.73zm0 8.031a3.294 3.294 0 01-3.289-3.298 3.294 3.294 0 013.288-3.3 3.3 3.3 0 010 6.598h.001zm10.075-18.124a4.725 4.725 0 00-4.718 4.731 4.725 4.725 0 004.718 4.732 4.725 4.725 0 004.718-4.73 4.725 4.725 0 00-4.718-4.733zm0 8.031a3.294 3.294 0 01-3.288-3.297 3.294 3.294 0 013.288-3.3 3.3 3.3 0 010 6.596v.001zm-10.075-8.03a4.737 4.737 0 00-1.84 9.092 4.73 4.73 0 005.218-7.662h1.339v-1.43h-4.718.001zm3.288 4.73a3.294 3.294 0 01-3.288 3.3 3.294 3.294 0 01-3.289-3.3 3.293 3.293 0 013.288-3.297 3.298 3.298 0 013.291 3.299l-.002-.002z" fill="#FFF"/></g></g></svg>