<svg width="320" height="456" xmlns="http://www.w3.org/2000/svg" xmlns:xlink="http://www.w3.org/1999/xlink"><defs><linearGradient x1="70.341%" y1="0%" x2="29.659%" y2="100%" id="a"><stop stop-color="#FFAF16" offset="0%"/><stop stop-color="#ED6200" offset="100%"/></linearGradient><linearGradient x1="0%" y1="50%" x2="70.497%" y2="50%" id="d"><stop stop-color="#EB6200" offset="0%"/><stop stop-color="#1A1C1F" stop-opacity="0" offset="100%"/></linearGradient><rect id="c" x="0" y="3" width="153.333" height="40" rx="2.667"/><filter x="-29.7%" y="-81.2%" width="159.3%" height="327.5%" filterUnits="objectBoundingBox" id="b"><feOffset dy="13" in="SourceAlpha" result="shadowOffsetOuter1"/><feGaussianBlur stdDeviation="13" in="shadowOffsetOuter1" result="shadowBlurOuter1"/><feColorMatrix values="0 0 0 0 0 0 0 0 0 0 0 0 0 0 0 0 0 0 0.45 0" in="shadowBlurOuter1"/></filter><linearGradient x1="22.33%" y1="-12.223%" x2="98.874%" y2="152.777%" id="e"><stop stop-color="#FA6800" offset="0%"/><stop stop-color="#9B4202" offset="100%"/></linearGradient><linearGradient x1="50.501%" y1="74.197%" x2="49.237%" y2="0%" id="f"><stop stop-color="#4F4B6B" offset="0%"/><stop stop-color="#FFAF17" offset="100%"/></linearGradient><linearGradient x1="100%" y1="0%" x2="100%" y2="100%" id="g"><stop stop-color="#83B63E" offset="0%"/><stop stop-color="#ED6200" offset="100%"/></linearGradient><linearGradient x1="0%" y1="50%" x2="70.497%" y2="50%" id="j"><stop stop-color="#4E496A" offset="0%"/><stop stop-color="#1A1C1F" stop-opacity="0" offset="100%"/></linearGradient><rect id="i" x="0" y="3" width="153.333" height="40" rx="2.667"/><filter x="-29.7%" y="-81.2%" width="159.3%" height="327.5%" filterUnits="objectBoundingBox" id="h"><feOffset dy="13" in="SourceAlpha" result="shadowOffsetOuter1"/><feGaussianBlur stdDeviation="13" in="shadowOffsetOuter1" result="shadowBlurOuter1"/><feColorMatrix values="0 0 0 0 0 0 0 0 0 0 0 0 0 0 0 0 0 0 0.45 0" in="shadowBlurOuter1"/></filter><linearGradient x1="19.299%" y1="-44.859%" x2="84.229%" y2="155.311%" id="k"><stop stop-color="#171C30" offset="0%"/><stop stop-color="#5A63B8" offset="100%"/></linearGradient><linearGradient x1="58.681%" y1="0%" x2="50%" y2="69.975%" id="l"><stop stop-color="#FFAF16" offset="0%"/><stop stop-color="#84267F" offset="100%"/></linearGradient><linearGradient x1="0%" y1="50%" x2="70.497%" y2="50%" id="o"><stop stop-color="#81B43D" offset="0%"/><stop stop-color="#1A1C1F" stop-opacity="0" offset="100%"/></linearGradient><rect id="n" x="0" y="3" width="154" height="40" rx="2.667"/><filter x="-29.5%" y="-81.2%" width="159.1%" height="327.5%" filterUnits="objectBoundingBox" id="m"><feOffset dy="13" in="SourceAlpha" result="shadowOffsetOuter1"/><feGaussianBlur stdDeviation="13" in="shadowOffsetOuter1" result="shadowBlurOuter1"/><feColorMatrix values="0 0 0 0 0 0 0 0 0 0 0 0 0 0 0 0 0 0 0.45 0" in="shadowBlurOuter1"/></filter><linearGradient x1="80.928%" y1="99.962%" x2="22.248%" y2=".038%" id="p"><stop stop-color="#568525" offset="0%"/><stop stop-color="#8ABE42" offset="100%"/></linearGradient><linearGradient x1="0%" y1="50%" x2="70.497%" y2="50%" id="s"><stop stop-color="#F6F6F6" offset="0%"/><stop stop-color="#1A1C1F" stop-opacity="0" offset="100%"/></linearGradient><rect id="r" x="0" y="120" width="153.333" height="40" rx="2.667"/><filter x="-29.7%" y="-81.2%" width="159.3%" height="327.5%" filterUnits="objectBoundingBox" id="q"><feOffset dy="13" in="SourceAlpha" result="shadowOffsetOuter1"/><feGaussianBlur stdDeviation="13" in="shadowOffsetOuter1" result="shadowBlurOuter1"/><feColorMatrix values="0 0 0 0 0 0 0 0 0 0 0 0 0 0 0 0 0 0 0.45 0" in="shadowBlurOuter1"/></filter><linearGradient x1="19.031%" y1="-66.682%" x2="123.324%" y2="91.487%" id="t"><stop stop-color="#FFF" offset="0%"/><stop stop-color="#EAEAEA" offset="100%"/></linearGradient><linearGradient x1="39.205%" y1="36.89%" x2="60.795%" y2="100%" id="u"><stop stop-color="#4F4B6B" offset="0%"/><stop stop-color="#0E9DD4" offset="100%"/></linearGradient><linearGradient x1="20.611%" y1="0%" x2="79.389%" y2="79.247%" id="v"><stop stop-color="#F4F4F4" offset="0%"/><stop stop-color="#A72D5C" offset="100%"/></linearGradient><linearGradient x1="0%" y1="50%" x2="70.497%" y2="50%" id="y"><stop stop-color="#0E9DD4" offset="0%"/><stop stop-color="#1A1C1F" stop-opacity="0" offset="100%"/></linearGradient><rect id="x" x="0" y="3" width="153.333" height="40" rx="2.667"/><filter x="-29.7%" y="-81.2%" width="159.3%" height="327.5%" filterUnits="objectBoundingBox" id="w"><feOffset dy="13" in="SourceAlpha" result="shadowOffsetOuter1"/><feGaussianBlur stdDeviation="13" in="shadowOffsetOuter1" result="shadowBlurOuter1"/><feColorMatrix values="0 0 0 0 0 0 0 0 0 0 0 0 0 0 0 0 0 0 0.45 0" in="shadowBlurOuter1"/></filter><linearGradient x1="0%" y1=".038%" x2="104.002%" y2="143.515%" id="z"><stop stop-color="#11AAE2" offset="0%"/><stop stop-color="#016197" offset="100%"/></linearGradient><linearGradient x1="0%" y1="50%" x2="70.497%" y2="50%" id="C"><stop stop-color="#9C2B67" offset="0%"/><stop stop-color="#1A1C1F" stop-opacity="0" offset="100%"/></linearGradient><rect id="B" x="0" y="3" width="153.333" height="40" rx="2.667"/><filter x="-29.7%" y="-81.2%" width="159.3%" height="327.5%" filterUnits="objectBoundingBox" id="A"><feOffset dy="13" in="SourceAlpha" result="shadowOffsetOuter1"/><feGaussianBlur stdDeviation="13" in="shadowOffsetOuter1" result="shadowBlurOuter1"/><feColorMatrix values="0 0 0 0 0 0 0 0 0 0 0 0 0 0 0 0 0 0 0.45 0" in="shadowBlurOuter1"/></filter><linearGradient x1="22.33%" y1="-12.223%" x2="98.874%" y2="152.777%" id="D"><stop stop-color="#6F2396" offset="0%"/><stop stop-color="#FF3B00" offset="100%"/></linearGradient><linearGradient x1="0%" y1="50%" x2="67.128%" y2="50%" id="G"><stop stop-color="#FFB31A" offset="0%"/><stop stop-color="#1A1C1F" stop-opacity="0" offset="100%"/></linearGradient><rect id="F" x="0" y="0" width="153.333" height="40" rx="2.667"/><filter x="-29.7%" y="-81.2%" width="159.3%" height="327.5%" filterUnits="objectBoundingBox" id="E"><feOffset dy="13" in="SourceAlpha" result="shadowOffsetOuter1"/><feGaussianBlur stdDeviation="13" in="shadowOffsetOuter1" result="shadowBlurOuter1"/><feColorMatrix values="0 0 0 0 0 0 0 0 0 0 0 0 0 0 0 0 0 0 0.45 0" in="shadowBlurOuter1"/></filter><linearGradient x1="91.762%" y1="69.532%" x2="4.905%" y2="24.223%" id="H"><stop stop-color="#FF9400" offset="0%"/><stop stop-color="#FFBB21" offset="100%"/></linearGradient></defs><g fill="none" fill-rule="evenodd"><path d="M144 40c-.889 37.978-23 72.645-66.333 104" stroke="url(#a)" stroke-width="2" transform="translate(16 13)"/><path d="M227.667 257C217.445 287 172.89 307 94 317M227.667 257c7.444 33.333 7.555 73.333.333 120M160 53c-59.111 143.333-36.444 251.333 68 324" stroke="#FFF" opacity=".2" stroke-dasharray="3,4"/><g transform="translate(17 154)"><use fill="#000" filter="url(#b)" xlink:href="#c"/><use fill="#1E2326" xlink:href="#c"/><use fill-opacity=".3" fill="url(#d)" xlink:href="#c"/><path fill="#FFF" d="M77 38.757L81.243 43 77 47.243 72.757 43z"/><circle fill="#FFF" cx="77" cy="3" r="3"/><path d="M48.234 14.031l2.169 5.414 2.17-5.414h1.134v6.636h-.875v-2.584l.082-2.79-2.178 5.374h-.67l-2.174-5.36.087 2.776v2.584h-.875V14.03h1.13zm6.662 4.125c0-.483.095-.918.285-1.304.19-.386.455-.683.793-.893.339-.21.726-.314 1.16-.314.672 0 1.215.232 1.63.697.414.465.621 1.083.621 1.855v.059c0 .48-.091.91-.275 1.292a2.094 2.094 0 0 1-.789.89 2.183 2.183 0 0 1-1.178.32c-.668 0-1.21-.233-1.624-.697-.415-.465-.623-1.08-.623-1.846v-.06zm.848.1c0 .547.127.986.38 1.317.254.331.594.497 1.02.497a1.21 1.21 0 0 0 1.02-.504c.252-.336.378-.806.378-1.41 0-.541-.128-.98-.385-1.315a1.224 1.224 0 0 0-1.023-.504 1.21 1.21 0 0 0-1.007.497c-.255.331-.383.805-.383 1.422zm5.496-2.52l.028.62c.376-.474.868-.711 1.476-.711 1.042 0 1.568.587 1.577 1.763v3.259h-.843v-3.263c-.003-.356-.084-.619-.244-.789-.16-.17-.408-.255-.745-.255-.274 0-.514.073-.72.219a1.485 1.485 0 0 0-.483.574v3.514h-.843v-4.931h.797zm6.399 5.022c-.669 0-1.213-.22-1.632-.659-.42-.439-.629-1.026-.629-1.761v-.155c0-.49.094-.926.28-1.31.187-.385.449-.685.784-.903a1.97 1.97 0 0 1 1.092-.325c.64 0 1.14.21 1.495.633.355.422.533 1.027.533 1.814v.35h-3.34c.012.487.154.88.425 1.179.272.299.618.449 1.037.449.298 0 .55-.061.757-.183a1.9 1.9 0 0 0 .542-.483l.515.401c-.413.635-1.033.953-1.86.953zm-.105-4.42c-.34 0-.626.123-.857.37-.23.248-.374.595-.428 1.042h2.47v-.064c-.025-.428-.14-.76-.347-.996-.206-.235-.486-.353-.838-.353zm5.387.154a2.526 2.526 0 0 0-.415-.032c-.553 0-.928.236-1.126.707v3.5h-.843v-4.931h.82l.014.57c.277-.441.668-.661 1.176-.661.164 0 .289.02.374.063v.784zm.46 1.664c0-.483.095-.918.285-1.304.19-.386.454-.683.793-.893.338-.21.725-.314 1.16-.314.67 0 1.214.232 1.629.697.414.465.622 1.083.622 1.855v.059c0 .48-.092.91-.276 1.292a2.094 2.094 0 0 1-.788.89 2.183 2.183 0 0 1-1.178.32c-.669 0-1.21-.233-1.625-.697-.415-.465-.622-1.08-.622-1.846v-.06zm.848.1c0 .547.126.986.38 1.317.254.331.593.497 1.019.497a1.21 1.21 0 0 0 1.02-.504c.253-.336.379-.806.379-1.41 0-.541-.129-.98-.385-1.315a1.224 1.224 0 0 0-1.024-.504 1.21 1.21 0 0 0-1.007.497c-.255.331-.382.805-.382 1.422z" fill="#FFF" fill-rule="nonzero"/><path d="M48.849 28.492l1.363-2.18h.883l-1.797 2.82L51.138 32h-.89l-1.399-2.219L47.443 32h-.887l1.844-2.867-1.801-2.82h.879l1.371 2.18zm4.129-2.18l1.86 4.641 1.859-4.64h.972V32h-.75v-2.215l.07-2.39L55.123 32h-.574l-1.863-4.594.074 2.38V32h-.75v-5.688h.969zm8.101 3.387h-1.336V32h-.753v-5.688h1.882c.641 0 1.134.146 1.479.438.345.292.517.716.517 1.273 0 .355-.095.663-.287.926-.191.263-.457.46-.798.59l1.335 2.414V32h-.804l-1.235-2.3zm-1.336-.613h1.153c.372 0 .668-.096.889-.29.22-.192.33-.45.33-.773 0-.351-.105-.62-.315-.808-.21-.188-.512-.283-.908-.285h-1.149v2.156z" fill="#FFF" fill-rule="nonzero" opacity=".4"/><g fill-rule="nonzero"><path d="M14.667.77l8.88 5.124a2.665 2.665 0 0 1 1.333 2.309v10.25c0 .953-.508 1.833-1.333 2.31l-8.88 5.124a2.668 2.668 0 0 1-2.667 0l-8.88-5.125a2.665 2.665 0 0 1-1.333-2.308V8.203c0-.952.508-1.832 1.333-2.309L12 .77a2.668 2.668 0 0 1 2.667 0z" fill="url(#e)" transform="translate(9.667 9.667)"/><g fill="#FFF"><path d="M23.003 16.997a5.998 5.998 0 0 0-5.691 7.888h1.793V19.84l3.898 3.897 3.898-3.897v5.045h1.794a5.993 5.993 0 0 0-5.692-7.889"/><path d="M22.107 24.634l-1.702-1.701v3.174h-2.527a5.996 5.996 0 0 0 5.125 2.88 5.992 5.992 0 0 0 5.124-2.88H25.6v-3.174l-1.701 1.701-.896.896-.896-.896z"/></g></g></g><path d="M144 40c22.556 40.283 22.222 84.95-1 134" stroke="url(#f)" stroke-width="2" transform="translate(16 13)"/><path d="M88.667 304c-15.223-45.778-15.223-85.778 0-120" stroke="url(#g)" stroke-width="2" transform="rotate(180 90.958 250.5)"/><g transform="translate(83 184)"><use fill="#000" filter="url(#h)" xlink:href="#i"/><use fill="#1E2326" xlink:href="#i"/><use fill-opacity=".35" fill="url(#j)" xlink:href="#i"/><circle fill="#FFF" cx="76" cy="3" r="3"/><path d="M50.854 17.6H47.98v2.351h3.34v.716h-4.215V14.03h4.17v.72h-3.295v2.133h2.875v.716zm2.566-3.058v1.194h.92v.651h-.92v3.058c0 .198.04.346.123.445.082.098.222.148.42.148.096 0 .23-.018.4-.055v.684c-.222.06-.437.09-.647.09-.377 0-.66-.113-.852-.341-.191-.228-.287-.551-.287-.97v-3.059h-.898v-.651h.898v-1.194h.843zm2.748 1.79c.374-.458.86-.687 1.458-.687 1.042 0 1.568.587 1.577 1.763v3.259h-.843v-3.263c-.003-.356-.084-.619-.244-.789-.16-.17-.408-.255-.745-.255-.273 0-.513.073-.72.219a1.485 1.485 0 0 0-.483.574v3.514h-.843v-7h.843v2.666zm6.344 4.426c-.669 0-1.213-.22-1.632-.659-.42-.439-.629-1.026-.629-1.761v-.155c0-.49.094-.926.28-1.31.187-.385.449-.685.784-.903a1.97 1.97 0 0 1 1.092-.325c.641 0 1.14.21 1.495.633.355.422.533 1.027.533 1.814v.35h-3.34c.012.487.154.88.426 1.179.271.299.617.449 1.036.449.298 0 .55-.061.757-.183a1.9 1.9 0 0 0 .542-.483l.515.401c-.413.635-1.033.953-1.86.953zm-.105-4.42c-.34 0-.626.123-.857.37-.23.248-.374.595-.428 1.042h2.47v-.064c-.025-.428-.14-.76-.347-.996-.206-.235-.486-.353-.838-.353zm5.387.154a2.526 2.526 0 0 0-.415-.032c-.553 0-.928.236-1.126.707v3.5h-.843v-4.931h.82l.014.57c.277-.441.669-.661 1.176-.661.164 0 .289.02.374.063v.784zm2.734 4.266c-.668 0-1.212-.22-1.632-.659-.419-.439-.628-1.026-.628-1.761v-.155c0-.49.093-.926.28-1.31.187-.385.448-.685.784-.903a1.97 1.97 0 0 1 1.091-.325c.641 0 1.14.21 1.495.633.355.422.533 1.027.533 1.814v.35h-3.34c.012.487.154.88.426 1.179.272.299.617.449 1.037.449.297 0 .55-.061.756-.183a1.9 1.9 0 0 0 .542-.483l.515.401c-.413.635-1.033.953-1.859.953zm-.105-4.42c-.34 0-.626.123-.857.37-.23.248-.373.595-.428 1.042h2.47v-.064c-.024-.428-.14-.76-.346-.996-.207-.235-.486-.353-.839-.353zm6.048 3.841c-.328.386-.81.579-1.445.579-.526 0-.926-.153-1.2-.458-.276-.306-.415-.757-.418-1.356v-3.208h.843v3.185c0 .748.304 1.121.912 1.121.644 0 1.072-.24 1.285-.72v-3.586h.843v4.93h-.802l-.018-.487zm2.894-4.443l.022.547c.362-.426.85-.638 1.463-.638.69 0 1.16.264 1.408.793.165-.237.378-.429.64-.575.264-.146.574-.218.933-.218 1.081 0 1.631.572 1.65 1.718v3.304h-.844v-3.254c0-.353-.08-.616-.241-.79-.161-.176-.432-.263-.811-.263-.313 0-.573.093-.78.28-.206.187-.326.439-.36.755v3.272h-.847v-3.231c0-.717-.351-1.076-1.053-1.076-.553 0-.931.235-1.135.706v3.6h-.843v-4.93h.798z" fill="#FFF" fill-rule="nonzero"/><path d="M50.208 29.371h-2.465v2.016h2.864V32h-3.614v-5.688h3.575v.618h-2.825v1.828h2.465v.613zm5.262-2.441h-1.828V32h-.746v-5.07h-1.824v-.617h4.398v.617zM60.685 32h-.754v-2.629h-2.867V32h-.75v-5.688h.75v2.446h2.867v-2.445h.754V32z" fill="#FFF" fill-rule="nonzero" opacity=".4"/><g fill-rule="nonzero"><path d="M13.698.685l9.178 5.342c.821.48 1.37 1.438 1.37 2.397V19.04c0 .959-.549 1.918-1.37 2.397l-9.178 5.274c-.822.48-1.918.48-2.74 0l-9.246-5.274C.89 20.957.342 20 .342 19.04V8.356c0-.96.548-1.918 1.37-2.397L10.958.685a2.789 2.789 0 0 1 2.74 0z" fill="url(#k)" transform="translate(11 10)"/><g fill="#FFF"><path d="M23.442 26.316l-4.246-2.466 4.246-7.054 4.247 7.054z"/><path d="M23.442 30.63l-4.246-6.026 4.246 2.534 4.247-2.534z"/></g></g><path fill="#FFF" d="M77 34.757L81.243 39 77 43.243 72.757 39z"/></g><path d="M212 40c0 43.333-22.778 98-68.333 164" stroke="url(#l)" stroke-width="2" transform="matrix(-1 0 0 1 371.667 13)"/><g transform="translate(16 314)"><use fill="#000" filter="url(#m)" xlink:href="#n"/><use fill="#1E2326" xlink:href="#n"/><use fill-opacity=".3" fill="url(#o)" xlink:href="#n"/><circle fill="#FFF" cx="78" cy="3" r="3"/><path d="M48.104 20.667V14.03h2.169c.72 0 1.261.15 1.624.447.364.298.545.738.545 1.321 0 .31-.088.585-.264.823a1.714 1.714 0 0 1-.72.554c.358.1.641.29.85.572.208.28.312.616.312 1.005 0 .595-.193 1.063-.579 1.403-.386.34-.931.51-1.636.51h-2.301zm.875-3.104v2.388h1.444c.407 0 .729-.105.964-.317.236-.21.353-.502.353-.872 0-.8-.434-1.199-1.303-1.199h-1.458zm0-.702H50.3c.383 0 .689-.095.918-.287.23-.191.344-.451.344-.78 0-.364-.106-.629-.319-.794-.212-.166-.536-.249-.97-.249h-1.294v2.11zm5.719 3.806h-.843v-4.931h.843v4.93zm-.912-6.24c0-.136.042-.251.126-.346.083-.094.207-.14.371-.14s.289.046.374.14c.085.095.128.21.128.347 0 .136-.043.25-.128.342-.085.09-.21.136-.374.136s-.288-.045-.371-.136a.487.487 0 0 1-.126-.342zm3.405.115v1.194h.92v.651h-.92v3.058c0 .198.04.346.123.445.082.098.222.148.42.148.096 0 .23-.018.4-.055v.684c-.222.06-.437.09-.647.09-.377 0-.66-.113-.852-.341-.192-.228-.287-.551-.287-.97v-3.059h-.898v-.651h.898v-1.194h.843zm3.883 5.528c.3 0 .563-.091.788-.274a.962.962 0 0 0 .374-.683h.797a1.529 1.529 0 0 1-.291.806c-.18.255-.419.459-.718.61-.3.153-.616.229-.95.229-.672 0-1.206-.224-1.602-.672-.397-.449-.595-1.061-.595-1.84v-.14c0-.48.088-.907.264-1.281.176-.374.43-.664.76-.87.329-.207.718-.31 1.168-.31.553 0 1.012.165 1.379.496.366.331.56.761.585 1.29h-.797a1.162 1.162 0 0 0-.363-.786 1.127 1.127 0 0 0-.804-.308c-.428 0-.76.154-.996.463-.235.308-.353.754-.353 1.337v.16c0 .568.117 1.006.351 1.312.234.307.568.46 1.003.46zm2.684-1.914c0-.483.095-.918.285-1.304.19-.386.454-.683.793-.893.338-.21.725-.314 1.16-.314.67 0 1.214.232 1.629.697.414.465.622 1.083.622 1.855v.059c0 .48-.092.91-.276 1.292a2.094 2.094 0 0 1-.788.89 2.183 2.183 0 0 1-1.178.32c-.669 0-1.21-.233-1.625-.697-.415-.465-.622-1.08-.622-1.846v-.06zm.847.1c0 .547.127.986.381 1.317.254.331.593.497 1.019.497a1.21 1.21 0 0 0 1.02-.504c.253-.336.379-.806.379-1.41 0-.541-.129-.98-.385-1.315a1.224 1.224 0 0 0-1.024-.504 1.21 1.21 0 0 0-1.007.497c-.255.331-.383.805-.383 1.422zm5.615 2.41h-.843v-4.93h.843v4.93zm-.911-6.238c0-.137.041-.252.125-.347.083-.094.207-.14.371-.14s.289.046.374.14c.085.095.128.21.128.347 0 .136-.043.25-.128.342-.085.09-.21.136-.374.136s-.288-.045-.371-.136a.487.487 0 0 1-.125-.342zm3.058 1.308l.027.62c.377-.474.869-.711 1.476-.711 1.043 0 1.568.587 1.577 1.763v3.259h-.843v-3.263c-.003-.356-.084-.619-.244-.789-.16-.17-.408-.255-.745-.255-.273 0-.513.073-.72.219a1.485 1.485 0 0 0-.483.574v3.514h-.843v-4.931h.798zm11.675 2.825c-.082.702-.34 1.244-.777 1.625-.436.381-1.015.572-1.738.572-.784 0-1.412-.281-1.885-.843-.472-.562-.708-1.314-.708-2.256v-.638c0-.617.11-1.16.33-1.627.22-.468.532-.827.937-1.078.404-.25.871-.376 1.403-.376.705 0 1.27.197 1.695.59.426.394.673.938.743 1.634h-.88c-.075-.529-.24-.911-.494-1.148-.253-.237-.608-.356-1.064-.356-.559 0-.997.207-1.315.62-.317.413-.476 1.001-.476 1.764v.642c0 .72.15 1.293.451 1.718.301.426.722.638 1.263.638.486 0 .859-.11 1.119-.33.26-.22.432-.604.517-1.15h.88zm4.106 2.106c-.048-.098-.088-.27-.118-.52-.392.407-.86.61-1.404.61-.486 0-.885-.137-1.196-.412a1.334 1.334 0 0 1-.467-1.046c0-.513.195-.912.586-1.196.39-.284.94-.426 1.647-.426h.82v-.387c0-.295-.088-.53-.264-.704-.176-.175-.436-.262-.78-.262-.3 0-.552.076-.756.227-.203.152-.305.336-.305.552h-.848c0-.246.087-.484.262-.713.175-.23.412-.411.711-.545.3-.134.628-.2.987-.2.568 0 1.013.142 1.335.426.322.284.49.675.501 1.173v2.27c0 .452.058.812.174 1.08v.073h-.885zm-1.399-.643c.265 0 .515-.068.752-.205a1.24 1.24 0 0 0 .515-.533v-1.012h-.66c-1.034 0-1.55.302-1.55.907 0 .264.088.47.264.62.177.149.403.223.68.223zm6.303-.665a.62.62 0 0 0-.257-.531c-.172-.126-.471-.235-.898-.326-.427-.091-.766-.2-1.016-.328-.251-.128-.436-.28-.556-.456a1.09 1.09 0 0 1-.18-.629c0-.404.17-.746.512-1.025.342-.28.779-.42 1.31-.42.56 0 1.013.145 1.36.433.349.29.523.658.523 1.108h-.848c0-.231-.098-.43-.294-.597-.196-.167-.443-.25-.74-.25-.307 0-.547.066-.72.2a.631.631 0 0 0-.26.524c0 .203.08.357.241.46.161.103.452.202.873.296.42.095.762.207 1.023.338.261.13.455.287.581.471.126.184.19.408.19.672 0 .441-.177.794-.53 1.06-.352.266-.81.399-1.371.399-.395 0-.745-.07-1.048-.21a1.705 1.705 0 0 1-.714-.585 1.411 1.411 0 0 1-.257-.814h.843a.873.873 0 0 0 .34.672c.21.166.49.249.836.249.319 0 .575-.065.768-.194a.595.595 0 0 0 .29-.517zm2.785-3.026c.373-.46.86-.688 1.458-.688 1.042 0 1.568.587 1.577 1.763v3.259h-.843v-3.263c-.003-.356-.085-.619-.244-.789-.16-.17-.408-.255-.745-.255-.274 0-.514.073-.72.219a1.485 1.485 0 0 0-.483.574v3.514h-.844v-7h.844v2.666z" fill="#FFF" fill-rule="nonzero"/><path d="M47.993 32v-5.688h1.86c.617 0 1.081.128 1.392.383.312.256.467.633.467 1.133 0 .266-.075.5-.226.705a1.469 1.469 0 0 1-.618.475c.308.086.55.25.729.49.178.24.268.528.268.861 0 .51-.166.912-.497 1.203-.33.292-.798.438-1.402.438h-1.973zm.75-2.66v2.047h1.239c.349 0 .624-.09.826-.272.202-.18.303-.43.303-.748 0-.685-.373-1.027-1.118-1.027h-1.25zm0-.602h1.133c.328 0 .59-.082.787-.246.197-.164.295-.387.295-.668 0-.312-.09-.54-.273-.681-.182-.142-.46-.213-.832-.213h-1.11v1.808zm8.415 1.457c-.07.602-.293 1.066-.666 1.393-.374.327-.87.49-1.49.49-.673 0-1.211-.24-1.616-.723-.405-.481-.607-1.126-.607-1.933v-.547c0-.529.094-.993.283-1.395.189-.4.456-.709.803-.923a2.235 2.235 0 0 1 1.203-.323c.604 0 1.088.169 1.453.506.364.337.577.804.637 1.4h-.754c-.065-.453-.207-.78-.424-.984-.218-.203-.522-.304-.912-.304-.48 0-.855.177-1.127.53-.272.355-.408.859-.408 1.513v.55c0 .618.128 1.108.386 1.473s.619.547 1.082.547c.417 0 .737-.095.96-.283.222-.19.37-.518.443-.987h.754zM62.552 32h-.754v-2.629h-2.867V32h-.75v-5.688h.75v2.446h2.867v-2.445h.754V32z" fill="#FFF" fill-rule="nonzero" opacity=".4"/><g><path d="M14.666.77l8.88 5.124a2.667 2.667 0 0 1 1.334 2.31v10.249c0 .952-.508 1.833-1.333 2.31l-8.88 5.124a2.667 2.667 0 0 1-2.667 0l-8.88-5.125a2.667 2.667 0 0 1-1.334-2.31V8.205c0-.953.509-1.833 1.334-2.31L12 .77a2.667 2.667 0 0 1 2.666 0z" fill="url(#p)" transform="translate(10.667 9.667)"/><path d="M28.27 25.468c-.537.637-1.22.908-1.522 1.032-.148.062-.406.154-.685.246l.476 1.778-1.094.293-.469-1.749-.834.224.47 1.749-1.096.293-.468-1.749-2.154.577-.127-1.375.655-.175c.22-.059.306-.104.375-.216.069-.111.054-.25.025-.357l-1.213-4.528c-.076-.283-.12-.354-.29-.465-.169-.11-.48-.048-.654-.001l-.632.17-.305-1.137 2.154-.577-.47-1.754 1.094-.293.47 1.754.834-.224-.47-1.754 1.095-.293.475 1.775c.83-.168 1.48-.175 2.114.074.821.323 1.021 1.212 1.062 1.425.04.214.057.643-.057.953-.114.31-.495.691-.495.691s.562-.03 1.011.152c.449.18.858.603 1.037 1.333.18.73.224 1.49-.312 2.128zm-3.867-2.154c-.551.11-1.237.332-1.237.332l.628 2.347s.73-.18 1.207-.345c.477-.166.945-.423 1.159-.629.213-.205.457-.5.314-1.037-.144-.537-.563-.666-.795-.714-.232-.047-.724-.063-1.276.046zm-.619-1.001c.395-.123.795-.328 1.056-.58.262-.25.365-.562.248-.959-.117-.396-.474-.662-.96-.68-.488-.017-.792.054-1.136.14-.345.087-.684.211-.684.211l.566 2.112s.515-.122.91-.244z" fill="#FFF"/></g></g><g transform="translate(83 227)"><use fill="#000" filter="url(#q)" xlink:href="#r"/><use fill="#1E2326" xlink:href="#r"/><use fill-opacity=".25" fill="url(#s)" xlink:href="#r"/><circle fill="#FFF" cx="76" cy="120" r="3"/><path d="M49.392 134.709c-.75-.216-1.297-.48-1.638-.795a1.52 1.52 0 0 1-.513-1.165c0-.522.209-.954.627-1.296.417-.342.96-.513 1.629-.513.455 0 .862.088 1.219.264.357.177.633.42.83.73.195.31.293.648.293 1.016h-.88c0-.401-.127-.716-.382-.946-.255-.23-.615-.344-1.08-.344-.432 0-.768.095-1.01.285-.241.19-.362.453-.362.79 0 .271.115.5.344.687.23.186.62.357 1.171.512.552.155.983.326 1.295.513.311.187.542.405.692.654.15.249.226.542.226.88 0 .537-.21.968-.629 1.291-.42.324-.98.486-1.682.486-.455 0-.88-.088-1.276-.262-.395-.175-.7-.414-.913-.718a1.752 1.752 0 0 1-.322-1.035h.88c0 .402.148.718.444.95.296.233.692.35 1.187.35.462 0 .816-.095 1.062-.283a.918.918 0 0 0 .37-.77c0-.326-.115-.577-.342-.755-.228-.177-.642-.353-1.24-.526zm4.594-3.167v1.194h.92v.651h-.92v3.058c0 .198.04.346.123.445.082.098.222.148.419.148.097 0 .23-.018.401-.055v.684c-.222.06-.437.09-.647.09-.377 0-.66-.113-.852-.341-.192-.228-.287-.551-.287-.97v-3.059h-.898v-.651h.898v-1.194h.843zm3.95 6.216c-.668 0-1.211-.22-1.63-.659-.42-.439-.63-1.026-.63-1.761v-.155c0-.49.094-.926.28-1.31.188-.385.449-.685.785-.903a1.97 1.97 0 0 1 1.091-.325c.641 0 1.14.21 1.495.633.355.422.533 1.027.533 1.814v.35h-3.34c.012.487.154.88.426 1.179.272.299.617.449 1.036.449.298 0 .55-.061.757-.183a1.9 1.9 0 0 0 .542-.483l.515.401c-.413.635-1.033.953-1.86.953zm-.104-4.42c-.34 0-.626.123-.857.37-.23.248-.373.595-.428 1.042h2.47v-.064c-.024-.428-.14-.76-.346-.996-.207-.235-.487-.353-.839-.353zm3.92 4.329h-.844v-7h.843v7zm2.264 0h-.843v-7h.843v7zm4.394 0c-.05-.098-.089-.27-.119-.52-.392.407-.86.61-1.404.61-.486 0-.885-.137-1.196-.412a1.334 1.334 0 0 1-.467-1.046c0-.513.195-.912.586-1.196.39-.284.94-.426 1.647-.426h.82v-.387c0-.295-.088-.53-.264-.704-.176-.175-.436-.262-.78-.262-.3 0-.552.076-.756.227-.203.152-.305.336-.305.552h-.848c0-.246.088-.484.262-.713.175-.23.412-.411.711-.545.3-.134.628-.2.987-.2.568 0 1.013.142 1.335.426.322.284.49.675.501 1.173v2.27c0 .452.058.812.174 1.08v.073h-.884zm-1.4-.643c.265 0 .515-.068.752-.205a1.24 1.24 0 0 0 .515-.533v-1.012h-.66c-1.033 0-1.55.302-1.55.907 0 .264.088.47.264.62.177.149.403.223.68.223zm5.816-3.532a2.527 2.527 0 0 0-.415-.032c-.553 0-.928.236-1.126.707v3.5h-.843v-4.931h.82l.014.57c.277-.441.668-.661 1.176-.661.164 0 .288.02.374.063v.784z" fill="#FFF" fill-rule="nonzero"/><path d="M48.182 145.492l1.364-2.18h.882l-1.796 2.82 1.84 2.868h-.891l-1.399-2.219L46.776 149h-.887l1.844-2.867-1.8-2.82h.878l1.371 2.18zm3.914 2.895h2.696V149h-3.45v-5.688h.754v5.075zm4.52-5.075l1.86 4.641 1.859-4.64h.972V149h-.75v-2.215l.07-2.39L58.76 149h-.574l-1.863-4.594.074 2.38V149h-.75v-5.688h.969z" fill="#FFF" fill-rule="nonzero" opacity=".4"/><g fill-rule="nonzero"><path d="M14.667.77l8.88 5.127a2.667 2.667 0 0 1 1.333 2.309v10.255c0 .952-.508 1.833-1.333 2.309l-8.88 5.127a2.667 2.667 0 0 1-2.667 0L3.12 20.77a2.667 2.667 0 0 1-1.333-2.31V8.207c0-.953.508-1.833 1.333-2.31L12 .77a2.667 2.667 0 0 1 2.667 0z" fill="url(#t)" transform="translate(9 126.667)"/><path d="M27.42 135.571l2.005-1.021v1.224l-11.689 5.956v.001l-.975.498-.001-.002-1.517.774v-1.225l.515-.263c.393-.2.626-.616.593-1.054a5.982 5.982 0 0 1 1.74-4.7 5.98 5.98 0 0 1 4.242-1.758 5.96 5.96 0 0 1 3.525 1.144l-.146.074-.977.498a4.884 4.884 0 0 0-2.44-.624 4.902 4.902 0 0 0-3.433 1.437 4.877 4.877 0 0 0-1.437 3.472c0 .216.013.43.041.641l9.953-5.072h.001zm2.005 1.427v1.225l-.516.263a1.09 1.09 0 0 0-.593 1.055 5.983 5.983 0 0 1-1.74 4.703 5.983 5.983 0 0 1-4.243 1.758 5.963 5.963 0 0 1-3.528-1.147l1.06-.54.063-.031a4.883 4.883 0 0 0 2.44.627 4.903 4.903 0 0 0 3.437-1.438 4.877 4.877 0 0 0 1.438-3.47c0-.218-.014-.434-.042-.646l-11.958 6.093v-1.225L29.425 137v-.001z" fill="#000"/></g><path d="M75.667 0c-5.111 52 17.889 102 69 150" stroke="url(#u)" stroke-width="2"/></g><path d="M211.667 334c-10.223-44.444-33.223-74.444-69-90" stroke="url(#v)" stroke-width="2" transform="matrix(1 0 0 -1 16 591)"/><g transform="translate(151 374)"><use fill="#000" filter="url(#w)" xlink:href="#x"/><use fill="#1E2326" xlink:href="#x"/><use fill-opacity=".3" fill="url(#y)" xlink:href="#x"/><circle fill="#FFF" cx="77" cy="3" r="3"/><path d="M49.268 16.574l1.59-2.543h1.03l-2.096 3.29 2.147 3.346h-1.04l-1.63-2.589-1.641 2.589h-1.035l2.151-3.345-2.1-3.29h1.025l1.6 2.542zm6.12 1.408H53.83v2.685h-.88V14.03h2.197c.748 0 1.323.17 1.725.51.403.34.604.836.604 1.486 0 .414-.112.774-.335 1.08a2 2 0 0 1-.932.689l1.559 2.816v.055h-.94l-1.44-2.685zm-1.558-.715h1.344c.435 0 .78-.112 1.037-.337.257-.225.385-.526.385-.903 0-.41-.122-.724-.367-.943-.244-.219-.597-.33-1.06-.333H53.83v2.516zm5.747.802v2.598h-.875V14.03h2.447c.726 0 1.295.186 1.707.556.411.37.617.862.617 1.472 0 .644-.201 1.14-.604 1.488-.402.348-.979.522-1.729.522h-1.563zm0-.715h1.572c.468 0 .826-.11 1.076-.33.249-.221.373-.54.373-.956 0-.395-.124-.71-.373-.948-.25-.237-.591-.36-1.026-.369h-1.622v2.603z" fill="#FFF" fill-rule="nonzero"/><path d="M48.849 28.492l1.363-2.18h.883l-1.797 2.82L51.138 32h-.89l-1.399-2.219L47.443 32h-.887l1.844-2.867-1.801-2.82h.879l1.371 2.18zm5.246 1.207H52.76V32h-.754v-5.688h1.883c.64 0 1.133.146 1.479.438.345.292.517.716.517 1.273 0 .355-.096.663-.287.926-.191.263-.458.46-.799.59l1.336 2.414V32h-.805l-1.234-2.3zm-1.336-.613h1.152c.373 0 .67-.096.89-.29.22-.192.33-.45.33-.773 0-.351-.106-.62-.315-.808-.21-.188-.513-.283-.908-.285h-1.149v2.156zm4.926.687V32h-.75v-5.688h2.098c.622 0 1.11.16 1.462.477.353.318.53.738.53 1.262 0 .552-.173.977-.518 1.275-.345.298-.839.447-1.482.447h-1.34zm0-.613h1.348c.4 0 .708-.094.921-.283.214-.189.32-.462.32-.818 0-.339-.106-.61-.32-.813-.213-.203-.506-.308-.878-.316h-1.391v2.23z" fill="#FFF" fill-rule="nonzero" opacity=".4"/><g><path d="M14.666.77l8.88 5.124a2.667 2.667 0 0 1 1.334 2.31v10.249c0 .952-.508 1.833-1.333 2.31l-8.88 5.124a2.667 2.667 0 0 1-2.667 0l-8.88-5.125a2.667 2.667 0 0 1-1.334-2.31V8.205c0-.953.509-1.833 1.334-2.31L12 .77a2.667 2.667 0 0 1 2.666 0z" fill="url(#z)" transform="translate(9.667 9.667)"/><path d="M26.77 18.197h1.544l-3.21 3.259a2.943 2.943 0 0 1-4.208 0l-3.21-3.26h1.543l2.439 2.477a1.864 1.864 0 0 0 2.665 0l2.438-2.476zm-7.56 9.063h-1.543l3.23-3.28a2.943 2.943 0 0 1 4.207 0l3.23 3.28H26.79l-2.459-2.496a1.864 1.864 0 0 0-2.664 0l-2.459 2.496z" fill="#FFF" fill-rule="nonzero"/></g></g><g transform="translate(151 214)"><use fill="#000" filter="url(#A)" xlink:href="#B"/><use fill="#1E2326" xlink:href="#B"/><use fill-opacity=".3" fill="url(#C)" xlink:href="#B"/><path fill="#FFF" d="M77 38.757L81.243 43 77 47.243 72.757 43z"/><circle fill="#FFF" cx="77" cy="3" r="3"/><path d="M47.104 20.667V14.03h2.169c.72 0 1.261.15 1.624.447.364.298.545.738.545 1.321 0 .31-.088.585-.264.823a1.714 1.714 0 0 1-.72.554c.358.1.641.29.85.572.208.28.312.616.312 1.005 0 .595-.193 1.063-.579 1.403-.386.34-.931.51-1.636.51h-2.301zm.875-3.104v2.388h1.444c.407 0 .729-.105.964-.317.236-.21.353-.502.353-.872 0-.8-.434-1.199-1.303-1.199h-1.458zm0-.702H49.3c.383 0 .689-.095.918-.287.23-.191.344-.451.344-.78 0-.364-.106-.629-.319-.794-.212-.166-.536-.249-.97-.249h-1.294v2.11zm7.847 3.806c-.048-.098-.088-.27-.118-.52-.392.407-.86.61-1.404.61-.486 0-.885-.137-1.196-.412a1.334 1.334 0 0 1-.467-1.046c0-.513.195-.912.585-1.196.39-.284.94-.426 1.648-.426h.82v-.387c0-.295-.088-.53-.264-.704-.177-.175-.436-.262-.78-.262-.3 0-.553.076-.756.227-.204.152-.305.336-.305.552h-.848c0-.246.087-.484.262-.713.175-.23.412-.411.71-.545.3-.134.629-.2.988-.2.568 0 1.013.142 1.335.426.322.284.489.675.501 1.173v2.27c0 .452.058.812.173 1.08v.073h-.884zm-1.399-.643c.264 0 .515-.068.752-.205a1.24 1.24 0 0 0 .515-.533v-1.012h-.66c-1.034 0-1.55.302-1.55.907 0 .264.088.47.264.62.176.149.403.223.68.223zm6.303-.665a.62.62 0 0 0-.258-.531c-.171-.126-.47-.235-.897-.326-.427-.091-.766-.2-1.017-.328-.25-.128-.436-.28-.556-.456a1.09 1.09 0 0 1-.18-.629c0-.404.171-.746.513-1.025.342-.28.778-.42 1.31-.42.56 0 1.013.145 1.36.433.348.29.522.658.522 1.108h-.847c0-.231-.098-.43-.294-.597-.196-.167-.443-.25-.74-.25-.308 0-.548.066-.72.2a.631.631 0 0 0-.26.524c0 .203.08.357.24.46.162.103.453.202.874.296.42.095.761.207 1.023.338.261.13.455.287.58.471.127.184.19.408.19.672 0 .441-.176.794-.529 1.06-.352.266-.81.399-1.371.399-.395 0-.745-.07-1.049-.21a1.705 1.705 0 0 1-.713-.585 1.411 1.411 0 0 1-.257-.814h.843a.873.873 0 0 0 .34.672c.21.166.49.249.836.249.319 0 .575-.065.767-.194a.595.595 0 0 0 .29-.517zm2.857 1.308h-.843v-4.931h.843v4.93zm-.911-6.24c0-.136.042-.251.125-.346.084-.094.207-.14.372-.14.164 0 .288.046.373.14.085.095.128.21.128.347 0 .136-.043.25-.128.342-.085.09-.21.136-.373.136-.165 0-.288-.045-.372-.136a.487.487 0 0 1-.125-.342zm4.238 5.643c.3 0 .564-.091.788-.274a.962.962 0 0 0 .374-.683h.798a1.529 1.529 0 0 1-.292.806c-.18.255-.418.459-.718.61-.299.153-.616.229-.95.229-.671 0-1.205-.224-1.602-.672-.396-.449-.595-1.061-.595-1.84v-.14c0-.48.089-.907.265-1.281.176-.374.429-.664.759-.87.33-.207.719-.31 1.169-.31.552 0 1.012.165 1.378.496.366.331.561.761.586 1.29h-.798a1.162 1.162 0 0 0-.362-.786 1.127 1.127 0 0 0-.804-.308c-.429 0-.76.154-.996.463-.236.308-.353.754-.353 1.337v.16c0 .568.117 1.006.35 1.312.234.307.569.46 1.003.46zm9.014-1.135h-2.78l-.624 1.732h-.902l2.534-6.636h.765l2.539 6.636h-.898l-.634-1.732zm-2.515-.72h2.256l-1.13-3.104-1.126 3.104zm5.874-3.673v1.194h.92v.651h-.92v3.058c0 .198.041.346.123.445.082.098.222.148.42.148.097 0 .23-.018.4-.055v.684c-.221.06-.437.09-.647.09-.376 0-.66-.113-.852-.341-.191-.228-.287-.551-.287-.97v-3.059h-.898v-.651h.898v-1.194h.843zm3.049 0v1.194h.92v.651h-.92v3.058c0 .198.041.346.123.445.082.098.222.148.42.148.096 0 .23-.018.4-.055v.684c-.221.06-.437.09-.647.09-.377 0-.66-.113-.852-.341-.191-.228-.287-.551-.287-.97v-3.059h-.898v-.651h.898v-1.194h.843zm3.951 6.216c-.668 0-1.212-.22-1.631-.659-.42-.439-.63-1.026-.63-1.761v-.155c0-.49.094-.926.281-1.31.187-.385.448-.685.784-.903a1.97 1.97 0 0 1 1.091-.325c.641 0 1.14.21 1.495.633.356.422.533 1.027.533 1.814v.35h-3.34c.012.487.154.88.426 1.179.272.299.617.449 1.037.449.297 0 .55-.061.756-.183a1.9 1.9 0 0 0 .543-.483l.514.401c-.413.635-1.032.953-1.859.953zm-.105-4.42c-.34 0-.626.123-.856.37-.231.248-.374.595-.429 1.042h2.47v-.064c-.024-.428-.14-.76-.346-.996-.207-.235-.486-.353-.839-.353zm3.801-.602l.027.62c.377-.474.87-.711 1.477-.711 1.042 0 1.568.587 1.577 1.763v3.259h-.843v-3.263c-.003-.356-.085-.619-.244-.789-.16-.17-.408-.255-.745-.255-.274 0-.514.073-.72.219a1.485 1.485 0 0 0-.483.574v3.514h-.843v-4.931h.797zm5.496-1.194v1.194h.92v.651h-.92v3.058c0 .198.041.346.123.445.082.098.222.148.42.148.097 0 .23-.018.4-.055v.684c-.221.06-.437.09-.647.09-.376 0-.66-.113-.852-.341-.191-.228-.287-.551-.287-.97v-3.059h-.898v-.651h.898v-1.194h.843zm2.821 6.125h-.843v-4.931h.843v4.93zm-.911-6.24c0-.136.041-.251.125-.346.084-.094.207-.14.371-.14s.289.046.374.14c.085.095.128.21.128.347 0 .136-.043.25-.128.342-.085.09-.21.136-.374.136s-.287-.045-.371-.136a.487.487 0 0 1-.125-.342zm2.037 3.729c0-.483.095-.918.285-1.304.19-.386.454-.683.793-.893.338-.21.725-.314 1.16-.314.67 0 1.214.232 1.629.697.414.465.622 1.083.622 1.855v.059c0 .48-.092.91-.276 1.292a2.094 2.094 0 0 1-.788.89 2.183 2.183 0 0 1-1.178.32c-.669 0-1.21-.233-1.625-.697-.415-.465-.622-1.08-.622-1.846v-.06zm.847.1c0 .547.127.986.381 1.317.254.331.593.497 1.019.497a1.21 1.21 0 0 0 1.02-.504c.253-.336.379-.806.379-1.41 0-.541-.129-.98-.385-1.315a1.224 1.224 0 0 0-1.024-.504 1.21 1.21 0 0 0-1.007.497c-.255.331-.383.805-.383 1.422zm5.497-2.52l.027.62c.377-.474.869-.711 1.476-.711 1.043 0 1.568.587 1.577 1.763v3.259h-.843v-3.263c-.003-.356-.084-.619-.244-.789-.16-.17-.408-.255-.745-.255-.273 0-.513.073-.72.219a1.485 1.485 0 0 0-.483.574v3.514h-.843v-4.931h.798zm11.197-.985h-2.133v5.916h-.87V14.75h-2.129v-.72h5.132v.72zm.178 3.405c0-.483.094-.918.284-1.304.19-.386.455-.683.793-.893.34-.21.726-.314 1.16-.314.672 0 1.215.232 1.63.697.414.465.621 1.083.621 1.855v.059c0 .48-.091.91-.275 1.292a2.094 2.094 0 0 1-.789.89 2.183 2.183 0 0 1-1.178.32c-.668 0-1.21-.233-1.624-.697-.415-.465-.622-1.08-.622-1.846v-.06zm.847.1c0 .547.127.986.38 1.317.254.331.594.497 1.02.497a1.21 1.21 0 0 0 1.02-.504c.252-.336.378-.806.378-1.41 0-.541-.128-.98-.385-1.315a1.224 1.224 0 0 0-1.023-.504 1.21 1.21 0 0 0-1.007.497c-.255.331-.383.805-.383 1.422zm6.075.127l-.529.552v1.732h-.843v-7h.843V17.9l.452-.542 1.535-1.622h1.026l-1.919 2.06 2.142 2.87h-.989l-1.718-2.283zm3.372 1.842c0-.146.044-.268.13-.365.087-.097.217-.146.39-.146.173 0 .305.049.394.146.09.097.135.219.135.365a.49.49 0 0 1-.135.35c-.09.095-.22.142-.394.142-.173 0-.303-.047-.39-.141a.499.499 0 0 1-.13-.351z" fill="#FFF" fill-rule="nonzero"/><path d="M46.993 32v-5.688h1.86c.617 0 1.081.128 1.392.383.312.256.467.633.467 1.133 0 .266-.075.5-.226.705a1.469 1.469 0 0 1-.618.475c.308.086.55.25.729.49.178.24.268.528.268.861 0 .51-.166.912-.497 1.203-.33.292-.798.438-1.402.438h-1.973zm.75-2.66v2.047h1.239c.349 0 .624-.09.826-.272.202-.18.303-.43.303-.748 0-.685-.373-1.027-1.118-1.027h-1.25zm0-.602h1.133c.328 0 .59-.082.787-.246.197-.164.295-.387.295-.668 0-.312-.09-.54-.273-.681-.182-.142-.46-.213-.832-.213h-1.11v1.808zm7.372 1.778h-2.383L52.197 32h-.774l2.172-5.688h.656L56.427 32h-.77l-.542-1.484zm-2.157-.618h1.934l-.969-2.66-.965 2.66zm8.164-2.968h-1.828V32h-.746v-5.07h-1.824v-.617h4.398v.617z" fill="#FFF" fill-rule="nonzero" opacity=".4"/><g fill-rule="nonzero"><path d="M14.667.77l8.88 5.124a2.665 2.665 0 0 1 1.333 2.309v10.25c0 .953-.508 1.833-1.333 2.31l-8.88 5.124a2.668 2.668 0 0 1-2.667 0l-8.88-5.125a2.665 2.665 0 0 1-1.333-2.308V8.203c0-.952.508-1.832 1.333-2.309L12 .77a2.668 2.668 0 0 1 2.667 0z" fill="url(#D)" transform="translate(9.667 9.667)"/><path fill="#C8C8C8" d="M29 27.293l-5.971-3.418L17 27.307z"/><path fill="#E2E2E2" d="M23.03 16.997l-.001 6.878L29 27.293z"/><path fill="#FFF" d="M17 27.307l6.029-3.432.002-6.878z"/><path fill="#9F2B65" d="M23.017 21.17l-2.466 4.115h4.942z"/></g></g><g transform="translate(83 13)"><use fill="#000" filter="url(#E)" xlink:href="#F"/><use fill="#1E2326" xlink:href="#F"/><use fill-opacity=".3" fill="url(#G)" xlink:href="#F"/></g><path fill="#FFF" d="M160 48.757L164.243 53 160 57.243 155.757 53z"/><path d="M14.667.77l8.88 5.127a2.667 2.667 0 0 1 1.333 2.31V18.46c0 .953-.508 1.833-1.333 2.31l-8.88 5.127a2.667 2.667 0 0 1-2.667 0L3.12 20.77a2.667 2.667 0 0 1-1.334-2.31V8.206c0-.952.509-1.833 1.334-2.31L12 .77a2.667 2.667 0 0 1 2.667 0z" fill="url(#H)" fill-rule="nonzero" transform="translate(93 19.667)"/><path d="M109.132 37.278c-.784.283-1.511.176-1.834.133-.16-.02-.43-.07-.717-.13l-.476 1.78-1.095-.294.469-1.75-.834-.223-.469 1.75-1.094-.294.469-1.75-2.154-.576.577-1.255.655.175c.22.06.317.064.433.001.115-.062.171-.19.2-.297l1.214-4.53c.076-.283.073-.366-.018-.547-.091-.18-.393-.282-.566-.328l-.633-.17.305-1.137 2.153.577.47-1.754 1.095.293-.47 1.755.834.223.47-1.754 1.095.293-.476 1.775c.802.27 1.368.588 1.793 1.122.55.69.279 1.56.207 1.766-.071.205-.272.585-.526.796-.254.212-.774.352-.774.352s.502.255.8.637c.298.381.441.951.231 1.673-.21.723-.551 1.404-1.334 1.688zm-2.272-3.8c-.532-.18-1.238-.331-1.238-.331l-.629 2.348s.722.21 1.218.304c.495.094 1.03.106 1.317.035.288-.071.647-.205.791-.742.144-.537-.154-.858-.33-1.015-.178-.157-.596-.417-1.129-.599zm-.035-1.177c.403.092.852.113 1.204.027.352-.087.597-.306.694-.708.097-.402-.079-.81-.492-1.07-.413-.258-.712-.35-1.053-.446-.342-.097-.698-.16-.698-.16l-.566 2.113s.508.153.91.244z" fill="#FFF"/><path d="M130.437 31.333v-6.635h2.17c.72 0 1.26.149 1.624.447.363.297.544.738.544 1.321 0 .31-.088.584-.264.823a1.714 1.714 0 0 1-.72.553c.359.1.642.291.85.572.208.281.312.616.312 1.005 0 .596-.193 1.064-.579 1.404-.386.34-.93.51-1.636.51h-2.301zm.875-3.103v2.388h1.445c.407 0 .728-.106.963-.317.236-.211.354-.502.354-.873 0-.799-.435-1.198-1.304-1.198h-1.458zm0-.702h1.321c.383 0 .69-.096.919-.287.23-.192.344-.451.344-.78 0-.364-.107-.63-.32-.795-.212-.165-.535-.248-.97-.248h-1.294v2.11zm5.72 3.805h-.844v-4.93h.843v4.93zm-.912-6.239c0-.136.042-.252.125-.346.084-.094.207-.141.372-.141.164 0 .288.047.373.141.085.094.128.21.128.346 0 .137-.043.251-.128.342-.085.091-.21.137-.373.137-.165 0-.288-.046-.372-.137a.487.487 0 0 1-.125-.342zm3.404.114v1.194h.92v.652h-.92v3.058c0 .197.041.346.123.444.082.1.222.148.42.148.097 0 .23-.018.4-.054v.683c-.221.061-.437.091-.647.091-.376 0-.66-.113-.852-.341-.191-.228-.287-.552-.287-.971v-3.058h-.898v-.652h.898v-1.194h.843zm3.883 5.528c.3 0 .563-.09.788-.273a.962.962 0 0 0 .374-.684h.798a1.529 1.529 0 0 1-.292.807c-.18.255-.419.459-.718.61-.3.153-.616.228-.95.228-.672 0-1.206-.224-1.602-.672-.396-.448-.595-1.06-.595-1.839v-.14c0-.48.088-.908.265-1.281.176-.374.429-.664.758-.87.33-.208.72-.31 1.17-.31.552 0 1.012.165 1.378.496.366.331.561.761.586 1.29h-.798a1.162 1.162 0 0 0-.362-.786 1.127 1.127 0 0 0-.805-.308c-.428 0-.76.154-.995.462-.236.309-.354.755-.354 1.338v.16c0 .568.117 1.005.351 1.312.234.307.568.46 1.003.46zm2.684-1.914c0-.483.095-.917.285-1.303.19-.386.454-.684.793-.893.339-.21.725-.315 1.16-.315.671 0 1.214.233 1.629.697.415.465.622 1.084.622 1.855v.06c0 .48-.092.91-.276 1.292a2.094 2.094 0 0 1-.788.89 2.183 2.183 0 0 1-1.178.32c-.669 0-1.21-.233-1.625-.698-.414-.465-.622-1.08-.622-1.845v-.06zm.848.1c0 .547.127.986.38 1.318.254.33.594.496 1.019.496a1.21 1.21 0 0 0 1.02-.503c.253-.336.379-.806.379-1.41 0-.542-.128-.98-.385-1.316a1.224 1.224 0 0 0-1.023-.503 1.21 1.21 0 0 0-1.007.497c-.256.33-.383.805-.383 1.422zm5.614 2.411h-.843v-4.93h.843v4.93zm-.911-6.239c0-.136.042-.252.125-.346.084-.094.208-.141.372-.141s.288.047.373.141c.085.094.128.21.128.346 0 .137-.043.251-.128.342-.085.091-.21.137-.373.137-.164 0-.288-.046-.372-.137a.487.487 0 0 1-.125-.342zm3.058 1.308l.027.62c.377-.474.87-.71 1.477-.71 1.042 0 1.567.587 1.577 1.763v3.258h-.844V28.07c-.003-.355-.084-.618-.243-.788-.16-.17-.408-.255-.745-.255-.274 0-.514.073-.72.218a1.485 1.485 0 0 0-.484.575v3.513h-.843v-4.93h.798z" fill="#FFF" fill-rule="nonzero"/><path d="M130.327 42.667v-5.688h1.86c.616 0 1.08.128 1.392.383.311.255.467.633.467 1.133 0 .265-.076.5-.227.705a1.469 1.469 0 0 1-.617.474c.307.086.55.25.728.49.179.242.268.529.268.862 0 .51-.165.911-.496 1.203-.33.292-.798.438-1.403.438h-1.972zm.75-2.66v2.046h1.238c.35 0 .624-.09.826-.271.202-.181.303-.43.303-.748 0-.685-.372-1.027-1.117-1.027h-1.25zm0-.602h1.133c.328 0 .59-.082.787-.246.196-.164.295-.387.295-.668 0-.313-.091-.54-.274-.682-.182-.142-.46-.213-.832-.213h-1.11v1.809zm8.16-1.809h-1.828v5.07h-.746v-5.07h-1.824v-.617h4.398v.617zm5.027 3.266c-.07.602-.292 1.066-.666 1.393-.373.326-.87.49-1.49.49-.672 0-1.21-.241-1.615-.723s-.608-1.126-.608-1.933v-.547c0-.529.095-.994.284-1.395.188-.4.456-.709.802-.924a2.235 2.235 0 0 1 1.203-.322c.605 0 1.089.169 1.454.506.364.337.576.804.636 1.4h-.754c-.065-.453-.206-.781-.423-.984-.218-.203-.522-.305-.913-.305-.479 0-.854.177-1.126.531-.273.355-.409.859-.409 1.512v.551c0 .617.13 1.108.387 1.473.258.364.619.547 1.082.547.417 0 .736-.095.96-.284.222-.188.37-.517.442-.986h.754z" fill="#FFF" fill-rule="nonzero" opacity=".4"/></g></svg>