<svg width="1248" height="578" xmlns="http://www.w3.org/2000/svg" xmlns:xlink="http://www.w3.org/1999/xlink"><defs><linearGradient x1="100%" y1="33.241%" x2="0%" y2="66.759%" id="a"><stop stop-color="#ED6200" offset="0%"/><stop stop-color="#FFAF16" offset="100%"/></linearGradient><linearGradient x1="80.048%" y1="44.724%" x2="0%" y2="73.633%" id="b"><stop stop-color="#249C77" offset="0%"/><stop stop-color="#ED6200" offset="100%"/></linearGradient><linearGradient x1="0%" y1="0%" x2="78.811%" y2="0%" id="c"><stop stop-color="#FFAF17" offset="0%"/><stop stop-color="#4F4B6B" offset="100%"/></linearGradient><linearGradient x1="0%" y1="0%" x2="100%" y2="0%" id="d"><stop stop-color="#4F4B6B" offset="0%"/><stop stop-color="#F6F6F6" offset="100%"/></linearGradient><linearGradient x1="77.235%" y1="47.811%" x2="0%" y2="66.759%" id="e"><stop stop-color="#84267F" offset="0%"/><stop stop-color="#FFAF16" offset="100%"/></linearGradient><linearGradient x1="72.975%" y1="50.263%" x2="0%" y2="49.598%" id="f"><stop stop-color="#83B63E" offset="0%"/><stop stop-color="#ED6200" offset="100%"/></linearGradient><linearGradient x1="100%" y1="26.367%" x2="0%" y2="73.633%" id="g"><stop stop-color="#23B3F5" offset="0%"/><stop stop-color="#84267F" offset="100%"/></linearGradient><linearGradient x1="100%" y1="0%" x2="0%" y2="0%" id="h"><stop stop-color="#0E9DD4" offset="0%"/><stop stop-color="#A72D5C" offset="100%"/></linearGradient><linearGradient x1="0%" y1="50%" x2="67.128%" y2="50%" id="k"><stop stop-color="#FFB31A" offset="0%"/><stop stop-color="#1A1C1F" stop-opacity="0" offset="100%"/></linearGradient><rect id="j" x="0" y="0" width="230" height="60" rx="4"/><filter x="-29.6%" y="-81.7%" width="159.1%" height="326.7%" filterUnits="objectBoundingBox" id="i"><feOffset dy="19" in="SourceAlpha" result="shadowOffsetOuter1"/><feGaussianBlur stdDeviation="19.5" in="shadowOffsetOuter1" result="shadowBlurOuter1"/><feColorMatrix values="0 0 0 0 0 0 0 0 0 0 0 0 0 0 0 0 0 0 0.45 0" in="shadowBlurOuter1"/></filter><linearGradient x1="91.762%" y1="69.532%" x2="4.905%" y2="24.223%" id="l"><stop stop-color="#FF9400" offset="0%"/><stop stop-color="#FFBB21" offset="100%"/></linearGradient><linearGradient x1="0%" y1="50%" x2="67.128%" y2="50%" id="o"><stop stop-color="#249C77" offset="0%"/><stop stop-color="#1A1C1F" stop-opacity="0" offset="100%"/></linearGradient><rect id="n" x="4" y="0" width="230" height="60" rx="4"/><filter x="-29.6%" y="-81.7%" width="159.1%" height="326.7%" filterUnits="objectBoundingBox" id="m"><feOffset dy="19" in="SourceAlpha" result="shadowOffsetOuter1"/><feGaussianBlur stdDeviation="19.5" in="shadowOffsetOuter1" result="shadowBlurOuter1"/><feColorMatrix values="0 0 0 0 0 0 0 0 0 0 0 0 0 0 0 0 0 0 0.45 0" in="shadowBlurOuter1"/></filter><linearGradient x1="80.848%" y1="99.962%" x2="18.996%" y2=".038%" id="p"><stop stop-color="#1D8062" offset="0%"/><stop stop-color="#25A17B" offset="100%"/></linearGradient><linearGradient x1="0%" y1="50%" x2="70.497%" y2="50%" id="s"><stop stop-color="#9C2B67" offset="0%"/><stop stop-color="#1A1C1F" stop-opacity="0" offset="100%"/></linearGradient><rect id="r" x="4" y="0" width="230" height="60" rx="4"/><filter x="-29.6%" y="-81.7%" width="159.1%" height="326.7%" filterUnits="objectBoundingBox" id="q"><feOffset dy="19" in="SourceAlpha" result="shadowOffsetOuter1"/><feGaussianBlur stdDeviation="19.5" in="shadowOffsetOuter1" result="shadowBlurOuter1"/><feColorMatrix values="0 0 0 0 0 0 0 0 0 0 0 0 0 0 0 0 0 0 0.45 0" in="shadowBlurOuter1"/></filter><linearGradient x1="22.33%" y1="-12.223%" x2="98.874%" y2="152.777%" id="t"><stop stop-color="#6F2396" offset="0%"/><stop stop-color="#FF3B00" offset="100%"/></linearGradient><linearGradient x1="0%" y1="50%" x2="70.497%" y2="50%" id="w"><stop stop-color="#20B9F6" offset="0%"/><stop stop-color="#1A1C1F" stop-opacity="0" offset="100%"/></linearGradient><rect id="v" x="4" y="0" width="230" height="60" rx="4"/><filter x="-29.6%" y="-81.7%" width="159.1%" height="326.7%" filterUnits="objectBoundingBox" id="u"><feOffset dy="19" in="SourceAlpha" result="shadowOffsetOuter1"/><feGaussianBlur stdDeviation="19.5" in="shadowOffsetOuter1" result="shadowBlurOuter1"/><feColorMatrix values="0 0 0 0 0 0 0 0 0 0 0 0 0 0 0 0 0 0 0.45 0" in="shadowBlurOuter1"/></filter><linearGradient x1="0%" y1="0%" x2="102%" y2="101%" id="x"><stop stop-color="#12CEF7" offset="0%"/><stop stop-color="#5766F2" offset="100%"/></linearGradient><linearGradient x1="0%" y1="50%" x2="70.497%" y2="50%" id="A"><stop stop-color="#81B43D" offset="0%"/><stop stop-color="#1A1C1F" stop-opacity="0" offset="100%"/></linearGradient><rect id="z" x="4" y="0" width="230" height="60" rx="4"/><filter x="-29.6%" y="-81.7%" width="159.1%" height="326.7%" filterUnits="objectBoundingBox" id="y"><feOffset dy="19" in="SourceAlpha" result="shadowOffsetOuter1"/><feGaussianBlur stdDeviation="19.5" in="shadowOffsetOuter1" result="shadowBlurOuter1"/><feColorMatrix values="0 0 0 0 0 0 0 0 0 0 0 0 0 0 0 0 0 0 0.45 0" in="shadowBlurOuter1"/></filter><linearGradient x1="80.928%" y1="99.962%" x2="22.248%" y2=".038%" id="B"><stop stop-color="#568525" offset="0%"/><stop stop-color="#8ABE42" offset="100%"/></linearGradient><linearGradient x1="0%" y1="50%" x2="70.497%" y2="50%" id="E"><stop stop-color="#EB6200" offset="0%"/><stop stop-color="#1A1C1F" stop-opacity="0" offset="100%"/></linearGradient><rect id="D" x="4" y="0" width="230" height="60" rx="4"/><filter x="-29.6%" y="-81.7%" width="159.1%" height="326.7%" filterUnits="objectBoundingBox" id="C"><feOffset dy="19" in="SourceAlpha" result="shadowOffsetOuter1"/><feGaussianBlur stdDeviation="19.5" in="shadowOffsetOuter1" result="shadowBlurOuter1"/><feColorMatrix values="0 0 0 0 0 0 0 0 0 0 0 0 0 0 0 0 0 0 0.45 0" in="shadowBlurOuter1"/></filter><linearGradient x1="22.33%" y1="-12.223%" x2="98.874%" y2="152.777%" id="F"><stop stop-color="#FA6800" offset="0%"/><stop stop-color="#9B4202" offset="100%"/></linearGradient><linearGradient x1="0%" y1="50%" x2="70.497%" y2="50%" id="I"><stop stop-color="#F6F6F6" offset="0%"/><stop stop-color="#1A1C1F" stop-opacity="0" offset="100%"/></linearGradient><rect id="H" x="4" y="0" width="230" height="60" rx="4"/><filter x="-29.6%" y="-81.7%" width="159.1%" height="326.7%" filterUnits="objectBoundingBox" id="G"><feOffset dy="19" in="SourceAlpha" result="shadowOffsetOuter1"/><feGaussianBlur stdDeviation="19.5" in="shadowOffsetOuter1" result="shadowBlurOuter1"/><feColorMatrix values="0 0 0 0 0 0 0 0 0 0 0 0 0 0 0 0 0 0 0.45 0" in="shadowBlurOuter1"/></filter><linearGradient x1="19.031%" y1="-66.682%" x2="123.324%" y2="91.487%" id="J"><stop stop-color="#FFF" offset="0%"/><stop stop-color="#EAEAEA" offset="100%"/></linearGradient><linearGradient x1="0%" y1="50%" x2="70.497%" y2="50%" id="M"><stop stop-color="#4E496A" offset="0%"/><stop stop-color="#1A1C1F" stop-opacity="0" offset="100%"/></linearGradient><rect id="L" x="4" y="0" width="230" height="60" rx="4"/><filter x="-29.6%" y="-81.7%" width="159.1%" height="326.7%" filterUnits="objectBoundingBox" id="K"><feOffset dy="19" in="SourceAlpha" result="shadowOffsetOuter1"/><feGaussianBlur stdDeviation="19.5" in="shadowOffsetOuter1" result="shadowBlurOuter1"/><feColorMatrix values="0 0 0 0 0 0 0 0 0 0 0 0 0 0 0 0 0 0 0.45 0" in="shadowBlurOuter1"/></filter><linearGradient x1="19.299%" y1="-44.859%" x2="84.229%" y2="155.311%" id="N"><stop stop-color="#171C30" offset="0%"/><stop stop-color="#5A63B8" offset="100%"/></linearGradient><linearGradient x1="0%" y1="50%" x2="70.497%" y2="50%" id="Q"><stop stop-color="#0E9DD4" offset="0%"/><stop stop-color="#1A1C1F" stop-opacity="0" offset="100%"/></linearGradient><rect id="P" x="4" y="0" width="230" height="60" rx="4"/><filter x="-29.6%" y="-81.7%" width="159.1%" height="326.7%" filterUnits="objectBoundingBox" id="O"><feOffset dy="19" in="SourceAlpha" result="shadowOffsetOuter1"/><feGaussianBlur stdDeviation="19.5" in="shadowOffsetOuter1" result="shadowBlurOuter1"/><feColorMatrix values="0 0 0 0 0 0 0 0 0 0 0 0 0 0 0 0 0 0 0.45 0" in="shadowBlurOuter1"/></filter><linearGradient x1="0%" y1=".038%" x2="104.002%" y2="143.515%" id="R"><stop stop-color="#11AAE2" offset="0%"/><stop stop-color="#016197" offset="100%"/></linearGradient></defs><g fill="none" fill-rule="evenodd"><path d="M0 221c82.667-7.333 146-44 190-110" stroke="url(#a)" stroke-width="2" transform="translate(269 49)"/><path d="M420 111c62.667-7.333 116-44 160-110" stroke="url(#b)" stroke-width="2" transform="translate(269 49)"/><path d="M0 222c80 41.617 160 41.617 240 0" stroke="url(#c)" stroke-width="2" transform="translate(269 49)"/><path d="M470 206.606c57.688 20.809 137.688 20.809 240 0" stroke="url(#d)" stroke-width="2" transform="matrix(1 0 0 -1 269 477.82)"/><path d="M0 331c82.667-7.333 146-44 190-110" stroke="url(#e)" stroke-width="2" transform="matrix(1 0 0 -1 269 601)"/><path d="M420 111c90 28.695 170 28.695 240 0" stroke="url(#f)" stroke-width="2" transform="translate(269 49)"/><path d="M420 441c62.667-7.333 116-44 160-110" stroke="url(#g)" stroke-width="2" transform="matrix(1 0 0 -1 269 821)"/><path d="M420 309.479c90 28.695 170 28.695 240 0" stroke="url(#h)" stroke-width="2" transform="matrix(1 0 0 -1 269 689.479)"/><path d="M269 268.683c327.42 30.021 520.753-42.913 580-218.804M739 271.707C802.333 326.785 839 399.549 849 490M689 161c124.667-20 221.333 16.902 290 110.707M929 159.345c-33.014 101.332-113.014 174.931-240 220.799" stroke="#FFF" opacity=".2" stroke-dasharray="3,4"/><g><g transform="translate(39 240)"><use fill="#000" filter="url(#i)" xlink:href="#j"/><use fill="#1E2326" xlink:href="#j"/><use fill-opacity=".3" fill="url(#k)" xlink:href="#j"/></g><path d="M22 1.155l13.32 7.69a4 4 0 0 1 2 3.464v15.382a4 4 0 0 1-2 3.464L22 38.845a4 4 0 0 1-4 0l-13.32-7.69a4 4 0 0 1-2-3.464V12.309a4 4 0 0 1 2-3.464L18 1.155a4 4 0 0 1 4 0z" fill="url(#l)" fill-rule="nonzero" transform="translate(54 250)"/><path d="M78.198 276.417c-1.176.425-2.267.264-2.752.2-.239-.031-.643-.105-1.074-.194l-.715 2.667-1.642-.44.703-2.624-1.25-.335-.703 2.624-1.642-.44.703-2.624-3.23-.866.866-1.882.982.264c.33.088.476.094.649.001.173-.094.257-.285.3-.446l1.82-6.794c.115-.426.111-.55-.026-.821-.137-.272-.59-.424-.849-.493l-.949-.255.457-1.704 3.23.865.705-2.632 1.642.44-.705 2.632 1.25.335.706-2.632 1.642.44-.714 2.664c1.204.404 2.053.881 2.69 1.682.825 1.035.418 2.34.31 2.649-.107.308-.407.877-.788 1.194-.381.318-1.161.528-1.161.528s.752.383 1.2.955c.446.572.662 1.427.346 2.51-.314 1.084-.827 2.106-2.001 2.532zm-3.408-5.7c-.799-.271-1.856-.497-1.856-.497l-.944 3.522s1.083.315 1.827.457c.743.141 1.544.159 1.976.052.43-.107.97-.308 1.186-1.113.216-.806-.23-1.287-.497-1.523-.265-.236-.893-.626-1.692-.897zm-.053-1.765c.605.137 1.279.17 1.807.04s.896-.46 1.041-1.062c.145-.602-.118-1.216-.738-1.604-.62-.388-1.068-.525-1.58-.67-.512-.145-1.046-.24-1.046-.24l-.85 3.17s.762.228 1.366.366z" fill="#FFF"/><path d="M110.155 267v-9.953h3.254c1.08 0 1.893.223 2.437.67.545.446.817 1.107.817 1.982 0 .465-.132.876-.396 1.234a2.57 2.57 0 0 1-1.08.83c.537.151.962.437 1.274.859.313.421.469.924.469 1.507 0 .893-.29 1.595-.868 2.105-.58.51-1.397.766-2.455.766h-3.452zm1.313-4.655v3.582h2.167c.61 0 1.092-.159 1.446-.475.353-.317.53-.753.53-1.31 0-1.198-.652-1.797-1.956-1.797h-2.187zm0-1.053h1.982c.574 0 1.034-.144 1.378-.43.344-.288.516-.677.516-1.17 0-.546-.16-.944-.479-1.192-.319-.249-.804-.373-1.456-.373h-1.941v3.165zm8.579 5.708h-1.265v-7.396h1.265V267zm-1.367-9.358c0-.205.062-.379.188-.52.125-.141.31-.212.557-.212.246 0 .433.07.56.212a.747.747 0 0 1 .192.52.722.722 0 0 1-.192.512c-.127.137-.314.205-.56.205-.246 0-.432-.068-.557-.205a.73.73 0 0 1-.188-.512zm5.106.17v1.792h1.381v.977h-1.38v4.587c0 .296.06.518.184.666.123.149.332.223.629.223.145 0 .346-.028.601-.082V267a3.666 3.666 0 0 1-.97.137c-.566 0-.992-.171-1.279-.513-.287-.342-.43-.827-.43-1.456v-4.587h-1.347v-.977h1.346v-1.792h1.265zm5.824 8.292c.452 0 .846-.136 1.183-.41.337-.273.524-.615.56-1.025h1.197a2.293 2.293 0 0 1-.438 1.21 2.881 2.881 0 0 1-1.076.916 3.107 3.107 0 0 1-1.426.342c-1.007 0-1.808-.336-2.402-1.009-.595-.672-.893-1.591-.893-2.758v-.212c0-.72.133-1.36.397-1.92a3.02 3.02 0 0 1 1.138-1.306c.495-.31 1.079-.465 1.754-.465.829 0 1.518.248 2.067.745.55.497.842 1.142.879 1.934h-1.196c-.037-.478-.218-.871-.544-1.179-.326-.307-.728-.461-1.206-.461-.643 0-1.14.231-1.494.694-.353.462-.53 1.131-.53 2.006v.24c0 .852.176 1.508.526 1.968.351.46.853.69 1.504.69zm4.027-2.87c0-.725.142-1.377.427-1.956a3.187 3.187 0 0 1 1.19-1.34c.508-.314 1.087-.471 1.74-.471 1.006 0 1.82.348 2.443 1.046.622.697.933 1.624.933 2.782v.089c0 .72-.138 1.366-.413 1.938a3.14 3.14 0 0 1-1.183 1.336c-.513.32-1.102.479-1.767.479-1.003 0-1.815-.349-2.437-1.046-.622-.697-.933-1.62-.933-2.769v-.089zm1.271.15c0 .82.19 1.479.571 1.975.38.497.89.745 1.528.745.642 0 1.153-.251 1.531-.755.378-.503.567-1.209.567-2.116 0-.81-.192-1.468-.577-1.972-.385-.503-.897-.755-1.535-.755-.624 0-1.128.248-1.51.745-.383.497-.575 1.208-.575 2.133zM143.33 267h-1.265v-7.396h1.265V267zm-1.367-9.358c0-.205.063-.379.188-.52.125-.141.31-.212.557-.212.246 0 .433.07.56.212a.747.747 0 0 1 .192.52.722.722 0 0 1-.191.512c-.128.137-.315.205-.561.205-.246 0-.432-.068-.557-.205a.73.73 0 0 1-.188-.512zm4.587 1.962l.04.93c.566-.712 1.304-1.067 2.216-1.067 1.563 0 2.351.882 2.365 2.645V267h-1.265v-4.895c-.004-.533-.126-.927-.365-1.182-.24-.255-.612-.383-1.118-.383-.41 0-.77.11-1.08.328-.31.219-.552.506-.725.861V267h-1.264v-7.396h1.196z" fill="#FFF" fill-rule="nonzero"/><path d="M109.99 285v-8.531h2.79c.925 0 1.621.191 2.088.574.467.383.7.95.7 1.7 0 .398-.113.75-.34 1.057a2.203 2.203 0 0 1-.925.712c.46.129.825.374 1.093.735.267.361.4.792.4 1.292 0 .766-.247 1.367-.743 1.805-.496.437-1.198.656-2.104.656h-2.959zm1.125-3.99v3.07h1.858c.523 0 .936-.136 1.239-.407.303-.272.454-.646.454-1.122 0-1.028-.559-1.541-1.676-1.541h-1.875zm0-.903h1.7c.492 0 .885-.123 1.18-.369.295-.246.442-.58.442-1.002 0-.468-.136-.81-.41-1.022-.273-.213-.69-.32-1.248-.32h-1.664v2.713zm12.24-2.712h-2.742V285h-1.119v-7.605h-2.736v-.926h6.597v.926zm7.541 4.898c-.105.902-.438 1.599-.999 2.089-.56.49-1.305.735-2.235.735-1.008 0-1.815-.361-2.423-1.084-.607-.722-.91-1.69-.91-2.9v-.82c0-.793.14-1.49.424-2.092.283-.602.684-1.064 1.204-1.386.52-.322 1.121-.483 1.805-.483.906 0 1.633.252 2.18.758.546.506.865 1.206.954 2.1h-1.13c-.098-.679-.31-1.17-.636-1.476-.326-.304-.782-.457-1.368-.457-.719 0-1.283.266-1.69.797-.409.531-.613 1.287-.613 2.268v.826c0 .926.193 1.662.58 2.209.387.547.928.82 1.623.82.625 0 1.105-.141 1.439-.425.334-.283.555-.776.665-1.479h1.13z" fill="#FFF" fill-rule="nonzero" opacity=".4"/><path fill="#FFF" d="M269 264.343l5.657 5.657-5.657 5.657-5.657-5.657z"/></g><g transform="translate(845 20)"><use fill="#000" filter="url(#m)" xlink:href="#n"/><use fill="#1E2326" xlink:href="#n"/><use fill-opacity=".35" fill="url(#o)" xlink:href="#n"/><circle fill="#FFF" cx="4" cy="30" r="4"/><path d="M22 1.154l13.32 7.688a4 4 0 0 1 2 3.464V27.68a4 4 0 0 1-2 3.464L22 38.831a4 4 0 0 1-4 0L4.68 31.143a4 4 0 0 1-2-3.464V12.306a4 4 0 0 1 2-3.464L18 1.154a4 4 0 0 1 4 0z" fill="url(#p)" transform="translate(19 10)"/><path d="M40.626 27.897v-2.021h4.484v-3.08H32.9v3.08h4.485v2.02c-3.645.172-6.385.917-6.385 1.808 0 .892 2.742 1.636 6.385 1.81v6.475h3.242v-6.476C44.265 31.34 47 30.596 47 29.705c0-.89-2.735-1.634-6.373-1.807m0 3.066v-.001a25.81 25.81 0 0 1-1.608.035c-.836 0-1.425-.025-1.633-.036v.003c-3.22-.147-5.623-.725-5.623-1.417 0-.692 2.404-1.269 5.623-1.416v2.257c.211.015.814.052 1.647.052 1 0 1.503-.043 1.595-.052v-2.257c3.213.147 5.611.726 5.611 1.415 0 .69-2.399 1.269-5.611 1.416M82.032 18.127h-3.199V27h-1.306v-8.873h-3.192v-1.08h7.697v1.08zm3.671 9.01c-1.002 0-1.818-.33-2.447-.988-.63-.659-.944-1.54-.944-2.642v-.233c0-.733.14-1.388.42-1.965a3.28 3.28 0 0 1 1.177-1.353 2.956 2.956 0 0 1 1.637-.49c.961 0 1.709.318 2.242.951.533.633.8 1.54.8 2.72v.527h-5.01c.017.73.23 1.318.638 1.767.408.449.927.673 1.555.673.447 0 .825-.09 1.135-.273.31-.182.581-.424.814-.725l.772.602c-.62.952-1.55 1.429-2.789 1.429zm-.157-6.631c-.51 0-.939.186-1.285.557-.347.371-.56.892-.643 1.562h3.705v-.096c-.036-.642-.21-1.14-.52-1.493-.31-.354-.728-.53-1.257-.53zm6.22-2.694v1.792h1.381v.977h-1.38v4.587c0 .296.061.518.184.666.123.149.333.223.63.223.145 0 .345-.028.6-.082V27a3.666 3.666 0 0 1-.97.137c-.565 0-.991-.171-1.278-.513-.287-.342-.431-.827-.431-1.456v-4.587h-1.347v-.977h1.347v-1.791h1.265zM95.89 20.5c.56-.688 1.29-1.032 2.187-1.032 1.563 0 2.352.882 2.365 2.645V27h-1.264v-4.895c-.005-.533-.127-.927-.366-1.182-.24-.255-.612-.383-1.118-.383-.41 0-.77.11-1.08.328-.31.219-.551.506-.724.861V27h-1.265V16.5h1.265v3.999zm9.515 6.638c-1.002 0-1.818-.33-2.447-.988-.629-.659-.943-1.54-.943-2.642v-.233c0-.733.14-1.388.42-1.965a3.28 3.28 0 0 1 1.176-1.353 2.956 2.956 0 0 1 1.637-.49c.962 0 1.71.318 2.242.951.533.633.8 1.54.8 2.72v.527h-5.01c.018.73.23 1.318.638 1.767.408.449.927.673 1.556.673.446 0 .825-.09 1.134-.273.31-.182.581-.424.814-.725l.772.602c-.62.952-1.55 1.429-2.789 1.429zm-.157-6.631c-.51 0-.939.186-1.285.557-.346.371-.56.892-.643 1.562h3.705v-.096c-.036-.642-.21-1.14-.52-1.493-.309-.354-.728-.53-1.257-.53zm8.08.232a3.79 3.79 0 0 0-.622-.048c-.83 0-1.392.354-1.688 1.06V27h-1.265v-7.396h1.23l.02.854c.416-.66 1.004-.991 1.765-.991.246 0 .433.032.56.096v1.175z" fill="#FFF" fill-rule="nonzero"/><path d="M80.996 36.469v5.8c-.004.805-.257 1.463-.759 1.975s-1.182.799-2.042.861l-.299.012c-.933 0-1.677-.252-2.232-.756-.555-.504-.836-1.197-.844-2.08V36.47h1.114v5.777c0 .617.17 1.097.51 1.439.34.341.824.512 1.452.512.637 0 1.125-.17 1.462-.51.338-.34.507-.818.507-1.435v-5.783h1.131zm4.29 4.728c-.966-.277-1.668-.618-2.107-1.022a1.954 1.954 0 0 1-.66-1.497c0-.672.27-1.228.806-1.667.537-.44 1.236-.66 2.095-.66.586 0 1.108.114 1.567.34.46.227.815.54 1.067.938.252.398.378.834.378 1.307H87.3c0-.516-.164-.921-.492-1.216-.329-.295-.791-.443-1.39-.443-.554 0-.986.122-1.297.367-.31.244-.466.583-.466 1.016 0 .348.148.642.443.882.295.24.797.46 1.505.66.71.198 1.264.418 1.665.658.4.24.697.52.89.841.194.32.29.697.29 1.131 0 .691-.27 1.245-.808 1.661-.54.416-1.26.624-2.162.624a4.01 4.01 0 0 1-1.641-.337c-.508-.224-.9-.532-1.175-.923a2.252 2.252 0 0 1-.413-1.33h1.13c0 .516.191.923.572 1.222.381.299.89.448 1.527.448.593 0 1.048-.12 1.365-.363.316-.242.474-.572.474-.99 0-.418-.146-.741-.44-.97-.292-.228-.823-.454-1.593-.677zM89.89 45v-8.531h2.408c.742 0 1.398.164 1.969.492.57.328 1.01.795 1.32 1.4.311.606.469 1.301.473 2.086v.545c0 .805-.156 1.51-.466 2.115a3.277 3.277 0 0 1-1.33 1.395c-.577.324-1.247.49-2.013.498h-2.361zm1.125-7.605v6.685h1.183c.867 0 1.542-.27 2.025-.809.482-.539.723-1.306.723-2.302v-.498c0-.97-.227-1.722-.682-2.26-.455-.536-1.1-.809-1.937-.816h-1.312zm12.638 0h-2.742V45h-1.119v-7.605h-2.736v-.926h6.597v.926z" fill="#FFF" fill-rule="nonzero" opacity=".4"/></g><g transform="translate(455 350)"><use fill="#000" filter="url(#q)" xlink:href="#r"/><use fill="#1E2326" xlink:href="#r"/><use fill-opacity=".3" fill="url(#s)" xlink:href="#r"/><path fill="#FFF" d="M234 24.343L239.657 30 234 35.657 228.343 30z"/><circle fill="#FFF" cx="4" cy="30" r="4"/><path d="M75.155 26v-9.953h3.254c1.08 0 1.893.223 2.437.67.545.446.817 1.107.817 1.982 0 .465-.132.876-.396 1.234a2.57 2.57 0 0 1-1.08.83c.537.151.962.437 1.274.859.313.421.469.924.469 1.507 0 .893-.29 1.595-.868 2.105-.58.51-1.397.766-2.455.766h-3.452zm1.313-4.655v3.582h2.167c.61 0 1.092-.159 1.446-.475.353-.317.53-.753.53-1.31 0-1.198-.652-1.797-1.956-1.797h-2.187zm0-1.053h1.982c.574 0 1.034-.144 1.378-.43.344-.288.516-.677.516-1.17 0-.546-.16-.944-.479-1.192-.319-.249-.804-.373-1.456-.373h-1.941v3.165zM88.239 26c-.073-.146-.132-.406-.177-.78-.588.611-1.29.917-2.106.917-.73 0-1.327-.206-1.794-.619a2.002 2.002 0 0 1-.701-1.569c0-.77.293-1.368.878-1.794.586-.426 1.41-.64 2.472-.64h1.23v-.58c0-.442-.132-.795-.396-1.057-.265-.262-.654-.393-1.17-.393-.45 0-.829.114-1.134.342-.306.228-.458.504-.458.827H83.61c0-.369.131-.725.393-1.07a2.683 2.683 0 0 1 1.067-.816c.449-.2.942-.301 1.48-.301.852 0 1.52.213 2.003.639.483.426.733 1.013.752 1.76v3.405c0 .679.086 1.219.26 1.62V26h-1.327zm-2.098-.964c.396 0 .772-.102 1.128-.307a1.86 1.86 0 0 0 .772-.8V22.41h-.991c-1.55 0-2.324.454-2.324 1.36 0 .397.132.707.396.93.264.223.604.335 1.019.335zm9.454-.998c0-.342-.129-.607-.387-.796-.257-.19-.706-.352-1.346-.49-.64-.136-1.149-.3-1.525-.491-.376-.192-.654-.42-.834-.684a1.635 1.635 0 0 1-.27-.943c0-.606.257-1.119.77-1.538.512-.42 1.167-.63 1.965-.63.838 0 1.518.217 2.04.65.522.433.783.987.783 1.661H95.52c0-.346-.147-.645-.441-.895-.294-.25-.665-.376-1.111-.376-.46 0-.82.1-1.08.3-.26.201-.39.463-.39.787 0 .305.12.535.362.69.242.155.678.303 1.31.445.63.14 1.142.31 1.534.505.392.196.683.432.872.708.189.276.283.612.283 1.008 0 .661-.264 1.19-.793 1.59-.528.398-1.214.598-2.057.598-.593 0-1.117-.105-1.572-.315a2.557 2.557 0 0 1-1.07-.878 2.117 2.117 0 0 1-.387-1.22h1.265c.023.423.193.76.51 1.008.316.248.734.372 1.254.372.478 0 .862-.096 1.152-.29.289-.194.434-.452.434-.776zM99.88 26h-1.265v-7.396h1.265V26zm-1.367-9.358c0-.205.062-.379.188-.52.125-.141.31-.212.557-.212.246 0 .433.07.56.212a.747.747 0 0 1 .192.52.722.722 0 0 1-.192.512c-.127.137-.314.205-.56.205-.246 0-.432-.068-.557-.205a.73.73 0 0 1-.188-.512zm6.357 8.462c.451 0 .845-.136 1.183-.41.337-.273.524-.615.56-1.025h1.197a2.293 2.293 0 0 1-.438 1.21 2.881 2.881 0 0 1-1.077.916 3.107 3.107 0 0 1-1.425.342c-1.007 0-1.808-.336-2.403-1.009-.594-.672-.892-1.591-.892-2.758v-.212c0-.72.132-1.36.397-1.92a3.02 3.02 0 0 1 1.138-1.306c.494-.31 1.079-.465 1.753-.465.83 0 1.519.248 2.068.745.55.497.842 1.142.879 1.934h-1.197c-.036-.478-.217-.871-.543-1.179-.326-.307-.728-.461-1.207-.461-.642 0-1.14.231-1.493.694-.354.462-.53 1.131-.53 2.006v.24c0 .852.175 1.508.526 1.968.351.46.852.69 1.504.69zm13.522-1.702h-4.17L113.286 26h-1.353l3.8-9.953h1.149L120.689 26h-1.346l-.95-2.598zm-3.774-1.08h3.384l-1.695-4.655-1.689 4.655zm8.812-5.51v1.792h1.38v.977h-1.38v4.587c0 .296.061.518.184.666.123.149.333.223.63.223.145 0 .345-.028.6-.082V26a3.666 3.666 0 0 1-.97.137c-.565 0-.991-.171-1.278-.513-.287-.342-.431-.827-.431-1.456v-4.587h-1.347v-.977h1.347v-1.791h1.265zm4.573 0v1.792h1.38v.977h-1.38v4.587c0 .296.061.518.184.666.124.149.333.223.63.223.145 0 .346-.028.6-.082V26a3.666 3.666 0 0 1-.97.137c-.565 0-.991-.171-1.278-.513-.287-.342-.43-.827-.43-1.456v-4.587h-1.347v-.977h1.346v-1.791h1.265zm5.927 9.325c-1.003 0-1.819-.33-2.448-.988-.629-.659-.943-1.54-.943-2.642v-.233c0-.733.14-1.388.42-1.965a3.28 3.28 0 0 1 1.176-1.353 2.956 2.956 0 0 1 1.637-.49c.962 0 1.71.318 2.243.951.533.633.8 1.54.8 2.72v.527h-5.011c.018.73.231 1.318.639 1.767.408.449.926.673 1.555.673.447 0 .825-.09 1.135-.273.31-.182.58-.424.813-.725l.773.602c-.62.952-1.55 1.429-2.79 1.429zm-.158-6.631c-.51 0-.938.186-1.285.557-.346.371-.56.892-.642 1.562h3.705v-.096c-.037-.642-.21-1.14-.52-1.493-.31-.354-.729-.53-1.258-.53zm5.702-.902l.04.93c.566-.712 1.304-1.067 2.215-1.067 1.564 0 2.352.882 2.366 2.645V26h-1.265v-4.895c-.005-.533-.126-.927-.366-1.182-.239-.255-.611-.383-1.117-.383-.41 0-.77.11-1.08.328-.31.219-.552.506-.725.861V26h-1.265v-7.396h1.197zm8.244-1.791v1.79h1.38v.978h-1.38v4.587c0 .296.061.518.184.666.123.149.333.223.63.223.145 0 .346-.028.6-.082V26a3.666 3.666 0 0 1-.97.137c-.565 0-.991-.171-1.278-.513-.287-.342-.43-.827-.43-1.456v-4.587h-1.348v-.977h1.347v-1.791h1.265zM151.95 26h-1.264v-7.396h1.264V26zm-1.367-9.358c0-.205.063-.379.188-.52.125-.141.311-.212.557-.212.246 0 .433.07.56.212a.747.747 0 0 1 .192.52.722.722 0 0 1-.191.512c-.128.137-.315.205-.56.205-.247 0-.433-.068-.558-.205a.73.73 0 0 1-.188-.512zm3.056 5.591c0-.724.142-1.376.427-1.955a3.187 3.187 0 0 1 1.19-1.34c.508-.314 1.087-.471 1.74-.471 1.006 0 1.82.348 2.443 1.046.622.697.933 1.624.933 2.782v.089c0 .72-.138 1.366-.414 1.938a3.14 3.14 0 0 1-1.182 1.336c-.513.32-1.102.479-1.767.479-1.003 0-1.815-.349-2.437-1.046-.622-.697-.933-1.62-.933-2.769v-.089zm1.271.15c0 .821.19 1.48.571 1.976.38.497.89.745 1.528.745.642 0 1.153-.251 1.531-.755.378-.503.567-1.209.567-2.116 0-.81-.192-1.468-.577-1.972-.385-.503-.897-.755-1.535-.755-.624 0-1.128.248-1.51.745-.383.497-.575 1.208-.575 2.133zm8.244-3.78l.041.93c.565-.71 1.304-1.066 2.215-1.066 1.563 0 2.352.882 2.365 2.645V26h-1.264v-4.895c-.005-.533-.127-.927-.366-1.182-.24-.255-.612-.383-1.118-.383-.41 0-.77.11-1.08.328-.31.219-.551.506-.724.861V26h-1.265v-7.396h1.196zm16.796-1.476h-3.199V26h-1.306v-8.873h-3.192v-1.08h7.697v1.08zm.267 5.106c0-.724.142-1.376.427-1.955a3.187 3.187 0 0 1 1.19-1.34c.508-.314 1.088-.471 1.74-.471 1.006 0 1.821.348 2.443 1.046.622.697.933 1.624.933 2.782v.089c0 .72-.138 1.366-.413 1.938a3.14 3.14 0 0 1-1.183 1.336c-.513.32-1.102.479-1.767.479-1.003 0-1.815-.349-2.437-1.046-.622-.697-.933-1.62-.933-2.769v-.089zm1.271.15c0 .821.19 1.48.571 1.976.38.497.89.745 1.528.745.642 0 1.153-.251 1.531-.755.378-.503.568-1.209.568-2.116 0-.81-.193-1.468-.578-1.972-.385-.503-.897-.755-1.535-.755-.624 0-1.128.248-1.51.745-.383.497-.575 1.208-.575 2.133zm9.113.192l-.793.827V26h-1.265V15.5h1.265v6.35l.676-.813 2.304-2.433h1.538l-2.878 3.09L194.661 26h-1.483l-2.577-3.425zm5.058 2.762c0-.219.065-.401.195-.547.13-.146.325-.219.584-.219.26 0 .457.073.592.219a.776.776 0 0 1 .201.547c0 .21-.067.385-.201.526-.135.142-.332.212-.592.212-.26 0-.454-.07-.584-.212a.748.748 0 0 1-.195-.526z" fill="#FFF" fill-rule="nonzero"/><path d="M74.99 44v-8.531h2.79c.925 0 1.621.191 2.088.574.467.383.7.95.7 1.7 0 .398-.113.75-.34 1.057a2.203 2.203 0 0 1-.925.712c.46.129.825.374 1.093.735.267.361.4.792.4 1.292 0 .766-.247 1.367-.743 1.805-.496.437-1.198.656-2.104.656H74.99zm1.125-3.99v3.07h1.858c.523 0 .936-.136 1.239-.407.303-.272.454-.646.454-1.122 0-1.028-.559-1.541-1.676-1.541h-1.875zm0-.903h1.7c.492 0 .885-.123 1.18-.369.295-.246.442-.58.442-1.002 0-.468-.136-.81-.41-1.022-.273-.213-.69-.32-1.248-.32h-1.664v2.713zm11.057 2.666h-3.574L82.795 44h-1.16l3.258-8.531h.984L89.141 44h-1.155l-.814-2.227zm-3.234-.925h2.9l-1.453-3.99-1.448 3.99zm12.246-4.453H93.44V44h-1.119v-7.605h-2.736v-.926h6.598v.926z" fill="#FFF" fill-rule="nonzero" opacity=".4"/><g fill-rule="nonzero"><path d="M22 1.155l13.32 7.687c1.238.714 2 2.034 2 3.462v15.377a3.998 3.998 0 0 1-2 3.462L22 38.83a4.001 4.001 0 0 1-4 0L4.68 31.143a3.998 3.998 0 0 1-2-3.462V12.304c0-1.428.762-2.748 2-3.462L18 1.155a4.001 4.001 0 0 1 4 0z" fill="url(#t)" transform="translate(19 10)"/><path fill="#C8C8C8" d="M48 36.44l-8.957-5.127L30 36.461z"/><path fill="#E2E2E2" d="M39.046 20.996l-.003 10.317L48 36.44z"/><path fill="#FFF" d="M30 36.461l9.043-5.148.003-10.317z"/><path fill="#9F2B65" d="M39.025 27.254l-3.698 6.174h7.412z"/></g></g><g transform="translate(845 460)"><use fill="#000" filter="url(#u)" xlink:href="#v"/><use fill="#1E2326" xlink:href="#v"/><use fill-opacity=".3" fill="url(#w)" xlink:href="#v"/><circle fill="#FFF" cx="4" cy="30" r="4"/><path d="M75.155 26v-9.953h2.81c.866 0 1.631.191 2.297.574.665.383 1.179.927 1.541 1.634.363.706.546 1.517.55 2.433v.636c0 .939-.18 1.762-.543 2.468a3.823 3.823 0 0 1-1.552 1.627c-.672.378-1.455.572-2.348.581h-2.755zm1.313-8.873v7.8h1.38c1.012 0 1.8-.315 2.362-.944.563-.629.845-1.524.845-2.686v-.581c0-1.13-.266-2.009-.797-2.635-.53-.627-1.284-.945-2.259-.954h-1.531zM88.704 26c-.073-.146-.132-.406-.178-.78-.588.611-1.29.917-2.105.917-.73 0-1.327-.206-1.795-.619a2.002 2.002 0 0 1-.7-1.569c0-.77.293-1.368.878-1.794.586-.426 1.41-.64 2.471-.64h1.23v-.58c0-.442-.131-.795-.396-1.057-.264-.262-.654-.393-1.169-.393-.45 0-.829.114-1.134.342-.306.228-.458.504-.458.827h-1.272c0-.369.131-.725.393-1.07a2.683 2.683 0 0 1 1.067-.816c.449-.2.942-.301 1.48-.301.852 0 1.52.213 2.003.639.483.426.733 1.013.752 1.76v3.405c0 .679.086 1.219.26 1.62V26h-1.327zm-2.099-.964c.397 0 .773-.102 1.128-.307a1.86 1.86 0 0 0 .773-.8V22.41h-.991c-1.55 0-2.325.454-2.325 1.36 0 .397.133.707.397.93.264.223.604.335 1.018.335zm9.455-.998c0-.342-.13-.607-.387-.796-.257-.19-.706-.352-1.346-.49-.64-.136-1.149-.3-1.525-.491-.376-.192-.654-.42-.834-.684a1.635 1.635 0 0 1-.27-.943c0-.606.257-1.119.77-1.538.512-.42 1.167-.63 1.965-.63.838 0 1.518.217 2.04.65.522.433.783.987.783 1.661h-1.272c0-.346-.147-.645-.44-.895-.294-.25-.665-.376-1.111-.376-.46 0-.82.1-1.08.3-.26.201-.39.463-.39.787 0 .305.12.535.362.69.242.155.678.303 1.31.445.63.14 1.142.31 1.534.505.392.196.682.432.872.708.189.276.283.612.283 1.008 0 .661-.264 1.19-.793 1.59-.528.398-1.214.598-2.057.598-.593 0-1.117-.105-1.573-.315a2.557 2.557 0 0 1-1.07-.878 2.117 2.117 0 0 1-.386-1.22h1.265c.023.423.193.76.51 1.008.316.248.734.372 1.254.372.478 0 .862-.096 1.151-.29.29-.194.435-.452.435-.776zm4.176-4.539c.56-.688 1.29-1.032 2.188-1.032 1.563 0 2.351.882 2.365 2.645V26h-1.265v-4.895c-.004-.533-.126-.927-.365-1.182-.24-.255-.612-.383-1.118-.383-.41 0-.77.11-1.08.328-.31.219-.551.506-.725.861V26h-1.264V15.5h1.264v3.999z" fill="#FFF" fill-rule="nonzero"/><path d="M74.99 44v-8.531h2.408c.743 0 1.399.164 1.97.492.57.328 1.01.795 1.32 1.4.311.606.468 1.301.472 2.086v.545c0 .805-.155 1.51-.466 2.115a3.277 3.277 0 0 1-1.33 1.395c-.576.324-1.247.49-2.012.498H74.99zm1.125-7.605v6.685H77.3c.867 0 1.542-.27 2.024-.809.483-.539.724-1.306.724-2.302v-.498c0-.97-.228-1.722-.683-2.26-.455-.536-1.1-.809-1.936-.816h-1.313zm11.455 5.378h-3.574L83.193 44h-1.16l3.258-8.531h.984L89.54 44h-1.154l-.815-2.227zm-3.234-.925h2.9l-1.453-3.99-1.447 3.99zm8.865-.65c-.965-.278-1.667-.619-2.106-1.023a1.954 1.954 0 0 1-.66-1.497c0-.672.27-1.228.806-1.667.537-.44 1.236-.66 2.095-.66.586 0 1.108.114 1.567.34.46.227.815.54 1.067.938.252.398.378.834.378 1.307h-1.131c0-.516-.164-.921-.492-1.216-.329-.295-.791-.443-1.39-.443-.554 0-.986.122-1.297.367-.31.244-.466.583-.466 1.016 0 .348.148.642.443.882.295.24.797.46 1.506.66.708.198 1.263.418 1.664.658.4.24.697.52.89.841.194.32.29.697.29 1.131 0 .691-.27 1.245-.808 1.661-.54.416-1.26.624-2.162.624a4.01 4.01 0 0 1-1.641-.337c-.508-.224-.9-.532-1.175-.923a2.252 2.252 0 0 1-.413-1.33h1.13c0 .516.191.923.572 1.222.381.299.89.448 1.527.448.593 0 1.048-.12 1.365-.363.316-.242.474-.572.474-.99 0-.418-.146-.741-.44-.97-.292-.228-.823-.454-1.593-.677zM104.363 44h-1.13v-3.943h-4.301V44h-1.125v-8.531h1.125v3.668h4.3v-3.668h1.131V44z" fill="#FFF" fill-rule="nonzero" opacity=".4"/><g><path d="M22 1.155l13.32 7.69a4 4 0 0 1 2 3.464v15.382a4 4 0 0 1-2 3.464L22 38.845a4 4 0 0 1-4 0l-13.32-7.69a4 4 0 0 1-2-3.464V12.309a4 4 0 0 1 2-3.464L18 1.155a4 4 0 0 1 4 0z" fill="url(#x)" transform="translate(19 10)"/><path d="M41.48 23.6c5.122 0 6.027 2.753 5.3 6.623-.488 2.598-1.706 4.59-3.753 5.521-.923.421-1.795.656-3.846.656h-5.813l.484-2.66 5.11.001c3.074.005 3.893-1.308 4.292-2.459.15-.432.496-1.764.508-2.552.021-1.538-.744-2.464-3.333-2.464l-5.258-.006.483-2.66h5.826zm-8.34 5.064h5.965s-.062.314-.25 1.09c-.145.592-.364 1.572-1.89 1.572H31s.062-.314.251-1.09c.144-.592.363-1.572 1.89-1.572z" fill="#FFF" fill-rule="nonzero"/></g></g><g transform="translate(925 130)"><use fill="#000" filter="url(#y)" xlink:href="#z"/><use fill="#1E2326" xlink:href="#z"/><use fill-opacity=".3" fill="url(#A)" xlink:href="#z"/><path d="M75.155 26v-9.953h3.254c1.08 0 1.893.223 2.437.67.545.446.817 1.107.817 1.982 0 .465-.132.876-.396 1.234a2.57 2.57 0 0 1-1.08.83c.537.151.962.437 1.274.859.313.421.469.924.469 1.507 0 .893-.29 1.595-.868 2.105-.58.51-1.397.766-2.455.766h-3.452zm1.313-4.655v3.582h2.167c.61 0 1.092-.159 1.446-.475.353-.317.53-.753.53-1.31 0-1.198-.652-1.797-1.956-1.797h-2.187zm0-1.053h1.982c.574 0 1.034-.144 1.378-.43.344-.288.516-.677.516-1.17 0-.546-.16-.944-.479-1.192-.319-.249-.804-.373-1.456-.373h-1.941v3.165zM85.047 26h-1.265v-7.396h1.265V26zm-1.367-9.358c0-.205.062-.379.188-.52.125-.141.31-.212.557-.212.246 0 .433.07.56.212a.747.747 0 0 1 .192.52.722.722 0 0 1-.192.512c-.127.137-.314.205-.56.205-.246 0-.432-.068-.557-.205a.73.73 0 0 1-.188-.512zm5.106.17v1.792h1.381v.977h-1.38v4.587c0 .296.06.518.184.666.123.149.332.223.629.223.145 0 .346-.028.601-.082V26a3.666 3.666 0 0 1-.97.137c-.566 0-.992-.171-1.279-.513-.287-.342-.43-.827-.43-1.456v-4.587h-1.347v-.977h1.346v-1.791h1.265zm5.824 8.292c.452 0 .846-.136 1.183-.41.337-.273.524-.615.56-1.025h1.197a2.293 2.293 0 0 1-.438 1.21 2.881 2.881 0 0 1-1.076.916 3.107 3.107 0 0 1-1.426.342c-1.007 0-1.808-.336-2.402-1.009-.595-.672-.893-1.591-.893-2.758v-.212c0-.72.133-1.36.397-1.92a3.02 3.02 0 0 1 1.138-1.306c.495-.31 1.079-.465 1.754-.465.829 0 1.518.248 2.067.745.55.497.842 1.142.879 1.934h-1.196c-.037-.478-.218-.871-.544-1.179-.326-.307-.728-.461-1.206-.461-.643 0-1.14.231-1.494.694-.353.462-.53 1.131-.53 2.006v.24c0 .852.176 1.508.526 1.968.351.46.853.69 1.504.69zm4.027-2.87c0-.725.142-1.377.427-1.956a3.187 3.187 0 0 1 1.19-1.34c.508-.314 1.087-.471 1.74-.471 1.006 0 1.82.348 2.443 1.046.622.697.933 1.624.933 2.782v.089c0 .72-.138 1.366-.413 1.938a3.14 3.14 0 0 1-1.183 1.336c-.513.32-1.102.479-1.767.479-1.003 0-1.815-.349-2.437-1.046-.622-.697-.933-1.62-.933-2.769v-.089zm1.271.15c0 .82.19 1.479.571 1.975.38.497.89.745 1.528.745.642 0 1.153-.251 1.531-.755.378-.503.567-1.209.567-2.116 0-.81-.192-1.468-.577-1.972-.385-.503-.897-.755-1.535-.755-.624 0-1.128.248-1.51.745-.383.497-.575 1.208-.575 2.133zM108.33 26h-1.265v-7.396h1.265V26zm-1.367-9.358c0-.205.063-.379.188-.52.125-.141.31-.212.557-.212.246 0 .433.07.56.212a.747.747 0 0 1 .192.52.722.722 0 0 1-.191.512c-.128.137-.315.205-.561.205-.246 0-.432-.068-.557-.205a.73.73 0 0 1-.188-.512zm4.587 1.962l.04.93c.566-.712 1.304-1.067 2.216-1.067 1.563 0 2.351.882 2.365 2.645V26h-1.265v-4.895c-.004-.533-.126-.927-.365-1.182-.24-.255-.612-.383-1.118-.383-.41 0-.77.11-1.08.328-.31.219-.552.506-.725.861V26h-1.264v-7.396h1.196zm17.513 4.238c-.123 1.053-.511 1.865-1.165 2.437-.654.572-1.523.858-2.608.858-1.176 0-2.118-.422-2.827-1.265-.708-.843-1.063-1.971-1.063-3.384v-.957c0-.925.166-1.738.496-2.44.33-.702.799-1.24 1.405-1.617.606-.376 1.308-.564 2.105-.564 1.058 0 1.905.295 2.543.885.638.59 1.01 1.407 1.114 2.451h-1.319c-.114-.793-.361-1.367-.742-1.723-.38-.355-.912-.533-1.596-.533-.838 0-1.496.31-1.972.93-.476.62-.714 1.502-.714 2.645v.964c0 1.08.225 1.94.676 2.577.452.638 1.083.957 1.894.957.73 0 1.289-.165 1.678-.495.39-.33.649-.906.776-1.726h1.32zm6.16 3.158c-.073-.146-.133-.406-.178-.78-.588.611-1.29.917-2.106.917-.729 0-1.327-.206-1.794-.619a2.002 2.002 0 0 1-.7-1.569c0-.77.292-1.368.878-1.794.585-.426 1.41-.64 2.47-.64h1.231v-.58c0-.442-.132-.795-.396-1.057-.264-.262-.654-.393-1.169-.393-.451 0-.83.114-1.135.342-.305.228-.458.504-.458.827h-1.271c0-.369.13-.725.393-1.07a2.683 2.683 0 0 1 1.066-.816c.45-.2.942-.301 1.48-.301.852 0 1.52.213 2.003.639.483.426.734 1.013.752 1.76v3.405c0 .679.087 1.219.26 1.62V26h-1.326zm-2.099-.964c.397 0 .772-.102 1.128-.307a1.86 1.86 0 0 0 .772-.8V22.41h-.99c-1.55 0-2.325.454-2.325 1.36 0 .397.132.707.396.93.265.223.604.335 1.019.335zm9.454-.998c0-.342-.129-.607-.386-.796-.258-.19-.706-.352-1.347-.49-.64-.136-1.148-.3-1.524-.491-.376-.192-.654-.42-.834-.684a1.635 1.635 0 0 1-.27-.943c0-.606.256-1.119.769-1.538.513-.42 1.168-.63 1.965-.63.839 0 1.519.217 2.04.65.523.433.783.987.783 1.661h-1.271c0-.346-.147-.645-.441-.895-.294-.25-.664-.376-1.11-.376-.461 0-.821.1-1.08.3-.26.201-.39.463-.39.787 0 .305.12.535.362.69.241.155.678.303 1.309.445.631.14 1.143.31 1.535.505.391.196.682.432.871.708.19.276.284.612.284 1.008 0 .661-.265 1.19-.793 1.59-.529.398-1.215.598-2.058.598-.592 0-1.116-.105-1.572-.315a2.557 2.557 0 0 1-1.07-.878 2.117 2.117 0 0 1-.386-1.22h1.265c.022.423.192.76.509 1.008s.735.372 1.254.372c.479 0 .863-.096 1.152-.29.29-.194.434-.452.434-.776zm4.177-4.539c.56-.688 1.29-1.032 2.187-1.032 1.564 0 2.352.882 2.366 2.645V26h-1.265v-4.895c-.005-.533-.126-.927-.366-1.182-.239-.255-.612-.383-1.117-.383-.41 0-.77.11-1.08.328-.31.219-.552.506-.725.861V26h-1.265V15.5h1.265v3.999z" fill="#FFF" fill-rule="nonzero"/><path d="M74.99 44v-8.531h2.79c.925 0 1.621.191 2.088.574.467.383.7.95.7 1.7 0 .398-.113.75-.34 1.057a2.203 2.203 0 0 1-.925.712c.46.129.825.374 1.093.735.267.361.4.792.4 1.292 0 .766-.247 1.367-.743 1.805-.496.437-1.198.656-2.104.656H74.99zm1.125-3.99v3.07h1.858c.523 0 .936-.136 1.239-.407.303-.272.454-.646.454-1.122 0-1.028-.559-1.541-1.676-1.541h-1.875zm0-.903h1.7c.492 0 .885-.123 1.18-.369.295-.246.442-.58.442-1.002 0-.468-.136-.81-.41-1.022-.273-.213-.69-.32-1.248-.32h-1.664v2.713zm12.621 2.186c-.105.902-.438 1.599-.999 2.089-.56.49-1.305.735-2.235.735-1.008 0-1.815-.361-2.423-1.084-.607-.722-.911-1.69-.911-2.9v-.82c0-.793.142-1.49.425-2.092.283-.602.684-1.064 1.204-1.386.52-.322 1.121-.483 1.805-.483.906 0 1.632.252 2.18.758.546.506.864 1.206.954 2.1h-1.13c-.098-.679-.31-1.17-.636-1.476-.326-.304-.782-.457-1.368-.457-.72 0-1.283.266-1.69.797-.41.531-.613 1.287-.613 2.268v.826c0 .926.193 1.662.58 2.209.387.547.928.82 1.623.82.625 0 1.104-.141 1.438-.425.334-.283.556-.776.665-1.479h1.131zM96.828 44h-1.13v-3.943h-4.302V44h-1.125v-8.531h1.125v3.668h4.301v-3.668h1.131V44z" fill="#FFF" fill-rule="nonzero" opacity=".4"/><g><path d="M22 1.154l13.32 7.688a4 4 0 0 1 2 3.464V27.68a4 4 0 0 1-2 3.464L22 38.831a4 4 0 0 1-4 0L4.68 31.143a4 4 0 0 1-2-3.464V12.306a4 4 0 0 1 2-3.464L18 1.154a4 4 0 0 1 4 0z" fill="url(#B)" transform="translate(19 10)"/><path d="M45.405 33.702c-.805.955-1.83 1.362-2.283 1.548-.222.093-.61.23-1.027.37l.714 2.666-1.642.44-.703-2.624-1.25.336.703 2.623-1.642.44-.703-2.623-3.23.865-.191-2.062.982-.263c.33-.088.46-.156.563-.323.103-.168.08-.375.037-.537l-1.82-6.791c-.114-.426-.18-.532-.434-.698-.254-.166-.722-.072-.981-.002l-.95.254-.456-1.704 3.23-.866-.705-2.63 1.642-.44.705 2.63 1.25-.335-.704-2.63 1.642-.44.713 2.662c1.245-.252 2.219-.263 3.171.111 1.232.484 1.532 1.818 1.593 2.138.061.32.086.964-.086 1.429-.171.465-.742 1.037-.742 1.037s.843-.045 1.517.227c.673.272 1.287.904 1.555 2 .27 1.095.337 2.236-.468 3.192zm-5.8-3.23c-.828.164-1.857.497-1.857.497l.944 3.52s1.095-.268 1.81-.518c.714-.248 1.417-.634 1.737-.942.32-.308.687-.751.471-1.556-.215-.806-.843-1-1.191-1.07-.348-.072-1.086-.096-1.914.068zm-.929-1.503c.593-.183 1.193-.492 1.585-.868.392-.377.546-.845.371-1.44-.176-.594-.71-.993-1.44-1.02-.732-.025-1.188.08-1.705.21-.516.13-1.025.317-1.025.317l.848 3.167s.774-.182 1.366-.366z" fill="#FFF"/></g><circle fill="#FFF" cx="4" cy="30" r="4"/></g><g transform="translate(455 130)"><use fill="#000" filter="url(#C)" xlink:href="#D"/><use fill="#1E2326" xlink:href="#D"/><use fill-opacity=".3" fill="url(#E)" xlink:href="#D"/><path fill="#FFF" d="M234 24.343L239.657 30 234 35.657 228.343 30z"/><path d="M76.85 16.047l3.254 8.121 3.254-8.121h1.703V26h-1.313v-3.876l.123-4.184L80.604 26h-1.005l-3.261-8.04.13 4.164V26h-1.313v-9.953h1.696zm9.995 6.186c0-.724.142-1.376.427-1.955a3.187 3.187 0 0 1 1.19-1.34c.508-.314 1.087-.471 1.74-.471 1.006 0 1.82.348 2.443 1.046.622.697.933 1.624.933 2.782v.089c0 .72-.138 1.366-.413 1.938a3.14 3.14 0 0 1-1.183 1.336c-.513.32-1.102.479-1.767.479-1.003 0-1.815-.349-2.437-1.046-.622-.697-.933-1.62-.933-2.769v-.089zm1.271.15c0 .821.19 1.48.571 1.976.38.497.89.745 1.528.745.642 0 1.153-.251 1.531-.755.378-.503.567-1.209.567-2.116 0-.81-.192-1.468-.577-1.972-.385-.503-.897-.755-1.535-.755-.624 0-1.128.248-1.51.745-.383.497-.575 1.208-.575 2.133zm8.244-3.78l.041.93c.565-.71 1.304-1.066 2.215-1.066 1.563 0 2.352.882 2.365 2.645V26h-1.264v-4.895c-.005-.533-.127-.927-.366-1.182-.24-.255-.612-.383-1.118-.383-.41 0-.77.11-1.08.328-.31.219-.551.506-.724.861V26h-1.265v-7.396h1.196zm9.598 7.534c-1.003 0-1.818-.33-2.447-.988-.63-.659-.944-1.54-.944-2.642v-.233c0-.733.14-1.388.42-1.965a3.28 3.28 0 0 1 1.177-1.353 2.956 2.956 0 0 1 1.637-.49c.961 0 1.709.318 2.242.951.533.633.8 1.54.8 2.72v.527h-5.011c.018.73.231 1.318.64 1.767.407.449.925.673 1.554.673.447 0 .825-.09 1.135-.273.31-.182.581-.424.814-.725l.772.602c-.62.952-1.55 1.429-2.789 1.429zm-.157-6.631c-.51 0-.939.186-1.285.557-.347.371-.56.892-.643 1.562h3.705v-.096c-.036-.642-.21-1.14-.52-1.493-.31-.354-.729-.53-1.257-.53zm8.08.232a3.79 3.79 0 0 0-.622-.048c-.83 0-1.392.354-1.689 1.06V26h-1.264v-7.396h1.23l.02.854c.415-.66 1.003-.991 1.764-.991.246 0 .433.032.56.096v1.175zm.69 2.495c0-.724.143-1.376.428-1.955a3.187 3.187 0 0 1 1.189-1.34c.508-.314 1.088-.471 1.74-.471 1.007 0 1.822.348 2.444 1.046.622.697.933 1.624.933 2.782v.089c0 .72-.138 1.366-.414 1.938a3.14 3.14 0 0 1-1.183 1.336c-.512.32-1.101.479-1.767.479-1.002 0-1.815-.349-2.437-1.046-.622-.697-.933-1.62-.933-2.769v-.089zm1.272.15c0 .821.19 1.48.57 1.976.381.497.89.745 1.528.745.643 0 1.153-.251 1.532-.755.378-.503.567-1.209.567-2.116 0-.81-.193-1.468-.578-1.972-.385-.503-.896-.755-1.534-.755-.625 0-1.128.248-1.511.745s-.574 1.208-.574 2.133z" fill="#FFF" fill-rule="nonzero"/><path d="M77.773 38.738l2.045-3.27h1.325L78.447 39.7 81.207 44h-1.336l-2.098-3.328L75.664 44h-1.33l2.766-4.3-2.702-4.231h1.319l2.056 3.27zm6.194-3.27l2.789 6.962 2.789-6.961h1.459V44h-1.125v-3.322l.105-3.586-2.8 6.908h-.862l-2.795-6.89.112 3.568V44h-1.125v-8.531h1.453zm12.152 5.08h-2.004V44h-1.13v-8.531h2.824c.96 0 1.7.218 2.217.656.518.438.777 1.074.777 1.91 0 .531-.144.994-.43 1.389-.288.394-.687.69-1.2.885l2.005 3.62V44H97.97l-1.852-3.451zm-2.004-.92h1.729c.558 0 1.003-.144 1.333-.433.33-.289.495-.675.495-1.16 0-.527-.157-.931-.472-1.213-.314-.281-.768-.424-1.362-.427h-1.723v3.234z" fill="#FFF" fill-rule="nonzero" opacity=".4"/><g fill-rule="nonzero"><path d="M22 1.155l13.32 7.687c1.238.714 2 2.034 2 3.462v15.377a3.998 3.998 0 0 1-2 3.462L22 38.83a4.001 4.001 0 0 1-4 0L4.68 31.143a3.998 3.998 0 0 1-2-3.462V12.304c0-1.428.762-2.748 2-3.462L18 1.155a4.001 4.001 0 0 1 4 0z" fill="url(#F)" transform="translate(19 10)"/><g fill="#FFF"><path d="M39.004 20.996a8.997 8.997 0 0 0-7.296 3.732 8.99 8.99 0 0 0-1.24 8.1h2.69V25.26l5.846 5.846 5.848-5.846v7.567h2.69a8.99 8.99 0 0 0-1.24-8.1 8.997 8.997 0 0 0-7.298-3.732"/><path d="M37.66 32.452l-2.552-2.553v4.762h-3.791a8.994 8.994 0 0 0 7.687 4.32 8.988 8.988 0 0 0 7.686-4.32H42.9v-4.762l-2.552 2.553-1.344 1.343-1.343-1.343h-.001z"/></g></g><circle fill="#FFF" cx="4" cy="30" r="4"/></g><g transform="translate(975 240)"><use fill="#000" filter="url(#G)" xlink:href="#H"/><use fill="#1E2326" xlink:href="#H"/><use fill-opacity=".25" fill="url(#I)" xlink:href="#H"/><circle fill="#FFF" cx="4" cy="30" r="4"/><path d="M78.088 21.563c-1.126-.323-1.945-.72-2.458-1.192a2.28 2.28 0 0 1-.769-1.747c0-.784.314-1.432.94-1.945.627-.512 1.442-.769 2.444-.769.684 0 1.293.132 1.829.397.535.264.95.629 1.244 1.093.294.465.44.973.44 1.525H80.44c0-.602-.191-1.075-.574-1.419-.383-.344-.923-.516-1.62-.516-.647 0-1.152.143-1.514.427-.362.285-.543.68-.543 1.187 0 .405.172.748.516 1.028.344.28.93.537 1.756.77.828.232 1.475.488 1.942.768.467.28.813.608 1.039.981.226.374.338.814.338 1.32 0 .806-.314 1.452-.943 1.938-.629.485-1.47.728-2.523.728a4.678 4.678 0 0 1-1.914-.393c-.592-.262-1.049-.621-1.37-1.077a2.627 2.627 0 0 1-.482-1.552h1.32c0 .602.221 1.077.666 1.426.444.348 1.038.522 1.78.522.693 0 1.224-.14 1.593-.423.37-.283.554-.668.554-1.156 0-.487-.17-.864-.513-1.131-.342-.267-.961-.53-1.86-.79zm6.89-4.75v1.79h1.381v.978h-1.38v4.587c0 .296.061.518.184.666.123.149.333.223.629.223.146 0 .346-.028.602-.082V26a3.666 3.666 0 0 1-.971.137c-.565 0-.991-.171-1.278-.513-.288-.342-.431-.827-.431-1.456v-4.587h-1.347v-.977h1.347v-1.791h1.265zm5.927 9.324c-1.002 0-1.818-.33-2.447-.988-.629-.659-.943-1.54-.943-2.642v-.233c0-.733.14-1.388.42-1.965a3.28 3.28 0 0 1 1.176-1.353 2.956 2.956 0 0 1 1.637-.49c.962 0 1.709.318 2.242.951.533.633.8 1.54.8 2.72v.527h-5.01c.018.73.23 1.318.638 1.767.408.449.927.673 1.556.673.446 0 .825-.09 1.134-.273.31-.182.581-.424.814-.725l.772.602c-.62.952-1.55 1.429-2.789 1.429zm-.157-6.631c-.51 0-.939.186-1.285.557-.346.371-.56.892-.643 1.562h3.705v-.096c-.036-.642-.21-1.14-.52-1.493-.309-.354-.728-.53-1.257-.53zM96.627 26h-1.265V15.5h1.265V26zm3.397 0H98.76V15.5h1.264V26zm6.59 0c-.073-.146-.132-.406-.177-.78-.588.611-1.29.917-2.106.917-.73 0-1.327-.206-1.794-.619a2.002 2.002 0 0 1-.701-1.569c0-.77.293-1.368.878-1.794.586-.426 1.41-.64 2.472-.64h1.23v-.58c0-.442-.132-.795-.396-1.057-.265-.262-.654-.393-1.17-.393-.45 0-.829.114-1.134.342-.306.228-.458.504-.458.827h-1.272c0-.369.131-.725.393-1.07a2.683 2.683 0 0 1 1.067-.816c.449-.2.942-.301 1.48-.301.852 0 1.52.213 2.003.639.483.426.733 1.013.752 1.76v3.405c0 .679.086 1.219.26 1.62V26h-1.327zm-2.098-.964c.396 0 .772-.102 1.128-.307a1.86 1.86 0 0 0 .772-.8V22.41h-.991c-1.55 0-2.324.454-2.324 1.36 0 .397.132.707.396.93.264.223.604.335 1.019.335zm8.722-5.298a3.79 3.79 0 0 0-.622-.048c-.83 0-1.392.354-1.688 1.06V26h-1.265v-7.396h1.23l.021.854c.415-.66 1.003-.991 1.764-.991.246 0 .433.032.56.096v1.175z" fill="#FFF" fill-rule="nonzero"/><path d="M77.773 38.738l2.045-3.27h1.325L78.447 39.7 81.207 44h-1.336l-2.098-3.328L75.664 44h-1.33l2.766-4.3-2.702-4.231h1.319l2.056 3.27zm5.872 4.342h4.043V44h-5.174v-8.531h1.13v7.611zm6.779-7.611l2.789 6.96 2.789-6.96h1.459V44h-1.125v-3.322l.105-3.586-2.8 6.908h-.862l-2.795-6.89.112 3.568V44H88.97v-8.531h1.453z" fill="#FFF" fill-rule="nonzero" opacity=".4"/><g fill-rule="nonzero"><path d="M22 1.155l13.32 7.69a4 4 0 0 1 2 3.464v15.382a4 4 0 0 1-2 3.464L22 38.845a4 4 0 0 1-4 0l-13.32-7.69a4 4 0 0 1-2-3.464V12.309a4 4 0 0 1 2-3.464L18 1.155a4 4 0 0 1 4 0z" fill="url(#J)" transform="translate(19 10)"/><path d="M46.63 23.357l3.007-1.532v1.836l-17.533 8.934.001.002-1.463.746-.002-.002-2.276 1.16v-1.837l.773-.394c.589-.3.939-.924.89-1.582a8.946 8.946 0 0 1 .682-4.189 8.973 8.973 0 0 1 1.927-2.86A8.969 8.969 0 0 1 39 21.002a8.941 8.941 0 0 1 5.287 1.716l-.219.111-1.466.747a7.326 7.326 0 0 0-3.659-.937 7.353 7.353 0 0 0-5.15 2.156 7.316 7.316 0 0 0-2.156 5.208c0 .324.02.645.062.962l14.93-7.608h.001zm3.007 2.14v1.837l-.774.395c-.589.3-.939.924-.889 1.582a8.974 8.974 0 0 1-2.61 7.055A8.974 8.974 0 0 1 39 39.003a8.945 8.945 0 0 1-5.292-1.72l1.59-.81.094-.047a7.325 7.325 0 0 0 3.66.941 7.354 7.354 0 0 0 5.155-2.157 7.315 7.315 0 0 0 2.157-5.206c0-.327-.021-.65-.063-.969l-17.937 9.14v-1.837l21.273-10.84v-.001z" fill="#000"/></g></g><g transform="translate(505 240)"><use fill="#000" filter="url(#K)" xlink:href="#L"/><use fill="#1E2326" xlink:href="#L"/><use fill-opacity=".35" fill="url(#M)" xlink:href="#L"/><path fill="#FFF" d="M234 24.343L239.657 30 234 35.657 228.343 30z"/><circle fill="#FFF" cx="4" cy="30" r="4"/><path d="M80.781 21.4h-4.313v3.527h5.01V26h-6.323v-9.953h6.255v1.08h-4.942v3.2h4.313v1.072zm3.849-4.587v1.79h1.38v.978h-1.38v4.587c0 .296.061.518.184.666.124.149.333.223.63.223.145 0 .346-.028.6-.082V26a3.666 3.666 0 0 1-.97.137c-.565 0-.991-.171-1.278-.513-.287-.342-.43-.827-.43-1.456v-4.587h-1.347v-.977h1.346v-1.791h1.265zm4.122 2.686c.56-.688 1.29-1.032 2.187-1.032 1.564 0 2.352.882 2.366 2.645V26H92.04v-4.895c-.005-.533-.126-.927-.366-1.182-.239-.255-.611-.383-1.117-.383-.41 0-.77.11-1.08.328-.31.219-.552.506-.725.861V26h-1.265V15.5h1.265v3.999zm9.516 6.638c-1.003 0-1.819-.33-2.448-.988-.629-.659-.943-1.54-.943-2.642v-.233c0-.733.14-1.388.42-1.965a3.28 3.28 0 0 1 1.176-1.353 2.956 2.956 0 0 1 1.637-.49c.962 0 1.71.318 2.243.951.533.633.8 1.54.8 2.72v.527h-5.011c.018.73.23 1.318.639 1.767.408.449.926.673 1.555.673.447 0 .825-.09 1.135-.273.31-.182.58-.424.813-.725l.773.602c-.62.952-1.55 1.429-2.79 1.429zm-.158-6.631c-.51 0-.938.186-1.285.557-.346.371-.56.892-.642 1.562h3.705v-.096c-.037-.642-.21-1.14-.52-1.493-.31-.354-.729-.53-1.258-.53zm8.08.232a3.79 3.79 0 0 0-.622-.048c-.83 0-1.392.354-1.688 1.06V26h-1.265v-7.396h1.23l.021.854c.415-.66 1.003-.991 1.764-.991.246 0 .433.032.56.096v1.175zm4.102 6.399c-1.003 0-1.818-.33-2.447-.988-.63-.659-.944-1.54-.944-2.642v-.233c0-.733.14-1.388.42-1.965a3.28 3.28 0 0 1 1.177-1.353 2.956 2.956 0 0 1 1.637-.49c.961 0 1.709.318 2.242.951.533.633.8 1.54.8 2.72v.527h-5.011c.018.73.231 1.318.64 1.767.407.449.925.673 1.554.673.447 0 .825-.09 1.135-.273.31-.182.581-.424.814-.725l.772.602c-.62.952-1.55 1.429-2.789 1.429zm-.157-6.631c-.51 0-.939.186-1.285.557-.347.371-.56.892-.643 1.562h3.705v-.096c-.036-.642-.21-1.14-.52-1.493-.31-.354-.729-.53-1.257-.53zm9.071 5.763c-.492.578-1.214.868-2.167.868-.788 0-1.389-.23-1.801-.687-.413-.458-.621-1.136-.626-2.034v-4.812h1.265v4.778c0 1.12.456 1.681 1.367 1.681.966 0 1.609-.36 1.928-1.08v-5.38h1.265V26h-1.204l-.027-.731zm4.34-6.665l.035.82c.542-.638 1.274-.957 2.194-.957 1.035 0 1.739.396 2.113 1.19.246-.356.566-.643.96-.862.394-.219.86-.328 1.398-.328 1.622 0 2.447.859 2.475 2.577V26h-1.265v-4.88c0-.53-.12-.925-.362-1.187s-.647-.393-1.217-.393c-.47 0-.86.14-1.169.42-.31.28-.49.658-.54 1.132V26h-1.272v-4.847c0-1.075-.526-1.613-1.579-1.613-.829 0-1.396.353-1.702 1.06V26h-1.264v-7.396h1.196z" fill="#FFF" fill-rule="nonzero"/><path d="M79.813 40.057h-3.698v3.023h4.295V44h-5.42v-8.531h5.362v.926h-4.237v2.742h3.698v.92zm7.892-3.662h-2.742V44h-1.12v-7.605h-2.736v-.926h6.598v.926zM95.527 44h-1.13v-3.943h-4.301V44H88.97v-8.531h1.125v3.668h4.3v-3.668h1.131V44z" fill="#FFF" fill-rule="nonzero" opacity=".4"/><g fill-rule="nonzero"><path d="M20 1l13.4 7.8c1.2.7 2 2.1 2 3.5v15.5c0 1.4-.8 2.8-2 3.5L20 39c-1.2.7-2.8.7-4 0L2.5 31.3c-1.2-.7-2-2.1-2-3.5V12.2c0-1.4.8-2.8 2-3.5L16 1c1.2-.7 2.8-.7 4 0z" fill="url(#N)" transform="translate(21 10)"/><g fill="#FFF"><path d="M39.167 33.822l-6.2-3.6 6.2-10.3 6.2 10.3z"/><path d="M39.167 40.122l-6.2-8.8 6.2 3.7 6.2-3.7z"/></g></g></g><g transform="translate(925 350)"><use fill="#000" filter="url(#O)" xlink:href="#P"/><use fill="#1E2326" xlink:href="#P"/><use fill-opacity=".3" fill="url(#Q)" xlink:href="#P"/><path d="M78.402 19.861l2.386-3.814h1.545l-3.145 4.935L82.408 26H80.85l-2.448-3.883L75.942 26H74.39l3.226-5.018-3.151-4.935h1.538l2.4 3.814zm9.181 2.113h-2.338V26h-1.32v-9.953h3.296c1.12 0 1.983.255 2.587.765.604.51.906 1.254.906 2.229 0 .62-.168 1.16-.503 1.62-.335.46-.8.804-1.398 1.032l2.338 4.225V26h-1.408l-2.16-4.026zM85.245 20.9h2.017c.651 0 1.17-.168 1.555-.505.385-.338.578-.789.578-1.354 0-.615-.184-1.087-.55-1.415-.368-.328-.897-.494-1.59-.499h-2.01V20.9zm8.62 1.204V26h-1.312v-9.953h3.67c1.09 0 1.943.278 2.56.834.618.556.927 1.292.927 2.208 0 .966-.302 1.71-.906 2.232-.604.522-1.468.783-2.594.783h-2.345zm0-1.074h2.359c.701 0 1.24-.165 1.613-.495.374-.33.56-.808.56-1.432 0-.593-.186-1.067-.56-1.422-.374-.356-.886-.54-1.538-.554h-2.434v3.903z" fill="#FFF" fill-rule="nonzero"/><path d="M77.773 38.738l2.045-3.27h1.325L78.447 39.7 81.207 44h-1.336l-2.098-3.328L75.664 44h-1.33l2.766-4.3-2.702-4.231h1.319l2.056 3.27zm7.87 1.81h-2.004V44h-1.131v-8.531h2.824c.961 0 1.7.218 2.218.656.517.438.776 1.074.776 1.91 0 .531-.143.994-.43 1.389-.288.394-.687.69-1.199.885l2.004 3.62V44h-1.207l-1.851-3.451zm-2.004-.92h1.728c.559 0 1.003-.144 1.333-.433.33-.289.495-.675.495-1.16 0-.527-.157-.931-.471-1.213-.315-.281-.769-.424-1.363-.427H83.64v3.234zm7.388 1.032V44h-1.125v-8.531h3.147c.933 0 1.665.238 2.194.715.53.476.794 1.107.794 1.892 0 .828-.259 1.466-.776 1.913-.518.448-1.259.671-2.224.671h-2.01zm0-.92h2.022c.601 0 1.062-.141 1.383-.425.32-.283.48-.692.48-1.227 0-.508-.16-.914-.48-1.219-.32-.305-.76-.463-1.319-.474h-2.086v3.345z" fill="#FFF" fill-rule="nonzero" opacity=".4"/><g><path d="M22 1.154l13.32 7.688a4 4 0 0 1 2 3.464V27.68a4 4 0 0 1-2 3.464L22 38.831a4 4 0 0 1-4 0L4.68 31.143a4 4 0 0 1-2-3.464V12.306a4 4 0 0 1 2-3.464L18 1.154a4 4 0 0 1 4 0z" fill="url(#R)" transform="translate(19 10)"/><path d="M44.656 22.795h2.314l-4.814 4.889a4.415 4.415 0 0 1-6.311 0l-4.815-4.889h2.314l3.658 3.714a2.796 2.796 0 0 0 3.997 0l3.657-3.714zM33.314 36.39H31l4.844-4.919a4.415 4.415 0 0 1 6.312 0L47 36.39h-2.314l-3.687-3.744a2.796 2.796 0 0 0-3.998 0l-3.687 3.744z" fill="#FFF" fill-rule="nonzero"/></g><circle fill="#FFF" cx="4" cy="30" r="4"/></g></g></svg>