<svg width="1162" height="24" viewBox="0 0 1162 24" fill="none" xmlns="http://www.w3.org/2000/svg">
<g clip-path="url(#clip0_552_431)">
<path fill-rule="evenodd" clip-rule="evenodd" d="M545 24.0002C538.372 24.0002 533 18.6282 533 12.0002C533 5.37219 538.372 0.000193168 545 0.000193168C551.628 0.000193168 557 5.37219 557 12.0002C557 18.6282 551.628 24.0002 545 24.0002ZM538.747 21.1452C540.588 22.4073 542.768 23.0809 545 23.0772C547.32 23.0772 549.473 22.3632 551.253 21.1452L547.194 17.0872C546.501 17.3859 545.754 17.5394 545 17.5382C544.245 17.5391 543.499 17.3852 542.806 17.0862L538.747 21.1452ZM535.855 18.2532L539.913 14.1942C539.614 13.5014 539.461 12.7547 539.462 12.0002C539.462 11.2202 539.623 10.4802 539.914 9.80619L535.854 5.74719C534.593 7.58816 533.92 9.76857 533.924 12.0002C533.924 14.3202 534.637 16.4732 535.855 18.2532ZM538.747 2.85619L542.806 6.91319C543.499 6.61485 544.246 6.46169 545 6.46319C545.754 6.46201 546.501 6.6155 547.194 6.91419L551.253 2.85519C549.412 1.59313 547.232 0.919436 545 0.923193C542.68 0.923193 540.527 1.63819 538.747 2.85619ZM554.144 5.74719L550.087 9.80719C550.386 10.4997 550.539 11.2461 550.538 12.0002C550.539 12.7547 550.385 13.5014 550.086 14.1942L554.145 18.2542C555.407 16.4132 556.081 14.2324 556.077 12.0002C556.077 9.68019 555.363 7.52719 554.145 5.74719H554.144ZM545 16.6152C546.224 16.6152 547.398 16.129 548.263 15.2635C549.129 14.398 549.615 13.2242 549.615 12.0002C549.615 10.7762 549.129 9.60238 548.263 8.7369C547.398 7.87142 546.224 7.38519 545 7.38519C543.776 7.38519 542.602 7.87142 541.737 8.7369C540.871 9.60238 540.385 10.7762 540.385 12.0002C540.385 13.2242 540.871 14.398 541.737 15.2635C542.602 16.129 543.776 16.6152 545 16.6152Z" fill="white"/>
<path d="M168 8.93519L159.99 5.41319L167.64 2.06619C167.82 1.97819 168.09 1.97819 168.36 2.06619L176.01 5.41319L168 8.93519Z" fill="white"/>
<path d="M168.9 10.4322L177 6.91019V16.9502C177 17.3012 176.82 17.5652 176.46 17.7422L168.9 21.0002V10.4322Z" fill="white"/>
<path d="M167.1 10.4322V21.0002L159.54 17.7422C159.18 17.6542 159 17.3022 159 16.9492V6.91019L167.1 10.4322Z" fill="white"/>
<path fill-rule="evenodd" clip-rule="evenodd" d="M255 14.0002V8.00019C255 7.40019 254.6 7.00019 254 7.00019H250V4.00019C250 3.40019 249.6 3.00019 249 3.00019H243C242.4 3.00019 242 3.40019 242 4.00019V7.00019H238C237.4 7.00019 237 7.40019 237 8.00019V14.0002C237 14.6002 237.4 15.0002 238 15.0002H254C254.6 15.0002 255 14.6002 255 14.0002ZM244 5.00019H248V7.00019H244V5.00019Z" fill="white"/>
<path d="M238 16.0002H254V20.0002C254 20.6002 253.6 21.0002 253 21.0002H239C238.4 21.0002 238 20.6002 238 20.0002V16.0002Z" fill="white"/>
<path d="M316 3.00019H332C332.265 3.00019 332.52 3.10555 332.707 3.29309C332.895 3.48062 333 3.73498 333 4.00019V15.0002C333 15.2654 332.895 15.5198 332.707 15.7073C332.52 15.8948 332.265 16.0002 332 16.0002H326L320 21.0002V16.0002H316C315.735 16.0002 315.48 15.8948 315.293 15.7073C315.105 15.5198 315 15.2654 315 15.0002V4.00019C315 3.73498 315.105 3.48062 315.293 3.29309C315.48 3.10555 315.735 3.00019 316 3.00019Z" fill="white"/>
<path d="M80 6.00019V16.0002H78V5.00019C78 4.73498 78.1054 4.48062 78.2929 4.29309C78.4804 4.10555 78.7348 4.00019 79 4.00019H97C97.2652 4.00019 97.5196 4.10555 97.7071 4.29309C97.8946 4.48062 98 4.73498 98 5.00019V16.0002H96V6.00019H80Z" fill="white"/>
<path d="M91 19.0002V17.0002H100V20.0002C100 20.2654 99.8946 20.5198 99.7071 20.7073C99.5196 20.8948 99.2652 21.0002 99 21.0002H77C76.7348 21.0002 76.4804 20.8948 76.2929 20.7073C76.1054 20.5198 76 20.2654 76 20.0002V17.0002H85V19.0002H91Z" fill="white"/>
<path fill-rule="evenodd" clip-rule="evenodd" d="M394 1.00019H406C406.53 1.00019 407.039 1.21091 407.414 1.58598C407.789 1.96105 408 2.46976 408 3.00019V21.0002C408 21.5306 407.789 22.0393 407.414 22.4144C407.039 22.7895 406.53 23.0002 406 23.0002H394C393.47 23.0002 392.961 22.7895 392.586 22.4144C392.211 22.0393 392 21.5306 392 21.0002V3.00019C392 2.46976 392.211 1.96105 392.586 1.58598C392.961 1.21091 393.47 1.00019 394 1.00019ZM394 3.00019V21.0002H406V3.00019H404L403.276 4.44719C403.193 4.61327 403.065 4.75297 402.908 4.85064C402.75 4.94831 402.568 5.00009 402.382 5.00019H397.618C397.432 5.00009 397.25 4.94831 397.092 4.85064C396.935 4.75297 396.807 4.61327 396.724 4.44719L396 3.00019H394Z" fill="white"/>
<path fill-rule="evenodd" clip-rule="evenodd" d="M13.66 7.06619H16V19.3102H15.984L8 23.0002L0.016 19.3102H0V7.06619H2.342V5.34619C2.342 2.40019 4.881 0.000193168 8.002 0.000193168C11.12 0.000193168 13.659 2.40019 13.659 5.34719V7.06719L13.66 7.06619ZM12.78 17.2742V9.94019H3.22V17.2752L8 19.4782L12.78 17.2742ZM5.245 5.34719V7.06719H10.757V5.34719C10.757 3.98219 9.52 2.87219 8.001 2.87219C6.481 2.87219 5.245 3.98219 5.245 5.34719Z" fill="white"/>
<path fill-rule="evenodd" clip-rule="evenodd" d="M613.155 0.311193L620.845 4.77519C621.197 4.97983 621.488 5.27317 621.691 5.6259C621.894 5.97862 622 6.37838 622 6.78519V15.7152C622 16.5452 621.56 17.3102 620.845 17.7252L613.155 22.1892C612.804 22.393 612.406 22.5004 612 22.5004C611.594 22.5004 611.196 22.393 610.845 22.1892L603.155 17.7252C602.803 17.5206 602.512 17.2272 602.309 16.8745C602.106 16.5218 602 16.122 602 15.7152V6.78519C602 5.95619 602.44 5.19019 603.155 4.77519L610.845 0.311193C611.196 0.107365 611.594 0 612 0C612.406 0 612.804 0.107365 613.155 0.311193ZM611.243 12.7782L608.414 9.95019L607 11.3642L611.243 15.6072L617.607 9.24219L616.192 7.82819L611.243 12.7782Z" fill="white"/>
<path d="M680.151 12.4182L666.775 21.2252C666.7 21.2749 666.612 21.3032 666.522 21.3071C666.432 21.3111 666.342 21.2905 666.263 21.2477C666.183 21.2048 666.117 21.1412 666.071 21.0637C666.024 20.9861 666 20.8975 666 20.8072V3.19319C666 3.1029 666.024 3.01427 666.071 2.93671C666.117 2.85915 666.183 2.79557 666.263 2.7527C666.342 2.70984 666.432 2.6893 666.522 2.69326C666.612 2.69722 666.7 2.72553 666.775 2.77519L680.151 11.5822C680.22 11.6277 680.277 11.6897 680.317 11.7627C680.356 11.8357 680.377 11.9173 680.377 12.0002C680.377 12.0831 680.356 12.1647 680.317 12.2377C680.277 12.3107 680.22 12.3727 680.151 12.4182Z" fill="white"/>
<path d="M791 2.00019H799V10.0002H791V2.00019Z" fill="white"/>
<path d="M787 19.0002H784V22.0002H782V19.0002H779V17.0002H782V14.0002H784V17.0002H787V19.0002Z" fill="white"/>
<path d="M783 10.0002C780.795 10.0002 779 8.20519 779 6.00019C779 3.79519 780.795 2.00019 783 2.00019C785.205 2.00019 787 3.79519 787 6.00019C787 8.20519 785.205 10.0002 783 10.0002Z" fill="white"/>
<path d="M790 22.0002L795 14.0002L800 22.0002H790Z" fill="white"/>
<path d="M731.999 2.00019C733.742 1.99954 735.46 2.41314 737.012 3.20689C738.563 4.00064 739.904 5.15182 740.924 6.56552C741.943 7.97922 742.612 9.61496 742.875 11.3379C743.138 13.0609 742.988 14.8217 742.437 16.4752H739.148V7.21819L731.998 14.3692L724.851 7.21919V16.4732H721.563C721.013 14.82 720.864 13.0598 721.128 11.3377C721.391 9.6155 722.06 7.98056 723.079 6.5674C724.098 5.15425 725.438 4.00329 726.989 3.20927C728.54 2.41524 730.257 2.00085 731.999 2.00019Z" fill="white"/>
<path d="M731.999 17.6572L736.762 12.8922V18.7162H741.395C740.415 20.33 739.036 21.664 737.39 22.5895C735.744 23.515 733.888 24.0009 732 24.0002C730.112 24.0007 728.255 23.5148 726.609 22.5893C724.963 21.6638 723.583 20.3299 722.602 18.7162H727.236V12.8922L731.999 17.6572Z" fill="white"/>
<path d="M1101.13 12.5712C1103.4 12.5712 1105.15 9.86318 1105.47 6.78618C1105.8 3.70818 1103.53 1.00018 1101.13 1.00018C1098.73 1.00018 1096.53 3.77518 1096.78 6.78618C1097.03 9.79618 1098.86 12.5712 1101.13 12.5712Z" fill="white"/>
<path d="M1000.7 11.6822L998.361 9.90816C998.233 9.811 998.133 9.68169 998.071 9.53336C998.009 9.38503 997.988 9.22298 998.009 9.06369C998.03 8.9044 998.093 8.75354 998.192 8.62646C998.29 8.49938 998.42 8.4006 998.569 8.34016L1016.75 1.06516C1016.91 1.00463 1017.07 0.986253 1017.23 1.01197C1017.39 1.03768 1017.55 1.10653 1017.67 1.21126C1017.8 1.316 1017.89 1.45273 1017.95 1.60706C1018 1.76139 1018.01 1.9276 1017.98 2.08816L1014.34 20.2722C1014.31 20.4223 1014.25 20.5623 1014.15 20.679C1014.05 20.7957 1013.92 20.8854 1013.78 20.9398C1013.63 20.9941 1013.48 21.0114 1013.33 20.99C1013.17 20.9685 1013.03 20.9091 1012.91 20.8172L1006.99 16.3852L1004.15 19.7652C1004.03 19.9074 1003.87 20.0093 1003.69 20.0571C1003.51 20.105 1003.32 20.0966 1003.14 20.0329C1002.97 19.9692 1002.82 19.8534 1002.71 19.7011C1002.6 19.5488 1002.54 19.3673 1002.54 19.1812V13.0452L1008.89 8.04516L1000.7 11.6822Z" fill="white"/>
<path d="M1045.59 17.8102L1043.51 15.7332L1051.73 7.51221L1051.73 7.51117L1056.4 12.1852L1061.76 6.82159L1059.51 4.56818H1066.44V11.5002L1063.84 8.90148L1056.4 16.3452L1051.73 11.6712L1045.59 17.8102Z" fill="white"/>
<path d="M1101 14.6862C1102.62 14.7152 1103.74 14.2662 1104.45 13.3632L1108.2 14.9132C1108.98 15.2232 1109.38 15.9632 1109.49 16.8232L1110 20.2862H1092L1092.51 16.8232C1092.65 15.9962 1093.02 15.2232 1093.8 14.9132L1097.59 13.3432C1098.32 14.2202 1099.43 14.6592 1101 14.6862Z" fill="white"/>
<path d="M476.756 13.2935H471.953L471.311 15.3274L476.774 18.8778V22L468.24 16.4335L469.632 12.0089L468.24 7.5843L476.756 2V5.12221L471.311 8.67261L471.936 10.7065H476.756V13.2935Z" fill="white"/>
<path d="M479.363 2L487.88 7.5843L486.488 12.0089L487.88 16.4335L479.363 22V18.8778L484.827 15.3274L484.184 13.2935H479.363V10.7065H484.184L484.827 8.67261L479.363 5.12221V2Z" fill="white"/>
<path d="M845.128 19.0002L847.688 17.0002H853C853.53 17.0002 854.039 16.7895 854.414 16.4144C854.789 16.0393 855 15.5306 855 15.0002V7.00018H857C857.265 7.00018 857.519 7.10554 857.707 7.29308C857.895 7.48061 858 7.73497 858 8.00018V18.0002C858 18.2654 857.895 18.5198 857.707 18.7073C857.519 18.8948 857.265 19.0002 857 19.0002H855V23.0002L849 19.0002H845.128Z" fill="white"/>
<path d="M837 3.00018H852C852.265 3.00018 852.52 3.10554 852.707 3.29308C852.895 3.48061 853 3.73497 853 4.00018V14.0002C853 14.2654 852.895 14.5198 852.707 14.7073C852.52 14.8948 852.265 15.0002 852 15.0002H847L840 20.4702V15.0002H837C836.735 15.0002 836.48 14.8948 836.293 14.7073C836.105 14.5198 836 14.2654 836 14.0002V4.00018C836 3.73497 836.105 3.48061 836.293 3.29308C836.48 3.10554 836.735 3.00018 837 3.00018Z" fill="white"/>
<path d="M914.957 2.00018C915.304 2.00018 915.565 2.08718 915.739 2.26018C915.913 2.43518 916 2.69618 916 2.95718C915.995 2.98487 915.984 3.04763 915.969 3.14197L915.969 3.143C915.818 4.07964 915.168 8.11232 913.558 11.8342C908.918 13.4182 906.472 14.2982 906.22 14.4772C905.927 14.6842 905.927 14.8382 906.22 14.9392L912.165 14.5132C911.696 15.2702 911.145 15.9732 910.522 16.6092C908.782 18.3482 906.696 19.2172 904.435 19.2172C902.885 19.2172 901.643 18.8352 900.92 18.5012L900.783 18.4352L898.348 20.8702C898.272 20.955 898.177 21.0222 898.072 21.0671C897.967 21.112 897.853 21.1335 897.739 21.1302C897.534 21.1302 897.382 21.0762 897.199 21.0112L897.164 20.9986C897.141 20.9907 897.118 20.9826 897.095 20.9745C897.078 20.9687 897.061 20.963 897.043 20.9572C896.891 20.8133 896.799 20.6178 896.784 20.4092C896.77 20.2006 896.833 19.9941 896.963 19.8302L897.043 19.7402L899.565 17.2172L908.022 9.18418C908.254 8.95218 905.262 10.9642 899.043 15.2172C898.609 13.1302 898.783 10.1742 901.478 7.47818C902.103 6.85418 902.873 6.28918 903.727 5.78218C903.859 5.85718 903.977 5.95018 904.084 6.05818C904.642 6.62905 904.633 7.70648 904.627 8.38697C904.623 8.87825 904.62 9.16264 904.834 8.90018C905.201 8.45018 905.835 7.07018 905.779 4.72818C909.486 3.06316 913.745 2.23684 914.748 2.04239L914.836 2.02518L914.957 2.00018Z" fill="white"/>
<path d="M947.5 13.0002H954.5C954.776 13.0002 955 13.224 955 13.5002V20.5002C955 20.7763 954.776 21.0002 954.5 21.0002H947.5C947.224 21.0002 947 20.7763 947 20.5002V13.5002C947 13.224 947.224 13.0002 947.5 13.0002Z" fill="white"/>
<path d="M966.5 13.0002H959.5C959.224 13.0002 959 13.224 959 13.5002V20.5002C959 20.7763 959.224 21.0002 959.5 21.0002H966.5C966.776 21.0002 967 20.7763 967 20.5002V13.5002C967 13.224 966.776 13.0002 966.5 13.0002Z" fill="white"/>
<path d="M962.661 0.064209L958.064 4.66021L962.661 9.25621L967.257 4.66021L962.661 0.064209Z" fill="white"/>
<path d="M954.5 1.00018H947.5C947.224 1.00018 947 1.22404 947 1.50018V8.50018C947 8.77633 947.224 9.00018 947.5 9.00018H954.5C954.776 9.00018 955 8.77633 955 8.50018V1.50018C955 1.22404 954.776 1.00018 954.5 1.00018Z" fill="white"/>
<path d="M1158.67 5.16685V9.33352C1160.51 9.33352 1162 10.8285 1162 12.6668C1162 14.5052 1160.51 16.0002 1158.67 16.0002V20.1668C1158.67 20.6269 1158.29 21.0002 1157.83 21.0002H1153.67C1153.67 19.1593 1152.17 17.6668 1150.33 17.6668C1148.49 17.6668 1147 19.1593 1147 21.0002H1142.83C1142.37 21.0002 1142 20.6269 1142 20.1668V16.0002C1143.84 16.0002 1145.33 14.5077 1145.33 12.6668C1145.33 10.826 1143.84 9.33352 1142 9.33352V5.16685C1142 4.70685 1142.37 4.33352 1142.83 4.33352H1147C1147 2.49518 1148.49 1.00018 1150.33 1.00018C1152.17 1.00018 1153.67 2.49518 1153.67 4.33352H1157.83C1158.29 4.33352 1158.67 4.70685 1158.67 5.16685Z" fill="white"/>
</g>
<defs>
<clipPath id="clip0_552_431">
<rect width="1162" height="24" fill="white"/>
</clipPath>
</defs>
</svg>
