<svg width="100" height="100" viewBox="0 0 100 100" fill="none" xmlns="http://www.w3.org/2000/svg">
<path opacity="0.2" fill-rule="evenodd" clip-rule="evenodd" d="M90 50C90 72.0916 72.0916 90 50 90C27.9076 90 10 72.0916 10 50C10 27.9084 27.9076 10 50 10C72.0916 10 90 27.9084 90 50Z" stroke="white" stroke-width="0.987654"/>
<path opacity="0.5" fill-rule="evenodd" clip-rule="evenodd" d="M48.5014 3.34125L50.3342 0L49.0164 0.0609009L47.7477 2.49233L46.257 0.189162L44.9393 0.250986L47.08 3.40768L45.201 6.80614L46.5261 6.74432L47.8309 4.27506L49.3558 6.61237L50.6856 6.54962L48.5014 3.34125ZM55.154 0.242035C55.6876 0.296477 56.1462 0.471798 56.5318 0.769843C56.9175 1.06697 57.1986 1.46744 57.3733 1.96941C57.549 2.4723 57.6055 3.04256 57.5435 3.67925L57.5056 4.04189C57.4399 4.68134 57.2716 5.2313 57.0007 5.69082C56.7297 6.15127 56.3746 6.489 55.9363 6.70584C55.4989 6.92176 55.0107 7.00296 54.4752 6.94852C53.9454 6.89408 53.4858 6.71691 53.0974 6.41518C52.709 6.11529 52.426 5.71389 52.2494 5.21284C52.0728 4.7118 52.0145 4.148 52.0765 3.5233L52.1144 3.15605C52.1791 2.51936 52.3493 1.96941 52.6258 1.50527C52.9013 1.04113 53.2592 0.700638 53.6975 0.484716C54.0724 0.29964 54.4834 0.213543 54.9285 0.227005C55.0027 0.229249 55.0779 0.234258 55.154 0.242035ZM42.9511 0.508707L43.1222 1.41207L40.052 1.98971L40.3886 3.7706L43.0417 3.27047L43.21 4.1563L40.557 4.65551L40.9315 6.6394L44.0321 6.05531L44.2023 6.94944L39.9781 7.74485L38.7583 1.29857L42.9511 0.508707ZM62.4045 1.61591L60.5272 1.12132L58.8489 7.46424L60.6789 7.94591C61.2522 8.09724 61.7932 8.10739 62.3027 7.97729C62.8113 7.8481 63.246 7.58697 63.6075 7.19388C63.9673 6.80079 64.228 6.30343 64.3862 5.70273L64.4703 5.38438C64.6275 4.79198 64.6479 4.23557 64.5304 3.7133C64.413 3.19195 64.1698 2.74903 63.8008 2.38455C63.4309 2.02007 62.9658 1.76354 62.4045 1.61591ZM67.7074 3.22415L68.7505 3.67722L66.9953 7.70129C66.8205 8.10269 66.7882 8.45425 66.9001 8.75506C67.0119 9.05588 67.2663 9.29302 67.6639 9.46558C68.4693 9.81529 69.0584 9.56615 69.4274 8.71815L71.1686 4.7273L72.2117 5.18036L70.4584 9.19983C70.1801 9.83929 69.7547 10.2564 69.1823 10.4511C68.608 10.6467 67.982 10.5959 67.2995 10.2997C66.6097 9.99984 66.1418 9.57815 65.8967 9.03466C65.6517 8.49116 65.6711 7.8923 65.9559 7.23992L67.7074 3.22415ZM76.5473 7.56334C75.9619 7.19886 75.396 7.04845 74.8476 7.1112C74.2992 7.17395 73.8849 7.42955 73.6048 7.878C73.2857 8.39104 73.2802 8.96407 73.589 9.59891C73.7518 9.93018 74.0153 10.303 74.3806 10.7173C74.7459 11.1325 74.9734 11.4592 75.0631 11.6991C75.1518 11.939 75.1204 12.1817 74.9678 12.4262C74.8282 12.6504 74.6303 12.7778 74.3751 12.8082C74.1198 12.8396 73.8239 12.7501 73.4864 12.5397C73.0962 12.297 72.8502 12.0239 72.7494 11.7203C72.6477 11.4167 72.6957 11.1067 72.8927 10.7902L71.9236 10.1876C71.7053 10.5364 71.6083 10.9009 71.6323 11.2811C71.6554 11.6603 71.7895 12.0294 72.0355 12.3893C72.2815 12.7482 72.6051 13.0537 73.0092 13.3046C73.6196 13.6848 74.1883 13.8481 74.7172 13.7955C75.2443 13.7439 75.6521 13.4855 75.9425 13.0214C76.121 12.7362 76.2153 12.4483 76.2245 12.1595C76.2356 11.8707 76.1607 11.5616 75.9998 11.234C75.8389 10.9055 75.5828 10.542 75.2286 10.1433C74.8744 9.74471 74.6451 9.41805 74.5415 9.1643C74.4379 8.91055 74.449 8.68171 74.5767 8.47686C74.7283 8.2351 74.9336 8.1013 75.1925 8.07454C75.4524 8.04871 75.7409 8.1336 76.0572 8.33106C76.3975 8.54237 76.6064 8.7869 76.6869 9.06464C76.7664 9.34239 76.7165 9.62752 76.5343 9.91818L77.4997 10.518C77.7004 10.1968 77.7975 9.85082 77.7883 9.47803C77.779 9.10709 77.6671 8.7546 77.4526 8.42242C77.2371 8.09115 76.9356 7.80418 76.5473 7.56334ZM84.9866 14.3018L83.1806 12.555L78.6041 17.2656L79.4252 18.0592L81.1221 16.3124L82.0977 17.2564C82.6451 17.7851 83.1944 18.0675 83.7484 18.1044C84.3013 18.1413 84.8026 17.9291 85.2511 17.4668C85.6903 17.0155 85.8863 16.5025 85.8429 15.9286C85.7994 15.3537 85.5137 14.812 84.9866 14.3018ZM88.3138 17.7911L89.0045 18.6935L85.5081 21.3557C85.1586 21.6214 84.9598 21.913 84.9108 22.2304C84.8617 22.5469 84.9681 22.8773 85.2307 23.2214C85.7652 23.919 86.3996 23.9864 87.1366 23.4254L90.6043 20.7854L91.2942 21.6878L87.8024 24.3472C87.2466 24.7698 86.6714 24.9276 86.0759 24.8196C85.4804 24.7126 84.9579 24.3638 84.5066 23.7742C84.0498 23.1771 83.8464 22.5811 83.8982 21.9868C83.949 21.3926 84.2588 20.8795 84.8257 20.4477L88.3138 17.7911ZM93.8706 25.9676L92.784 23.9976L87.0239 27.1598L88.1798 29.2553C88.5358 29.9003 88.9538 30.3165 89.4337 30.5029C89.9155 30.6902 90.425 30.6348 90.966 30.3386C91.2934 30.1587 91.5273 29.9206 91.667 29.6217C91.8075 29.3245 91.8334 28.997 91.7465 28.6399C92.0128 28.8503 92.2911 28.9684 92.5815 28.9942C92.87 29.021 93.1465 28.9619 93.4101 28.817C93.9279 28.5328 94.2229 28.1499 94.2969 27.6673C94.3709 27.1838 94.2285 26.6172 93.8706 25.9676ZM96.105 30.4794L96.5119 31.5442L91.2234 33.5604L92.2877 36.3425L91.4361 36.6673L89.9629 32.8204L96.105 30.4794ZM98.4815 37.589L98.1874 36.4928L91.8373 38.1915L92.1323 39.2878L98.4815 37.589ZM97.793 40.6027C97.2936 40.455 96.7369 40.4264 96.1238 40.5178L95.5163 40.6082C94.9189 40.706 94.4093 40.8952 93.9886 41.1766C93.5678 41.458 93.2645 41.8133 93.0777 42.2433C92.8909 42.6733 92.8354 43.1467 92.9131 43.6643C93.0232 44.4034 93.3061 44.9672 93.7611 45.3557C94.2161 45.7433 94.795 45.9186 95.4987 45.8807L95.3313 44.7578C94.8578 44.767 94.5046 44.6756 94.2725 44.4819C94.0395 44.289 93.8906 43.9716 93.824 43.5287C93.7528 43.0442 93.8813 42.6493 94.2142 42.3439C94.5462 42.0375 95.0641 41.8318 95.7669 41.7284L96.3439 41.6426C97.0384 41.5448 97.5858 41.6011 97.9844 41.8105C98.382 42.02 98.6178 42.3706 98.6909 42.8606C98.7547 43.2823 98.6983 43.6182 98.5244 43.8673C98.3496 44.1165 98.0325 44.3019 97.5729 44.4247L97.7412 45.5486C98.4421 45.3714 98.9544 45.0355 99.2772 44.5409C99.6008 44.0463 99.709 43.441 99.6027 42.7259C99.5231 42.1935 99.3271 41.7441 99.0127 41.3759C98.6992 41.0077 98.2932 40.7494 97.793 40.6027ZM90.1735 26.7316L88.374 27.7199L88.9852 28.829C89.1572 29.1418 89.3708 29.3439 89.6233 29.4353C89.8767 29.5257 90.1411 29.4953 90.4186 29.3439C91.0169 29.0145 91.1546 28.5411 90.831 27.9238L90.1735 26.7316ZM90.9096 26.3275L92.5279 25.4398L93.0633 26.4105C93.252 26.7529 93.3269 27.0389 93.2899 27.2705C93.2529 27.5021 93.091 27.6959 92.8072 27.8518C92.5482 27.994 92.3004 28.017 92.0627 27.9192C91.8251 27.8214 91.6198 27.6166 91.4496 27.3065L90.9096 26.3275ZM83.359 14.0083L81.762 15.6517L82.7487 16.6049C83.04 16.8873 83.3295 17.034 83.6161 17.046C83.9028 17.0571 84.1719 16.9334 84.4225 16.675C84.6703 16.4204 84.7896 16.1417 84.7813 15.839C84.7739 15.5364 84.6361 15.2513 84.3679 14.9837L83.359 14.0083ZM60.186 6.87553L61.3965 2.30058L62.1696 2.50451C62.7392 2.65491 63.1267 2.95111 63.331 3.39311C63.5345 3.8351 63.5447 4.39982 63.3634 5.08818L63.2691 5.44067C63.0851 6.11612 62.7901 6.5941 62.3841 6.87369C61.9782 7.1542 61.4862 7.21787 60.9073 7.06469L60.186 6.87553ZM55.0569 1.18323C54.5668 1.13248 54.1617 1.28566 53.8464 1.64183C53.5302 1.99709 53.3323 2.52582 53.2546 3.2271L53.2157 3.60358C53.1427 4.32055 53.2259 4.88988 53.4663 5.30973C53.7049 5.72958 54.0739 5.96488 54.5714 6.01563C55.0745 6.0673 55.4804 5.91505 55.7911 5.56072C56.1009 5.20546 56.2942 4.66104 56.3691 3.92562L56.4042 3.58513C56.4782 2.8617 56.3978 2.29421 56.1638 1.8799C55.9298 1.46744 55.5609 1.23491 55.0569 1.18323ZM61.2831 98.6923L60.0578 92.2469L55.8346 93.046L56.0057 93.9402L59.1054 93.3533L59.4827 95.3363L56.8296 95.8382L56.9979 96.7241L59.651 96.2221L59.9885 98.0021L56.9193 98.5825L57.0904 99.4858L61.2831 98.6923ZM66.5007 92.646C66.779 92.539 67.0333 92.5335 67.2654 92.6294C67.4985 92.7245 67.6677 92.9016 67.774 93.16L67.8471 93.3492C67.9497 93.6158 67.9497 93.8659 67.8452 94.1012C67.7417 94.3356 67.5493 94.5072 67.2682 94.6161C66.9788 94.7277 66.717 94.7305 66.4831 94.6262C66.2491 94.522 66.079 94.3328 65.9726 94.0578L65.9116 93.9019C65.8099 93.6389 65.8108 93.3916 65.9125 93.16C66.0161 92.9293 66.2121 92.7577 66.5007 92.646ZM75.773 86.6668C75.331 86.3964 74.863 86.2681 74.3711 86.282C73.8791 86.2958 73.3992 86.4499 72.9331 86.7424C72.48 87.0266 72.1166 87.3487 71.8447 87.7067C71.5728 88.0656 71.4184 88.4384 71.3823 88.8269L72.7232 90.9557L74.8335 89.6324L74.372 88.8998L73.2253 89.6195L72.5401 88.5316C72.6085 88.1773 72.8897 87.8442 73.3835 87.5341C73.8357 87.2518 74.2925 87.1964 74.7548 87.369C75.2172 87.5415 75.637 87.9281 76.0143 88.527L76.2834 88.9542C76.6552 89.5614 76.8263 90.091 76.7967 90.5432C76.7671 90.9963 76.5359 91.3589 76.1022 91.6302C75.4318 92.0509 74.8325 91.9596 74.3045 91.358L73.3557 91.9522C73.7922 92.4809 74.2888 92.7845 74.8455 92.862C75.404 92.9405 75.9921 92.7845 76.6117 92.3961C77.333 91.9439 77.7464 91.3561 77.8509 90.6318C77.9572 89.9074 77.7454 89.1259 77.2174 88.2862L76.9437 87.8516C76.6062 87.3321 76.2159 86.9371 75.773 86.6668ZM80.6312 80.8795L84.9682 85.8088L84.11 86.5608L78.8122 84.9857L81.9018 88.4958L81.0501 89.2423L76.7112 84.313L77.5703 83.561L82.8496 85.1287L79.7721 81.6315L80.6312 80.8795ZM87.6194 82.9274L82.7285 78.5444L81.9683 79.3896L86.8593 83.7727L87.6194 82.9274ZM86.6421 73.4406L91.9862 77.2617L90.6388 79.1376C90.1968 79.7522 89.7178 80.1277 89.2009 80.2643C88.6839 80.4009 88.1633 80.2818 87.639 79.9072C87.282 79.6516 87.0444 79.3517 86.926 79.0066C86.8086 78.6624 86.7956 78.2896 86.8872 77.8892L83.8013 77.4952L83.7533 77.461L84.4672 76.4691L87.2904 76.8695L88.0311 75.837L85.9772 74.3671L86.6421 73.4406ZM88.0967 77.3245L88.7801 76.3722L90.5713 77.6529L89.8695 78.6311C89.6327 78.9494 89.3775 79.1339 89.1047 79.1847C88.8319 79.2355 88.5517 79.1579 88.265 78.9531C87.9913 78.7565 87.8387 78.5148 87.8073 78.226C87.7758 77.9372 87.8729 77.6373 88.0967 77.3245ZM89.4301 68.3728L95.2541 71.4169L93.2742 75.189L92.4595 74.7618L93.9086 72.0001L92.3005 71.1594L91.0475 73.5466L90.2476 73.1286L91.5006 70.7414L89.7085 69.8049L88.2446 72.5952L87.4364 72.1726L89.4301 68.3728ZM97.6676 65.3408L91.4903 63.0949L91.0992 64.1662L93.7171 65.1175L92.8118 67.5988L93.6681 67.9097L94.5743 65.4294L96.4108 66.0975L95.3724 68.9423L96.2379 69.2569L97.6676 65.3408ZM92.8398 57.6097L99.2575 59.0298L98.3521 63.0991L97.4533 62.8998L98.1108 59.9442L96.2012 59.5216L95.6288 62.0989L94.7383 61.9023L95.3107 59.3242L92.592 58.7225L92.8398 57.6097ZM96.9852 50.7683L96.6171 50.7416C96.5273 50.7354 96.4388 50.7316 96.3518 50.7301C95.8292 50.7217 95.356 50.7993 94.9295 50.963C94.432 51.154 94.039 51.4465 93.7486 51.8424C93.4583 52.2382 93.2937 52.7015 93.2539 53.232C93.2141 53.7682 93.3094 54.2517 93.5387 54.6826C93.768 55.1135 94.1167 55.4577 94.5846 55.7151C95.0534 55.9726 95.6092 56.1248 96.251 56.1719L96.6162 56.1987C97.2561 56.2429 97.8249 56.17 98.3233 55.9809C98.8217 55.7917 99.2147 55.5011 99.5023 55.1071C99.7881 54.7149 99.9517 54.2517 99.9915 53.7183C100.03 53.185 99.936 52.7024 99.7067 52.2724C99.4774 51.8405 99.1269 51.4945 98.6543 51.2325C98.1809 50.9695 97.626 50.8154 96.9852 50.7683ZM96.5681 51.8811C95.8487 51.8276 95.28 51.9273 94.8666 52.1773C94.4533 52.4293 94.2276 52.803 94.1907 53.3003C94.1537 53.8041 94.3164 54.2055 94.6817 54.5045C95.046 54.8044 95.5972 54.9806 96.3351 55.0351L96.6773 55.06C97.4041 55.1135 97.9719 55.0175 98.3788 54.7721C98.7857 54.5266 99.0085 54.152 99.0464 53.6482C99.0825 53.1573 98.9179 52.7587 98.5517 52.4532C98.1874 52.1478 97.6519 51.966 96.9464 51.9079L96.5681 51.8811ZM52.9604 96.5896L54.8367 93.1892L53.5106 93.252L52.2086 95.7231L50.6828 93.3858L49.3521 93.4495L51.5391 96.6569L49.7091 100L51.0268 99.9373L52.2937 97.5049L53.7862 99.8062L55.103 99.7444L52.9604 96.5896ZM45.5616 93.0551C46.0915 93.1086 46.5511 93.2858 46.9395 93.5866C47.3279 93.8865 47.6118 94.2879 47.7884 94.7889C47.9659 95.29 48.0242 95.8528 47.9632 96.4775L47.9262 96.8448C47.8614 97.4815 47.6913 98.0323 47.4157 98.4956C47.1401 98.9597 46.7832 99.3011 46.3449 99.517C45.9075 99.7339 45.4211 99.816 44.8884 99.7616C44.3548 99.7071 43.8962 99.5318 43.5096 99.2347C43.124 98.9376 42.8429 98.538 42.6681 98.0351C42.4915 97.5331 42.4351 96.9629 42.4961 96.3262L42.5331 95.9636C42.5988 95.3241 42.7661 94.7741 43.0371 94.3137C43.308 93.8542 43.6622 93.5146 44.1005 93.2987C44.4763 93.1128 44.8879 93.0266 45.3351 93.04C45.4096 93.0423 45.4851 93.0473 45.5616 93.0551ZM39.3578 92.0607C38.7845 91.9103 38.2426 91.9011 37.734 92.0312C37.2254 92.1613 36.7899 92.4224 36.4292 92.8165C36.0695 93.2086 35.8106 93.706 35.6515 94.3076L35.5674 94.6259C35.4111 95.2184 35.3917 95.7748 35.5091 96.297C35.6275 96.8184 35.8707 97.2613 36.2396 97.6258C36.6095 97.9893 37.0756 98.2449 37.6369 98.3926L39.5141 98.8853L41.1879 92.5415L39.3578 92.0607ZM45.4664 93.987C44.9633 93.9363 44.5574 94.0885 44.2476 94.4429C43.9378 94.7981 43.7454 95.3435 43.6705 96.0789L43.6354 96.4194C43.5623 97.1428 43.6428 97.7103 43.8767 98.1237C44.1116 98.5371 44.4815 98.7696 44.9846 98.8204C45.4756 98.8702 45.8797 98.717 46.1951 98.3608C46.5113 98.0056 46.7083 97.4759 46.785 96.7747L46.8239 96.3982C46.8969 95.6812 46.8128 95.1119 46.5733 94.6929C46.3328 94.2731 45.9639 94.0378 45.4664 93.987ZM37.6536 93.1348C38.0586 92.8543 38.5506 92.7906 39.1294 92.9419L39.8507 93.132L38.644 97.707L37.8718 97.504C37.3012 97.3545 36.9138 97.0583 36.7094 96.6163C36.505 96.1743 36.4939 95.6096 36.6752 94.9212L36.7686 94.5678C36.9526 93.8933 37.2476 93.4153 37.6536 93.1348ZM30.852 89.5629C31.4245 89.3672 32.0523 89.418 32.7339 89.7133C33.4247 90.0122 33.8926 90.4339 34.1385 90.9774C34.3836 91.5209 34.3651 92.1189 34.0803 92.7722L32.3325 96.7889L31.2885 96.3367L33.0409 92.3117C33.2157 91.9094 33.2471 91.5578 33.1352 91.257C33.0233 90.9571 32.7681 90.72 32.3705 90.5474C31.5641 90.1986 30.9769 90.4478 30.607 91.2967L28.8703 95.2885L27.8263 94.8363L29.5759 90.815C29.8543 90.1765 30.2796 89.7585 30.852 89.5629ZM27.0223 86.7125C26.4119 86.3333 25.8423 86.17 25.3152 86.2225C24.7881 86.2751 24.3794 86.5344 24.0899 86.9986C23.9114 87.2837 23.8171 87.5716 23.8079 87.8604C23.7977 88.1492 23.8726 88.4584 24.0335 88.7859C24.1944 89.1144 24.4515 89.4771 24.8057 89.8757C25.1598 90.2743 25.3892 90.6 25.4927 90.8538C25.5972 91.1085 25.5861 91.3373 25.4585 91.5412C25.3078 91.7839 25.1025 91.9177 24.8427 91.9445C24.5837 91.9703 24.2952 91.8854 23.979 91.6889C23.6386 91.4776 23.4287 91.233 23.3483 90.9553C23.2678 90.6775 23.3187 90.3933 23.4999 90.1027L22.5336 89.502C22.3329 89.824 22.2377 90.171 22.2469 90.5419C22.2562 90.9147 22.369 91.2663 22.5835 91.5975C22.799 91.9288 23.1005 92.2158 23.4888 92.4566C24.0742 92.8201 24.6411 92.9706 25.1894 92.9069C25.7369 92.8441 26.1512 92.5885 26.4313 92.1392C26.7504 91.627 26.7559 91.0531 26.4452 90.4183C26.2834 90.0879 26.0189 89.7151 25.6536 89.3008C25.2884 88.8865 25.06 88.5599 24.9703 88.3199C24.8806 88.08 24.912 87.8373 25.0646 87.5928C25.2042 87.3677 25.4021 87.2403 25.6573 87.2099C25.9126 87.1785 26.2085 87.268 26.546 87.4775C26.9363 87.7202 27.1832 87.9933 27.284 88.2969C27.3857 88.6004 27.3385 88.9105 27.1406 89.227L28.1107 89.8286C28.3289 89.4798 28.426 89.1153 28.401 88.7352C28.3779 88.3559 28.2429 87.9868 27.9969 87.6279C27.7509 87.268 27.4264 86.9635 27.0223 86.7125ZM16.2795 81.9204C16.8325 81.9563 17.3837 82.2387 17.9302 82.7674L18.9067 83.7105L20.6027 81.9619L21.4238 82.7545L16.8519 87.4688L15.045 85.7239C14.517 85.2136 14.2303 84.672 14.1859 84.098C14.1425 83.5241 14.3394 83.011 14.7768 82.5589C15.1805 82.1428 15.6269 81.9285 16.1153 81.9168C16.1695 81.9155 16.2243 81.9167 16.2795 81.9204ZM15.6063 83.3497C15.8569 83.0913 16.126 82.9677 16.4127 82.9787C16.6993 82.9898 16.9879 83.1365 17.2801 83.4189L18.2668 84.3712L16.6716 86.0155L15.6627 85.0411C15.3945 84.7735 15.2558 84.4883 15.2475 84.1866C15.2392 83.883 15.3594 83.6053 15.6063 83.3497ZM12.2209 75.6808C12.7758 75.2572 13.351 75.0994 13.9465 75.2074C14.542 75.3144 15.0654 75.6623 15.5167 76.252C15.9735 76.849 16.1779 77.4441 16.127 78.0384C16.0762 78.6326 15.7673 79.1466 15.2014 79.5784L11.7142 82.2378L11.0225 81.3353L14.5171 78.6714C14.8666 78.4047 15.0654 78.1131 15.1144 77.7957C15.1635 77.4792 15.0553 77.1489 14.7926 76.8047C14.2581 76.108 13.6238 76.0397 12.8868 76.6017L9.42178 79.2453L8.73007 78.3429L12.2209 75.6808ZM10.5837 69.5259C10.1028 69.3395 9.59239 69.3949 9.05142 69.692C8.72499 69.8719 8.49103 70.1109 8.35139 70.409C8.21176 70.7061 8.18587 71.0337 8.27279 71.3908C8.00554 71.1813 7.7272 71.0632 7.43868 71.0374C7.14924 71.0106 6.87274 71.0706 6.60919 71.2154C6.09134 71.4996 5.79728 71.8826 5.7233 72.3661C5.64932 72.8487 5.79265 73.4153 6.15053 74.0649L7.23894 76.034L12.9963 72.8681L11.8395 70.7725C11.4835 70.1275 11.0646 69.7123 10.5837 69.5259ZM7.95746 72.1124C7.7198 72.0145 7.47197 72.0367 7.21305 72.1797C6.92823 72.3357 6.76732 72.5294 6.73033 72.761C6.69335 72.9926 6.76917 73.2787 6.95782 73.621L7.49417 74.5918L9.11153 73.7022L8.57056 72.7241C8.39948 72.4141 8.19512 72.2092 7.95746 72.1124ZM9.60071 70.6858C9.87721 70.5345 10.1426 70.5031 10.3951 70.5944C10.6484 70.6849 10.8611 70.8869 11.0341 71.1998L11.6462 72.3089L9.84669 73.2981L9.18921 72.1059C8.86462 71.4886 9.00241 71.0152 9.60071 70.6858ZM8.5774 63.3642L10.0533 67.2102L3.91304 69.5549L3.50523 68.491L8.79286 66.4711L7.72572 63.6899L8.5774 63.3642ZM8.17486 61.8399L7.87895 60.7437L1.53064 62.448L1.82563 63.5442L8.17486 61.8399ZM4.50875 54.1548C5.21248 54.116 5.79136 54.2904 6.24633 54.678C6.7013 55.0655 6.98519 55.6293 7.09616 56.3694C7.17384 56.8861 7.11928 57.3604 6.93248 57.7895C6.74569 58.2204 6.44237 58.5756 6.02162 58.858C5.60179 59.1385 5.09226 59.3286 4.49581 59.4273L3.88825 59.5178C3.27423 59.6091 2.71847 59.5814 2.21818 59.4347C1.71883 59.2871 1.31102 59.0296 0.997534 58.6624C0.684049 58.2942 0.48708 57.8448 0.407553 57.3124C0.300284 56.5973 0.407553 55.992 0.73121 55.4974C1.05394 55.0019 1.56625 54.666 2.26719 54.4888L2.4355 55.6118C1.9759 55.7345 1.65872 55.9209 1.48487 56.171C1.31009 56.4201 1.25461 56.7551 1.31842 57.1768C1.39147 57.6677 1.6282 58.0174 2.02584 58.2259C2.4244 58.4354 2.97184 58.4917 3.66632 58.3939L4.24335 58.3071C4.94708 58.2029 5.464 57.9971 5.79598 57.6907C6.12796 57.3844 6.25743 56.9894 6.18437 56.505C6.11872 56.063 5.96891 55.7447 5.73588 55.5518C5.50377 55.359 5.15052 55.2676 4.67705 55.2768L4.50875 54.1548ZM3.74622 43.865L3.38187 43.8383C3.29048 43.8321 3.20055 43.8282 3.11206 43.8268C2.58095 43.8181 2.10206 43.8948 1.67481 44.0569C1.17638 44.247 0.78429 44.5386 0.497622 44.9317C0.21003 45.3248 0.0472763 45.788 0.00843741 46.3214C-0.0304015 46.8547 0.0648462 47.3373 0.29418 47.7673C0.523515 48.1982 0.874914 48.5452 1.34838 48.8063C1.82092 49.0684 2.37668 49.2225 3.0166 49.2686L3.38557 49.2963C4.01346 49.3387 4.5757 49.2649 5.07229 49.073C5.56979 48.882 5.96281 48.5885 6.25317 48.1917C6.54261 47.7959 6.70722 47.3327 6.74606 46.803C6.78489 46.266 6.68965 45.7834 6.46031 45.3525C6.23098 44.9216 5.88143 44.5774 5.41351 44.3209C4.94467 44.0634 4.38891 43.9121 3.74622 43.865ZM3.32084 44.9769C2.59492 44.9243 2.02713 45.0203 1.62025 45.2667C1.21337 45.513 0.990506 45.8867 0.954441 46.3906C0.918377 46.8815 1.08298 47.2801 1.44825 47.5855C1.81444 47.89 2.34987 48.0718 3.05451 48.129L3.43273 48.1567C4.1531 48.2084 4.72089 48.1096 5.13424 47.8577C5.54852 47.6067 5.77323 47.2321 5.8093 46.7347C5.84629 46.2309 5.68261 45.8305 5.31826 45.5315C4.95299 45.2316 4.40185 45.0554 3.66299 45.0018L3.32084 44.9769ZM2.54064 37.1358L1.64087 36.9374L0.74018 41.0067L7.15876 42.4231L7.40567 41.3094L4.68602 40.7096L5.25659 38.1315L4.36607 37.9349L3.79458 40.5131L1.88593 40.0923L2.54064 37.1358ZM3.75056 30.7782L4.61611 31.0929L3.57949 33.9386L5.41786 34.6048L6.32132 32.1236L7.17855 32.4346L6.27416 34.9158L8.89301 35.8653L8.50277 36.9366L2.3237 34.6953L3.75056 30.7782ZM7.52635 25.2694L6.70981 24.8431L4.73272 28.6171L10.5595 31.6557L12.5504 27.8549L11.7422 27.4332L10.2802 30.2236L8.48715 29.2888L9.73831 26.9008L8.93842 26.4837L7.68725 28.8718L6.07821 28.0321L7.52635 25.2694ZM10.7796 19.7644C11.2974 19.6269 11.818 19.7459 12.3414 20.1206C12.6993 20.3762 12.937 20.6761 13.0553 21.0202C13.1728 21.3653 13.1866 21.7372 13.0951 22.1377L16.1809 22.5298L16.229 22.5631L15.517 23.5569L12.6928 23.1582L11.9521 24.1917L14.0087 25.6598L13.3429 26.5862L7.99704 22.7688L9.34253 20.8929C9.78362 20.2774 10.2636 19.901 10.7796 19.7644ZM10.1128 21.3986C10.3486 21.0802 10.6039 20.8947 10.8767 20.844C10.9156 20.8367 10.9548 20.8321 10.994 20.8301C11.2296 20.818 11.4706 20.9 11.7163 21.0756C11.99 21.2712 12.1435 21.513 12.175 21.8018C12.2064 22.0906 12.1103 22.3914 11.8865 22.7033L11.2031 23.6565L9.41096 22.3767L10.1128 21.3986ZM13.1193 16.254L18.014 20.6333L17.2538 21.4786L12.3592 17.0992L13.1193 16.254ZM23.267 15.7057L18.9254 10.7801L18.0737 11.5266L21.166 15.0349L15.8663 13.4634L15.0082 14.2164L19.3498 19.1429L20.208 18.39L17.1277 14.8946L22.4088 16.4587L23.267 15.7057ZM25.125 7.15595C25.6826 7.23346 26.1792 7.53612 26.6147 8.06485L25.6678 8.66002C25.1388 8.05839 24.5396 7.96797 23.8692 8.38874C23.4364 8.66094 23.2052 9.02358 23.1766 9.47665C23.147 9.92879 23.319 10.4584 23.6907 11.0656L23.9598 11.4919C24.338 12.0917 24.7579 12.4765 25.2211 12.649C25.6835 12.8216 26.1394 12.7653 26.5907 12.4829C27.0854 12.172 27.3656 11.8398 27.434 11.4845L26.7488 10.3985L25.6021 11.1182L25.1398 10.3855L27.25 9.06141L28.5918 11.1883C28.5557 11.5768 28.4013 11.9505 28.1304 12.3095C27.8585 12.6684 27.496 12.9895 27.042 13.2747C26.5759 13.5672 26.0969 13.7213 25.6049 13.736C25.112 13.7499 24.645 13.6225 24.2021 13.3522C23.7601 13.0818 23.3689 12.6869 23.0314 12.1683L22.7567 11.7337C22.2278 10.8949 22.016 10.1133 22.1205 9.38899C22.2259 8.66464 22.6393 8.07593 23.3597 7.62286C23.9783 7.23439 24.5674 7.07844 25.125 7.15595ZM33.4865 5.3854C33.2526 5.28113 32.9899 5.28482 32.7014 5.39647C32.4203 5.50535 32.228 5.67698 32.1244 5.91136C32.0199 6.14666 32.0199 6.39764 32.1225 6.66339L32.1965 6.85256C32.3029 7.11092 32.4721 7.28809 32.7051 7.38313C32.9372 7.47818 33.1925 7.47264 33.4699 7.3656C33.7593 7.25395 33.9554 7.08232 34.0571 6.85071C34.1597 6.62003 34.1597 6.37181 34.058 6.10883L33.997 5.95381C33.8906 5.67975 33.7205 5.48967 33.4865 5.3854Z" fill="white"/>
<path opacity="0.25" d="M70.9974 35.1384C71.0009 40.6231 71.0009 44.5686 70.9974 46.9748C70.9797 59.5141 63.9801 69.3692 49.9989 76.54C36.0191 69.3681 29.0203 59.5134 29.0026 46.9748C28.9991 44.5686 28.9991 40.6231 29.0026 35.1384L50 27.3213L70.9974 35.1384Z" fill="url(#paint0_linear_519_8786)"/>
<path opacity="0.5" d="M67.7166 37.8251C67.7195 42.4323 67.7195 45.7465 67.7166 47.7677C67.7016 58.3007 61.7957 66.579 49.999 72.6025C38.2036 66.5781 32.2984 58.3002 32.2834 47.7677C32.2805 45.7465 32.2805 42.4323 32.2834 37.8251L50 31.2588L67.7166 37.8251Z" fill="url(#paint1_linear_519_8786)"/>
<path d="M50.0001 27.3213L70.9975 35.1384C70.9978 35.5166 70.998 35.8876 70.9982 36.2512L70.999 37.838C70.9991 38.0088 70.9992 38.1778 70.9992 38.345V45.2836C70.9992 45.3885 70.9991 45.4917 70.999 45.5929L70.9982 46.455C70.998 46.6356 70.9978 46.8089 70.9975 46.9748C70.9798 59.5138 63.9806 69.3687 50 76.5395L50.0001 27.3213Z" fill="black"/>
<mask id="mask0_519_8786" style="mask-type:alpha" maskUnits="userSpaceOnUse" x="50" y="27" width="21" height="50">
<path fill-rule="evenodd" clip-rule="evenodd" d="M50.0001 27.3213L70.9975 35.1384C70.9978 35.5166 70.998 35.8876 70.9982 36.2512L70.999 37.838C70.9991 38.0088 70.9992 38.1778 70.9992 38.345V45.2836C70.9992 45.3885 70.9991 45.4917 70.999 45.5929L70.9982 46.455C70.998 46.6356 70.9978 46.8089 70.9975 46.9748C70.9798 59.5138 63.9806 69.3687 50 76.5395L50.0001 27.3213Z" fill="white"/>
</mask>
<g mask="url(#mask0_519_8786)">
<path d="M63.6001 12.0674L76.1292 24.5964L48.2869 52.4388L35.7578 39.9097L63.6001 12.0674Z" fill="white"/>
</g>
<mask id="mask1_519_8786" style="mask-type:alpha" maskUnits="userSpaceOnUse" x="50" y="27" width="21" height="50">
<path fill-rule="evenodd" clip-rule="evenodd" d="M50.0001 27.3213L70.9975 35.1384C70.9978 35.5166 70.998 35.8876 70.9982 36.2512L70.999 37.838C70.9991 38.0088 70.9992 38.1778 70.9992 38.345V45.2836C70.9992 45.3885 70.9991 45.4917 70.999 45.5929L70.9982 46.455C70.998 46.6356 70.9978 46.8089 70.9975 46.9748C70.9798 59.5138 63.9806 69.3687 50 76.5395L50.0001 27.3213Z" fill="white"/>
</mask>
<g mask="url(#mask1_519_8786)">
<path d="M68.8335 28.1289L78.1143 37.4097L50.272 65.252L40.9912 55.9712L68.8335 28.1289Z" fill="#D0D1D3"/>
</g>
<mask id="mask2_519_8786" style="mask-type:alpha" maskUnits="userSpaceOnUse" x="50" y="27" width="21" height="50">
<path fill-rule="evenodd" clip-rule="evenodd" d="M50.0001 27.3213L70.9975 35.1384C70.9978 35.5166 70.998 35.8876 70.9982 36.2512L70.999 37.838C70.9991 38.0088 70.9992 38.1778 70.9992 38.345V45.2836C70.9992 45.3885 70.9991 45.4917 70.999 45.5929L70.9982 46.455C70.998 46.6356 70.9978 46.8089 70.9975 46.9748C70.9798 59.5138 63.9806 69.3687 50 76.5395L50.0001 27.3213Z" fill="white"/>
</mask>
<g mask="url(#mask2_519_8786)">
<path d="M70.7995 43.8789L80.0795 53.1589L52.2395 80.9989L42.9595 71.7189L70.7995 43.8789Z" fill="#8A8C93"/>
</g>
<mask id="mask3_519_8786" style="mask-type:alpha" maskUnits="userSpaceOnUse" x="50" y="27" width="21" height="50">
<path fill-rule="evenodd" clip-rule="evenodd" d="M50.0001 27.3213L70.9975 35.1384C70.9978 35.5166 70.998 35.8876 70.9982 36.2512L70.999 37.838C70.9991 38.0088 70.9992 38.1778 70.9992 38.345V45.2836C70.9992 45.3885 70.9991 45.4917 70.999 45.5929L70.9982 46.455C70.998 46.6356 70.9978 46.8089 70.9975 46.9748C70.9798 59.5138 63.9806 69.3687 50 76.5395L50.0001 27.3213Z" fill="white"/>
</mask>
<g mask="url(#mask3_519_8786)">
<path d="M67.7166 37.8251C67.7195 42.4323 67.7195 45.7465 67.7166 47.7677C67.7016 58.3007 61.7957 66.579 49.999 72.6025C38.2036 66.5781 32.2984 58.3002 32.2834 47.7677C32.2805 45.7465 32.2805 42.4323 32.2834 37.8251L50 31.2588L67.7166 37.8251Z" fill="url(#paint2_linear_519_8786)"/>
</g>
<path d="M57.904 47.4674L51.0904 43V45.4978L55.4614 48.3381L54.9472 49.9652H51.0904V52.0348H54.9472L55.4614 53.6619L51.0904 56.5022V59L57.904 54.5468L56.7898 51.0071L57.904 47.4674Z" fill="white"/>
<path d="M45.1625 52.0348H49.0049V49.9652H45.1482L44.6483 48.3381L49.0049 45.4978V43L42.1914 47.4674L43.3056 51.0071L42.1914 54.5468L49.0192 59V56.5022L44.6483 53.6619L45.1625 52.0348Z" fill="white"/>
<defs>
<linearGradient id="paint0_linear_519_8786" x1="7.79" y1="52.4229" x2="57.2915" y2="94.25" gradientUnits="userSpaceOnUse">
<stop stop-color="white" stop-opacity="0.1"/>
<stop offset="1" stop-color="white" stop-opacity="0.5"/>
</linearGradient>
<linearGradient id="paint1_linear_519_8786" x1="85.8466" y1="52.4925" x2="45.3435" y2="18.1159" gradientUnits="userSpaceOnUse">
<stop stop-color="white" stop-opacity="0.1"/>
<stop offset="1" stop-color="white" stop-opacity="0.5"/>
</linearGradient>
<linearGradient id="paint2_linear_519_8786" x1="32.2812" y1="31.2588" x2="32.2812" y2="72.6025" gradientUnits="userSpaceOnUse">
<stop stop-opacity="0.15"/>
<stop offset="1" stop-color="white" stop-opacity="0.01"/>
</linearGradient>
</defs>
</svg>
