<svg width="24" height="746" viewBox="0 0 24 746" fill="none" xmlns="http://www.w3.org/2000/svg">
<g clip-path="url(#clip0_512_24687)">
<path fill-rule="evenodd" clip-rule="evenodd" d="M18 722C21.3137 722 24 724.686 24 728V740C24 743.314 21.3137 746 18 746H6C2.68629 746 0 743.314 0 740V728C0 724.686 2.68629 722 6 722H18Z" fill="url(#paint0_linear_512_24687)"/>
<path fill-rule="evenodd" clip-rule="evenodd" d="M13.6679 735L13.5769 735.005C13.2463 735.05 12.9998 735.332 13 735.666V740.334L13.0067 740.424C13.0508 740.75 13.3297 741 13.6679 741H18.334L18.4241 740.994C18.7543 740.949 19.0002 740.666 19 740.333V735.665L18.9942 735.575C18.9483 735.245 18.6661 735 18.333 735H13.6679Z" fill="white"/>
<path fill-rule="evenodd" clip-rule="evenodd" d="M12.5438 729.567L12.4879 729.629C12.3028 729.873 12.3262 730.216 12.5426 730.432L15.5682 733.457L15.6309 733.511C15.8707 733.694 16.2136 733.675 16.4329 733.456L19.4573 730.432L19.512 730.37C19.6966 730.126 19.6729 729.784 19.4566 729.568L16.4311 726.542L16.369 726.487C16.1253 726.303 15.7833 726.327 15.5676 726.543L12.5438 729.567Z" fill="white"/>
<path fill-rule="evenodd" clip-rule="evenodd" d="M5.66709 735L5.57604 735.005C5.24573 735.05 4.99975 735.333 5 735.666V740.334L5.00575 740.424C5.04984 740.75 5.32875 741 5.66709 741H10.3348L10.4249 740.994C10.7548 740.948 11.0003 740.666 11 740.333V735.665L10.9952 735.575C10.9493 735.245 10.667 735 10.3339 735H5.66709Z" fill="white"/>
<path fill-rule="evenodd" clip-rule="evenodd" d="M5.66709 727L5.57604 727.006C5.24573 727.051 4.99975 727.334 5 727.667V732.333L5.00575 732.423C5.04984 732.749 5.32875 733 5.66709 733H10.3348L10.4249 732.993C10.7548 732.947 11.0003 732.665 11 732.332V727.667L10.9952 727.577C10.9497 727.247 10.6673 727.001 10.3339 727.001L5.66709 727Z" fill="white"/>
<path d="M23.8557 6.70116L13.6354 0V3.74665L20.1918 8.00714L19.4205 10.4478H13.6354V13.5522H19.4205L20.1918 15.9929L13.6354 20.2533V24L23.8557 17.3202L22.1845 12.0107L23.8557 6.70116Z" fill="white"/>
<path d="M23.8557 6.70116L13.6354 0V3.74665L20.1918 8.00714L19.4205 10.4478H13.6354V13.5522H19.4205L20.1918 15.9929L13.6354 20.2533V24L23.8557 17.3202L22.1845 12.0107L23.8557 6.70116Z" fill="url(#paint1_linear_512_24687)"/>
<path d="M4.74352 13.5522H10.5072V10.4478H4.7221L3.97218 8.00714L10.5072 3.74665V0L0.286865 6.70116L1.95811 12.0107L0.286865 17.3202L10.5286 24V20.2533L3.97218 15.9929L4.74352 13.5522Z" fill="white"/>
<path d="M4.74352 13.5522H10.5072V10.4478H4.7221L3.97218 8.00714L10.5072 3.74665V0L0.286865 6.70116L1.95811 12.0107L0.286865 17.3202L10.5286 24V20.2533L3.97218 15.9929L4.74352 13.5522Z" fill="url(#paint2_linear_512_24687)"/>
<path fill-rule="evenodd" clip-rule="evenodd" d="M13 658.012V654C18.819 654.483 23.466 659.13 23.95 664.949H19.938C19.4797 661.324 16.6249 658.47 13 658.012ZM19.938 666.95H23.949C23.438 673.099 18.28 677.95 12 677.95C8.94735 677.949 6.01088 676.78 3.794 674.681L6.769 672.003C9.0008 673.931 12.1125 674.475 14.8662 673.419C17.6198 672.362 19.5689 669.876 19.938 666.95ZM5.431 670.517L2.456 673.194C0.863918 671.115 0.000809489 668.569 0 665.95C0 659.671 4.85 654.512 11 654V658.012C8.2226 658.362 5.82997 660.138 4.69097 662.695C3.55196 665.252 3.83223 668.218 5.43 670.517H5.431ZM21 593H3C2.449 593 2 592.551 2 592C2 591.449 2.449 591 3 591H16V592H18V590C18 589.448 17.5523 589 17 589H3C1.34315 589 0 590.343 0 592V607C0 609.209 1.79086 611 4 611H21C21.5523 611 22 610.552 22 610V594C22 593.448 21.5523 593 21 593ZM16 604C15.2856 604.016 14.617 603.65 14.2459 603.039C13.8748 602.429 13.8576 601.666 14.2009 601.04C14.5441 600.413 15.1956 600.017 15.91 600.001C17.0143 599.976 17.9296 600.851 17.9545 601.956C17.9794 603.06 17.1043 603.975 16 604Z" fill="url(#paint3_linear_512_24687)"/>
<path fill-rule="evenodd" clip-rule="evenodd" d="M17.58 525.002L15.286 522.707C14.907 522.315 14.9124 521.691 15.2982 521.305C15.6839 520.919 16.3076 520.914 16.7 521.293L21.404 526.003L16.7 530.713C16.4506 530.979 16.076 531.089 15.7225 530.998C15.369 530.908 15.0928 530.632 15.0017 530.279C14.9107 529.926 15.0192 529.551 15.285 529.301L17.579 527.002H4.991C2.871 527.002 1.988 527.892 2.001 530.022C2.00404 530.574 1.55878 531.024 1.0065 531.028C0.454215 531.031 0.00403757 530.585 0.000849365 530.033C-0.018 526.796 1.761 525.003 4.991 525.003H17.579L17.58 525.002ZM6.41 540.024L8.704 542.319C9.09447 542.71 9.09424 543.343 8.7035 543.734C8.31276 544.124 7.67947 544.124 7.289 543.733L2.585 539.023L7.288 534.313C7.67984 533.933 8.30358 533.938 8.68988 534.323C9.07617 534.708 9.08246 535.332 8.704 535.725L6.409 538.024H19C21.12 538.024 22.002 537.134 21.99 535.004C21.987 534.452 22.4322 534.002 22.9845 533.998C23.5368 533.995 23.987 534.441 23.9901 534.993C24.008 538.23 22.23 540.023 19 540.023H6.41V540.024ZM20.654 467.453C20.734 466.973 20.776 466.487 20.779 466C20.7756 465.513 20.7338 465.027 20.654 464.547L22.703 462.518C23.024 462.199 23.093 461.698 22.87 461.3L21.406 458.7C21.1858 458.307 20.7252 458.117 20.292 458.239L17.56 459.039C16.8235 458.423 15.9907 457.933 15.095 457.588L14.41 454.758C14.3074 454.317 13.9159 454.003 13.463 454H10.537C10.0845 454.004 9.6935 454.317 9.591 454.758L8.901 457.588C8.00703 457.934 7.17594 458.424 6.441 459.039L3.709 458.239C3.27546 458.117 2.81454 458.307 2.594 458.7L1.13 461.3C0.906 461.697 0.975 462.2 1.297 462.519L3.345 464.548C3.26538 465.028 3.22358 465.513 3.22 466C3.223 466.487 3.265 466.973 3.345 467.453L1.298 469.482C0.976 469.801 0.908 470.302 1.131 470.7L2.594 473.3C2.814 473.694 3.274 473.885 3.708 473.762L6.439 472.962C7.17545 473.578 8.00826 474.068 8.904 474.413L9.594 477.243C9.69663 477.682 10.0859 477.995 10.537 478H13.463C13.9159 477.997 14.3074 477.683 14.41 477.242L15.1 474.412C15.994 474.066 16.8251 473.576 17.56 472.961L20.292 473.761C20.7256 473.884 21.1869 473.693 21.406 473.299L22.869 470.699C23.0923 470.301 23.0241 469.803 22.702 469.48L20.654 467.453ZM12 471C9.23858 471 7 468.761 7 466C7 463.239 9.23858 461 12 461C14.7614 461 17 463.239 17 466C17 468.761 14.7614 471 12 471ZM17.5 402C14.4624 402 12 399.538 12 396.5C12 393.462 14.4624 391 17.5 391C20.5376 391 23 393.462 23 396.5C23 399.538 20.5376 402 17.5 402ZM5 402H12C12.5523 402 13 402.448 13 403V410C13 410.552 12.5523 411 12 411H5C4.44772 411 4 410.552 4 410V403C4 402.448 4.44772 402 5 402ZM5 389L10 398H0L5 389Z" fill="url(#paint4_linear_512_24687)"/>
<path fill-rule="evenodd" clip-rule="evenodd" d="M23 331C23.5522 331 24 331.448 24 332V336C24 336.552 23.5522 337 23 337H22.586C21.5518 340.678 18.6777 343.552 15 344.586V345C15 345.552 14.5522 346 14 346H9.99996C9.44767 346 8.99996 345.552 8.99996 345V344.586C5.32225 343.552 2.44812 340.678 1.41396 337H0.999957C0.447672 337 -4.29788e-05 336.552 -4.29788e-05 336V332C-4.29788e-05 331.448 0.447672 331 0.999957 331H1.41396C2.44812 327.322 5.32225 324.448 8.99996 323.414V323C8.99996 322.448 9.44767 322 9.99996 322H14C14.5522 322 15 322.448 15 323V323.414C18.6777 324.448 21.5518 327.322 22.586 331H23ZM12 338C14.206 338 16 336.206 16 334C16 331.794 14.206 330 12 330C9.79396 330 7.99996 331.794 7.99996 334C7.99996 336.206 9.79396 338 12 338ZM20.482 331C19.582 328.435 17.565 326.418 15 325.518V328.812C15.9074 329.338 16.6616 330.093 17.188 331H20.482ZM8.99996 325.518C6.43493 326.418 4.41796 328.435 3.51796 331H6.81196C7.33834 330.093 8.09255 329.338 8.99996 328.812V325.518ZM3.51796 337C4.41796 339.565 6.43493 341.582 8.99996 342.482V339.188C8.09255 338.662 7.33834 337.907 6.81196 337H3.51796ZM15 342.482C17.565 341.582 19.582 339.565 20.482 337H17.188C16.6613 337.907 15.9071 338.661 15 339.188V342.482ZM4.99996 273.626L0.292957 268.92C0.105241 268.733 -0.000244141 268.478 -0.000244141 268.213C-0.000244141 267.948 0.105241 267.693 0.292957 267.506L4.99996 262.798L6.41396 264.212L2.41396 268.212L6.41396 272.212L4.99996 273.626ZM17 273.626L15.586 272.212L19.586 268.212L15.586 264.212L17 262.798L21.707 267.505C21.8947 267.692 22.0002 267.947 22.0002 268.212C22.0002 268.477 21.8947 268.732 21.707 268.919L17 273.626ZM7.78696 276.94L12.275 259L14.215 259.485L9.72696 277.425L7.78696 276.94ZM9.00796 205.708L6.88696 203.587L5.47196 205L7.59396 207.121L9.00796 208.536L15.372 202.172L13.958 200.757L9.00796 205.707V205.708ZM19.998 197.494C20 199.946 20 201.709 19.998 202.784C19.99 208.39 16.659 212.795 9.99996 216C3.34196 212.794 0.00995702 208.39 0.000957021 202.785V197.495L9.99996 194L19.999 197.494H19.998ZM17.429 133.571L14 137V130C14 129.448 14.4477 129 15 129H22L18.714 132.286C20.7625 134.33 21.9125 137.106 21.91 140C21.91 146.025 17.026 150.91 11.001 150.91C4.97596 150.91 0.089957 146.024 0.089957 140C0.089957 135.201 3.21796 131.009 7.72596 129.591L8.27096 131.326C4.38141 132.55 1.78285 136.214 1.91428 140.29C2.04572 144.365 4.87498 147.855 8.83531 148.825C12.7956 149.796 16.9179 148.011 18.9193 144.458C20.9207 140.906 20.3114 136.455 17.429 133.571ZM16 140.003V142.003H10.586L6.29296 137.71L7.70696 136.296L11.414 140.003H16ZM3.99996 69V80H1.99996V68C1.99996 67.4477 2.44767 67 2.99996 67H21C21.5522 67 22 67.4477 22 68V80H20V69H3.99996ZM15 83V81H24V84C24 84.5523 23.5522 85 23 85H0.999957C0.447672 85 -4.29788e-05 84.5523 -4.29788e-05 84V81H8.99996V83H15Z" fill="url(#paint5_linear_512_24687)"/>
</g>
<defs>
<linearGradient id="paint0_linear_512_24687" x1="24" y1="746" x2="0" y2="722" gradientUnits="userSpaceOnUse">
<stop stop-color="#420BE6"/>
<stop offset="1" stop-color="#A16BB3"/>
</linearGradient>
<linearGradient id="paint1_linear_512_24687" x1="35.6402" y1="12" x2="11.6441" y2="-11.565" gradientUnits="userSpaceOnUse">
<stop stop-color="#420BE6"/>
<stop offset="1" stop-color="#A16BB3"/>
</linearGradient>
<linearGradient id="paint2_linear_512_24687" x1="35.6402" y1="12" x2="11.6441" y2="-11.565" gradientUnits="userSpaceOnUse">
<stop stop-color="#420BE6"/>
<stop offset="1" stop-color="#A16BB3"/>
</linearGradient>
<linearGradient id="paint3_linear_512_24687" x1="23.95" y1="677.95" x2="-20.7121" y2="665.925" gradientUnits="userSpaceOnUse">
<stop stop-color="#420BE6"/>
<stop offset="1" stop-color="#A16BB3"/>
</linearGradient>
<linearGradient id="paint4_linear_512_24687" x1="23.9904" y1="544.026" x2="-22.868" y2="536.775" gradientUnits="userSpaceOnUse">
<stop stop-color="#420BE6"/>
<stop offset="1" stop-color="#A16BB3"/>
</linearGradient>
<linearGradient id="paint5_linear_512_24687" x1="24" y1="346" x2="-23.6479" y2="341.901" gradientUnits="userSpaceOnUse">
<stop stop-color="#420BE6"/>
<stop offset="1" stop-color="#A16BB3"/>
</linearGradient>
<clipPath id="clip0_512_24687">
<rect width="24" height="746" fill="white"/>
</clipPath>
</defs>
</svg>
