<svg width="1170" height="120" viewBox="0 0 1170 120" fill="none" xmlns="http://www.w3.org/2000/svg">
<rect width="1170" height="80" rx="40" fill="#0C0E0F"/>
<g opacity="0.4">
<mask id="path-2-inside-1_512_8523" fill="white">
<path fill-rule="evenodd" clip-rule="evenodd" d="M1127 31H1124V34H1127V31ZM1124 30H1123V31V34V35H1124H1127H1128V34V31V30H1127H1124ZM1134 31H1131V34H1134V31ZM1131 30H1130V31V34V35H1131H1134H1135V34V31V30H1134H1131ZM1138 31H1141V34H1138V31ZM1137 30H1138H1141H1142V31V34V35H1141H1138H1137V34V31V30ZM1127 38H1124V41H1127V38ZM1124 37H1123V38V41V42H1124H1127H1128V41V38V37H1127H1124ZM1131 38H1134V41H1131V38ZM1130 37H1131H1134H1135V38V41V42H1134H1131H1130V41V38V37ZM1141 38H1138V41H1141V38ZM1138 37H1137V38V41V42H1138H1141H1142V41V38V37H1141H1138ZM1124 45H1127V48H1124V45ZM1123 44H1124H1127H1128V45V48V49H1127H1124H1123V48V45V44ZM1134 45H1131V48H1134V45ZM1131 44H1130V45V48V49H1131H1134H1135V48V45V44H1134H1131ZM1138 45H1141V48H1138V45ZM1137 44H1138H1141H1142V45V48V49H1141H1138H1137V48V45V44Z"/>
</mask>
<path d="M1124 31V30H1123V31H1124ZM1127 31H1128V30H1127V31ZM1124 34H1123V35H1124V34ZM1127 34V35H1128V34H1127ZM1123 30V29H1122V30H1123ZM1123 35H1122V36H1123V35ZM1128 35V36H1129V35H1128ZM1128 30H1129V29H1128V30ZM1131 31V30H1130V31H1131ZM1134 31H1135V30H1134V31ZM1131 34H1130V35H1131V34ZM1134 34V35H1135V34H1134ZM1130 30V29H1129V30H1130ZM1130 35H1129V36H1130V35ZM1135 35V36H1136V35H1135ZM1135 30H1136V29H1135V30ZM1141 31H1142V30H1141V31ZM1138 31V30H1137V31H1138ZM1141 34V35H1142V34H1141ZM1138 34H1137V35H1138V34ZM1137 30V29H1136V30H1137ZM1142 30H1143V29H1142V30ZM1142 35V36H1143V35H1142ZM1137 35H1136V36H1137V35ZM1124 38V37H1123V38H1124ZM1127 38H1128V37H1127V38ZM1124 41H1123V42H1124V41ZM1127 41V42H1128V41H1127ZM1123 37V36H1122V37H1123ZM1123 42H1122V43H1123V42ZM1128 42V43H1129V42H1128ZM1128 37H1129V36H1128V37ZM1134 38H1135V37H1134V38ZM1131 38V37H1130V38H1131ZM1134 41V42H1135V41H1134ZM1131 41H1130V42H1131V41ZM1130 37V36H1129V37H1130ZM1135 37H1136V36H1135V37ZM1135 42V43H1136V42H1135ZM1130 42H1129V43H1130V42ZM1138 38V37H1137V38H1138ZM1141 38H1142V37H1141V38ZM1138 41H1137V42H1138V41ZM1141 41V42H1142V41H1141ZM1137 37V36H1136V37H1137ZM1137 42H1136V43H1137V42ZM1142 42V43H1143V42H1142ZM1142 37H1143V36H1142V37ZM1127 45H1128V44H1127V45ZM1124 45V44H1123V45H1124ZM1127 48V49H1128V48H1127ZM1124 48H1123V49H1124V48ZM1123 44V43H1122V44H1123ZM1128 44H1129V43H1128V44ZM1128 49V50H1129V49H1128ZM1123 49H1122V50H1123V49ZM1131 45V44H1130V45H1131ZM1134 45H1135V44H1134V45ZM1131 48H1130V49H1131V48ZM1134 48V49H1135V48H1134ZM1130 44V43H1129V44H1130ZM1130 49H1129V50H1130V49ZM1135 49V50H1136V49H1135ZM1135 44H1136V43H1135V44ZM1141 45H1142V44H1141V45ZM1138 45V44H1137V45H1138ZM1141 48V49H1142V48H1141ZM1138 48H1137V49H1138V48ZM1137 44V43H1136V44H1137ZM1142 44H1143V43H1142V44ZM1142 49V50H1143V49H1142ZM1137 49H1136V50H1137V49ZM1124 32H1127V30H1124V32ZM1125 34V31H1123V34H1125ZM1127 33H1124V35H1127V33ZM1126 31V34H1128V31H1126ZM1123 31H1124V29H1123V31ZM1124 31V30H1122V31H1124ZM1124 34V31H1122V34H1124ZM1124 35V34H1122V35H1124ZM1124 34H1123V36H1124V34ZM1127 34H1124V36H1127V34ZM1128 34H1127V36H1128V34ZM1127 34V35H1129V34H1127ZM1127 31V34H1129V31H1127ZM1127 30V31H1129V30H1127ZM1127 31H1128V29H1127V31ZM1124 31H1127V29H1124V31ZM1131 32H1134V30H1131V32ZM1132 34V31H1130V34H1132ZM1134 33H1131V35H1134V33ZM1133 31V34H1135V31H1133ZM1130 31H1131V29H1130V31ZM1131 31V30H1129V31H1131ZM1131 34V31H1129V34H1131ZM1131 35V34H1129V35H1131ZM1131 34H1130V36H1131V34ZM1134 34H1131V36H1134V34ZM1135 34H1134V36H1135V34ZM1134 34V35H1136V34H1134ZM1134 31V34H1136V31H1134ZM1134 30V31H1136V30H1134ZM1134 31H1135V29H1134V31ZM1131 31H1134V29H1131V31ZM1141 30H1138V32H1141V30ZM1142 34V31H1140V34H1142ZM1138 35H1141V33H1138V35ZM1137 31V34H1139V31H1137ZM1138 29H1137V31H1138V29ZM1141 29H1138V31H1141V29ZM1142 29H1141V31H1142V29ZM1143 31V30H1141V31H1143ZM1143 34V31H1141V34H1143ZM1143 35V34H1141V35H1143ZM1141 36H1142V34H1141V36ZM1138 36H1141V34H1138V36ZM1137 36H1138V34H1137V36ZM1136 34V35H1138V34H1136ZM1136 31V34H1138V31H1136ZM1136 30V31H1138V30H1136ZM1124 39H1127V37H1124V39ZM1125 41V38H1123V41H1125ZM1127 40H1124V42H1127V40ZM1126 38V41H1128V38H1126ZM1123 38H1124V36H1123V38ZM1124 38V37H1122V38H1124ZM1124 41V38H1122V41H1124ZM1124 42V41H1122V42H1124ZM1124 41H1123V43H1124V41ZM1127 41H1124V43H1127V41ZM1128 41H1127V43H1128V41ZM1127 41V42H1129V41H1127ZM1127 38V41H1129V38H1127ZM1127 37V38H1129V37H1127ZM1127 38H1128V36H1127V38ZM1124 38H1127V36H1124V38ZM1134 37H1131V39H1134V37ZM1135 41V38H1133V41H1135ZM1131 42H1134V40H1131V42ZM1130 38V41H1132V38H1130ZM1131 36H1130V38H1131V36ZM1134 36H1131V38H1134V36ZM1135 36H1134V38H1135V36ZM1136 38V37H1134V38H1136ZM1136 41V38H1134V41H1136ZM1136 42V41H1134V42H1136ZM1134 43H1135V41H1134V43ZM1131 43H1134V41H1131V43ZM1130 43H1131V41H1130V43ZM1129 41V42H1131V41H1129ZM1129 38V41H1131V38H1129ZM1129 37V38H1131V37H1129ZM1138 39H1141V37H1138V39ZM1139 41V38H1137V41H1139ZM1141 40H1138V42H1141V40ZM1140 38V41H1142V38H1140ZM1137 38H1138V36H1137V38ZM1138 38V37H1136V38H1138ZM1138 41V38H1136V41H1138ZM1138 42V41H1136V42H1138ZM1138 41H1137V43H1138V41ZM1141 41H1138V43H1141V41ZM1142 41H1141V43H1142V41ZM1141 41V42H1143V41H1141ZM1141 38V41H1143V38H1141ZM1141 37V38H1143V37H1141ZM1141 38H1142V36H1141V38ZM1138 38H1141V36H1138V38ZM1127 44H1124V46H1127V44ZM1128 48V45H1126V48H1128ZM1124 49H1127V47H1124V49ZM1123 45V48H1125V45H1123ZM1124 43H1123V45H1124V43ZM1127 43H1124V45H1127V43ZM1128 43H1127V45H1128V43ZM1129 45V44H1127V45H1129ZM1129 48V45H1127V48H1129ZM1129 49V48H1127V49H1129ZM1127 50H1128V48H1127V50ZM1124 50H1127V48H1124V50ZM1123 50H1124V48H1123V50ZM1122 48V49H1124V48H1122ZM1122 45V48H1124V45H1122ZM1122 44V45H1124V44H1122ZM1131 46H1134V44H1131V46ZM1132 48V45H1130V48H1132ZM1134 47H1131V49H1134V47ZM1133 45V48H1135V45H1133ZM1130 45H1131V43H1130V45ZM1131 45V44H1129V45H1131ZM1131 48V45H1129V48H1131ZM1131 49V48H1129V49H1131ZM1131 48H1130V50H1131V48ZM1134 48H1131V50H1134V48ZM1135 48H1134V50H1135V48ZM1134 48V49H1136V48H1134ZM1134 45V48H1136V45H1134ZM1134 44V45H1136V44H1134ZM1134 45H1135V43H1134V45ZM1131 45H1134V43H1131V45ZM1141 44H1138V46H1141V44ZM1142 48V45H1140V48H1142ZM1138 49H1141V47H1138V49ZM1137 45V48H1139V45H1137ZM1138 43H1137V45H1138V43ZM1141 43H1138V45H1141V43ZM1142 43H1141V45H1142V43ZM1143 45V44H1141V45H1143ZM1143 48V45H1141V48H1143ZM1143 49V48H1141V49H1143ZM1141 50H1142V48H1141V50ZM1138 50H1141V48H1138V50ZM1137 50H1138V48H1137V50ZM1136 48V49H1138V48H1136ZM1136 45V48H1138V45H1136ZM1136 44V45H1138V44H1136Z" fill="white" mask="url(#path-2-inside-1_512_8523)"/>
</g>
<g opacity="0.4">
<path fill-rule="evenodd" clip-rule="evenodd" d="M1093.34 29.3427C1093.27 29.1414 1093.08 29 1092.86 29H1090.14L1090.04 29.0084L1089.96 29.0327C1089.79 29.0963 1089.67 29.2466 1089.64 29.4324L1089.28 32.059L1088.89 32.1878L1088.53 32.3263C1088.29 32.4243 1088.06 32.5336 1087.84 32.6539L1087.8 32.672L1085.7 31.0667L1085.62 31.0178C1085.43 30.9224 1085.19 30.9562 1085.04 31.111L1083.11 33.0392L1083.05 33.11L1083.01 33.1883C1082.94 33.351 1082.95 33.546 1083.07 33.6953L1084.67 35.805L1084.48 36.1738L1084.33 36.5251C1084.23 36.7612 1084.14 37.001 1084.07 37.2444L1084.06 37.283L1081.43 37.641L1081.34 37.6617C1081.14 37.7283 1081 37.9176 1081 38.1364V40.8636L1081.01 40.9553L1081.03 41.0418C1081.1 41.2084 1081.25 41.3337 1081.43 41.359L1084.06 41.717L1084.19 42.1116L1084.33 42.4705C1084.42 42.7067 1084.53 42.9369 1084.65 43.1611L1084.67 43.194L1083.07 45.3047L1083.02 45.3828C1082.93 45.5722 1082.96 45.8061 1083.11 45.9608L1085.04 47.889L1085.11 47.9479L1085.19 47.9918C1085.35 48.0647 1085.55 48.047 1085.7 47.9335L1087.81 46.329L1088.18 46.5179L1088.53 46.6746C1088.76 46.7729 1089 46.8591 1089.25 46.9331L1089.28 46.943L1089.64 49.5672L1089.66 49.657C1089.73 49.8584 1089.92 50 1090.14 50H1092.86L1092.96 49.9916L1093.04 49.9673C1093.21 49.9037 1093.33 49.7534 1093.36 49.5676L1093.72 46.94L1094.11 46.8122L1094.47 46.6737C1094.71 46.5757 1094.94 46.4664 1095.16 46.3461L1095.19 46.327L1097.3 47.9308L1097.38 47.9796C1097.57 48.0749 1097.81 48.041 1097.96 47.8863L1099.89 45.9581L1099.95 45.8873L1099.99 45.809C1100.06 45.6462 1100.05 45.4513 1099.93 45.302L1098.33 43.192L1098.52 42.8235L1098.67 42.4722C1098.77 42.2361 1098.86 41.9963 1098.93 41.7529L1098.94 41.715L1101.57 41.3591L1101.66 41.3384C1101.86 41.272 1102 41.0825 1102 40.8636V38.1364L1101.99 38.0447L1101.97 37.9582C1101.9 37.7916 1101.75 37.6663 1101.57 37.641L1098.94 37.282L1098.81 36.8884L1098.67 36.5295C1098.58 36.2933 1098.47 36.0631 1098.35 35.8389L1098.33 35.805L1099.93 33.6953L1099.98 33.6173C1100.07 33.4279 1100.04 33.1942 1099.89 33.0394L1097.96 31.1112L1097.89 31.0523L1097.81 31.0083C1097.65 30.9353 1097.45 30.9529 1097.3 31.0665L1095.19 32.67L1094.83 32.4821L1094.47 32.3254C1094.24 32.2271 1094 32.1409 1093.76 32.0669L1093.72 32.055L1093.36 29.4324L1093.34 29.3427ZM1090.57 30H1092.43L1092.77 32.5176L1092.79 32.6019C1092.84 32.7649 1092.97 32.8924 1093.14 32.935C1093.68 33.0696 1094.2 33.2702 1094.69 33.5321L1094.99 33.7027L1095.08 33.7428L1095.17 33.7642C1095.3 33.7804 1095.43 33.7471 1095.54 33.6662L1097.56 32.126L1098.87 33.437L1097.33 35.4629L1097.28 35.5361C1097.21 35.6885 1097.21 35.8732 1097.3 36.0236C1097.59 36.4978 1097.81 37.0055 1097.97 37.5351L1098.07 37.8671L1098.09 37.9464L1098.14 38.0184C1098.21 38.1316 1098.34 38.2098 1098.48 38.229L1101 38.572V40.427L1098.48 40.7682L1098.4 40.7871C1098.24 40.839 1098.11 40.9721 1098.06 41.1421C1097.93 41.6792 1097.73 42.1975 1097.47 42.6851L1097.3 42.9844L1097.26 43.0745L1097.24 43.1689C1097.22 43.2964 1097.25 43.4281 1097.33 43.5344L1098.87 45.559L1097.56 46.87L1095.54 45.331L1095.46 45.2848C1095.31 45.2061 1095.13 45.2102 1094.98 45.3009C1094.5 45.5867 1093.99 45.8126 1093.46 45.9736L1093.13 46.0654L1093.05 46.0948L1092.98 46.1363C1092.87 46.2147 1092.79 46.3383 1092.77 46.4797L1092.43 49H1090.57L1090.23 46.4828L1090.21 46.3985C1090.16 46.2353 1090.03 46.1076 1089.86 46.065C1089.32 45.9304 1088.8 45.7298 1088.31 45.4679L1088.02 45.2973L1087.93 45.2572L1087.83 45.2358C1087.7 45.2196 1087.57 45.2529 1087.47 45.3338L1085.44 46.872L1084.13 45.562L1085.67 43.5371L1085.72 43.4639C1085.79 43.3115 1085.79 43.1268 1085.7 42.9764C1085.41 42.5022 1085.19 41.9945 1085.03 41.4649L1084.93 41.1329L1084.91 41.0536L1084.86 40.9816C1084.79 40.8684 1084.66 40.7902 1084.52 40.771L1082 40.427V38.572L1084.52 38.229L1084.6 38.21C1084.76 38.1581 1084.89 38.0251 1084.94 37.8552C1085.07 37.3181 1085.27 36.7998 1085.53 36.3122L1085.7 36.0129L1085.74 35.9228L1085.76 35.8283C1085.78 35.7008 1085.75 35.5692 1085.67 35.4629L1084.13 33.438L1085.44 32.127L1087.46 33.6687L1087.54 33.7151C1087.69 33.7939 1087.87 33.7898 1088.02 33.6991C1088.5 33.4133 1089.01 33.1874 1089.54 33.0264L1089.87 32.9346L1089.95 32.9052L1090.02 32.8637C1090.13 32.7853 1090.21 32.6617 1090.23 32.5203L1090.57 30ZM1091.5 36C1093.43 36 1095 37.567 1095 39.5C1095 41.433 1093.43 43 1091.5 43C1089.57 43 1088 41.433 1088 39.5C1088 37.567 1089.57 36 1091.5 36ZM1089 39.5C1089 38.1193 1090.12 37 1091.5 37C1092.88 37 1094 38.1193 1094 39.5C1094 40.8807 1092.88 42 1091.5 42C1090.12 42 1089 40.8807 1089 39.5Z" fill="white"/>
</g>
<g opacity="0.4">
<circle cx="1050.5" cy="39.5" r="10" stroke="white"/>
<path fill-rule="evenodd" clip-rule="evenodd" d="M1059.46 34.0147C1059.44 34.054 1059.42 34.092 1059.4 34.1274L1059.34 34.1967L1055.73 37.8031C1056.09 38.9043 1056.09 40.0956 1055.73 41.1968L1059.34 44.8033C1059.39 44.8565 1059.43 44.9189 1059.46 44.9853C1059.02 45.6904 1058.51 46.3406 1057.93 46.9227C1057.93 46.924 1057.92 46.9252 1057.92 46.9265C1057.34 47.5083 1056.69 48.0222 1055.99 48.455C1055.95 48.4407 1055.91 48.4212 1055.87 48.3967L1055.8 48.3388L1052.2 44.7326C1051.1 45.089 1049.9 45.0891 1048.8 44.7329L1045.2 48.3388C1045.14 48.3921 1045.08 48.4308 1045.01 48.455C1044.31 48.0219 1043.66 47.5078 1043.08 46.9256C1043.08 46.9249 1043.08 46.9242 1043.07 46.9235C1042.49 46.3412 1041.98 45.6908 1041.54 44.9853C1041.56 44.9459 1041.58 44.908 1041.6 44.8725L1041.66 44.8033L1045.27 41.1979C1044.91 40.096 1044.91 38.9039 1045.27 37.802L1041.66 34.1967C1041.61 34.1434 1041.57 34.0811 1041.54 34.0147C1041.98 33.3087 1042.49 32.658 1043.08 32.0754C1043.66 31.4927 1044.31 30.9783 1045.01 30.5449C1045.05 30.5593 1045.09 30.5787 1045.13 30.6033L1045.2 30.6611L1048.8 34.267C1049.9 33.9108 1051.1 33.911 1052.2 34.2674L1055.8 30.6611C1055.86 30.6079 1055.92 30.5691 1055.99 30.5449C1056.69 30.9779 1057.34 31.4918 1057.92 32.0738C1057.92 32.0748 1057.93 32.0759 1057.93 32.0769C1058.51 32.6591 1059.02 33.3094 1059.46 34.0147ZM1055.3 42.1818C1055.06 42.6144 1054.76 43.0213 1054.39 43.3891C1054.02 43.7566 1053.62 44.0612 1053.18 44.3029L1056.16 47.2781L1058.28 45.1568L1055.3 42.1818ZM1047.32 42.682C1045.56 40.9246 1045.56 38.0754 1047.32 36.318C1049.08 34.5606 1051.92 34.5606 1053.68 36.318C1055.44 38.0754 1055.44 40.9246 1053.68 42.682C1051.92 44.4393 1049.08 44.4393 1047.32 42.682ZM1053.18 34.697C1053.62 34.9388 1054.02 35.2434 1054.39 35.6109C1054.76 35.9786 1055.06 36.3855 1055.3 36.8181L1058.28 33.8438L1056.16 31.7225L1053.18 34.697ZM1045.7 42.1828C1045.94 42.615 1046.24 43.0216 1046.61 43.3891C1046.98 43.7568 1047.39 44.0616 1047.82 44.3034L1044.84 47.2781L1042.72 45.1568L1045.7 42.1828ZM1044.84 31.7218L1042.72 33.8431L1045.7 36.8172C1045.94 36.3849 1046.24 35.9784 1046.61 35.6109C1046.98 35.2431 1047.39 34.9384 1047.82 34.6965L1044.84 31.7218Z" fill="white"/>
</g>
<g opacity="0.4">
<path d="M1010 30C1015.52 30 1020 34.4772 1020 40C1020 45.5228 1015.52 50 1010 50C1005.93 50 1002.31 47.5438 1000.77 43.8501C1000.66 43.5953 1000.78 43.3025 1001.04 43.1961C1001.29 43.0897 1001.58 43.21 1001.69 43.4649C1003.08 46.7894 1006.33 49 1010 49C1014.97 49 1019 44.9706 1019 40C1019 35.0294 1014.97 31 1010 31C1006.37 31 1003.14 33.17 1001.73 36.4489C1001.62 36.7026 1001.32 36.8199 1001.07 36.7108C1000.82 36.6018 1000.7 36.3077 1000.81 36.054C1002.37 32.4111 1005.96 30 1010 30Z" fill="white"/>
<path d="M1009.5 35.5C1009.75 35.5 1009.95 35.6769 1009.99 35.9101L1010 36L1010 40.709L1013.25 42.5659C1013.46 42.6877 1013.55 42.9425 1013.47 43.166L1013.43 43.2481C1013.31 43.4612 1013.06 43.5507 1012.83 43.4717L1012.75 43.4341L1009.25 41.4341C1009.12 41.3599 1009.03 41.2325 1009.01 41.0883L1009 41V36C1009 35.7239 1009.22 35.5 1009.5 35.5Z" fill="white"/>
<path d="M999.285 32.2623C999.237 31.9903 999.419 31.731 999.691 31.683C999.932 31.6404 1000.16 31.7792 1000.25 32.0015L1000.27 32.0886L1001.05 36.5204L1005.48 35.7388C1005.72 35.6962 1005.96 35.835 1006.04 36.0573L1006.06 36.1444C1006.1 36.3861 1005.97 36.6179 1005.74 36.7001L1005.66 36.7236L1000.73 37.5919C1000.49 37.6345 1000.26 37.4958 1000.18 37.2734L1000.15 37.1863L999.285 32.2623Z" fill="white"/>
</g>
<rect opacity="0.08" x="923" y="26" width="56" height="29" rx="14.5" fill="white"/>
<circle cx="937.5" cy="40.5" r="14.5" fill="url(#paint0_linear_512_8523)"/>
<g opacity="0.4">
<path d="M931.5 38C931.5 37.7239 931.724 37.5 932 37.5H943C943.276 37.5 943.5 37.7239 943.5 38V46C943.5 46.8284 942.828 47.5 942 47.5H933C932.172 47.5 931.5 46.8284 931.5 46V38Z" stroke="white"/>
<rect x="937" y="42" width="1" height="3" rx="0.5" fill="white"/>
<circle cx="937.5" cy="41.5" r="1" stroke="white"/>
<path fill-rule="evenodd" clip-rule="evenodd" d="M942 37V38H933V35.5C933 33.0147 935.015 31 937.5 31C939.127 31 940.552 31.8635 941.343 33.1572L940.609 33.891C940.054 32.8211 938.963 32.0739 937.692 32.0052L937.5 32C935.631 32 934.105 33.4643 934.005 35.308L934 35.5V37H937.5H941H942Z" fill="white"/>
</g>
<rect x="651" y="15" width="50" height="50" rx="6.25" fill="url(#paint1_linear_512_8523)"/>
<path fill-rule="evenodd" clip-rule="evenodd" d="M663.703 50.1138C662.872 49.6051 662.363 48.6995 662.363 47.7269V42.2962C662.363 42.0883 662.419 41.888 662.523 41.7098C662.846 41.1529 663.562 40.9637 664.119 41.2903L676.376 48.4359C677.093 48.8553 677.534 49.6201 677.534 50.4515V56.079C677.534 56.3351 677.464 56.5912 677.33 56.8102C676.926 57.471 676.064 57.6789 675.404 57.2742L663.703 50.1138ZM681.974 39.8017C682.69 40.2212 683.132 40.9859 683.132 41.8173V53.2355C683.132 53.5734 682.95 53.8851 682.657 54.0485L679.973 55.5593C679.94 55.5779 679.903 55.5927 679.865 55.6038V49.2637C679.865 48.4433 679.435 47.6824 678.73 47.2592L667.965 40.8189V33.6621C667.965 33.4542 668.02 33.2538 668.124 33.0756C668.447 32.5188 669.164 32.3295 669.721 32.6561L681.974 39.8017ZM687.338 31.368C688.058 31.7838 688.5 32.5559 688.5 33.3874V50.0656C688.5 50.407 688.31 50.7225 688.01 50.8858L685.467 52.2593V40.6481C685.467 39.8278 685.036 39.0705 684.335 38.6473L673.332 32.0473V25.2581C673.332 25.0502 673.388 24.8497 673.488 24.6716C673.811 24.1148 674.528 23.9254 675.084 24.2484L687.338 31.368Z" fill="#00D395"/>
<rect x="721" y="15" width="50" height="50" rx="6.25" fill="url(#paint2_linear_512_8523)"/>
<path fill-rule="evenodd" clip-rule="evenodd" d="M757.905 28.0954C754.919 25.4127 750.97 23.7805 746.64 23.7805C737.329 23.7805 729.78 31.3289 729.78 40.6402C729.78 44.9702 731.413 48.9188 734.095 51.9046C730.66 48.8181 728.5 44.3412 728.5 39.3598C728.5 30.0484 736.048 22.5 745.36 22.5C750.341 22.5 754.818 24.6604 757.905 28.0954Z" fill="#31A983"/>
<path fill-rule="evenodd" clip-rule="evenodd" d="M734.049 51.8577C737.034 54.5404 740.983 56.1726 745.313 56.1726C754.624 56.1726 762.173 48.6243 762.173 39.3129C762.173 34.983 760.54 31.0343 757.858 28.0486C761.293 31.135 763.453 35.6119 763.453 40.5934C763.453 49.9048 755.905 57.4531 746.593 57.4531C741.612 57.4531 737.135 55.2927 734.049 51.8577Z" fill="#D8DEE6"/>
<path fill-rule="evenodd" clip-rule="evenodd" d="M740.423 48.7439H735.973L741.85 39.151L734.771 29.669H740.832L744.845 34.4426C744.845 34.4426 753.104 24.964 756.256 22.7734C744.289 35.5793 740.423 48.7439 740.423 48.7439Z" fill="#31A983"/>
<path fill-rule="evenodd" clip-rule="evenodd" d="M757.429 29.623H752.873C752.873 29.623 741.542 41.1399 739.41 57.4997C743.38 47.5277 745.94 44.0532 745.94 44.0532L750.039 48.9495H756.799L749.408 39.7331L757.429 29.623Z" fill="#D8DEE6"/>
<rect opacity="0.15" x="630" y="30" width="1" height="20" fill="white"/>
<rect opacity="0.15" x="539" y="30" width="1" height="20" fill="white"/>
<rect x="399" y="15" width="50" height="50" rx="6.25" fill="url(#paint3_linear_512_8523)"/>
<path d="M424 22.9541C433.414 22.9541 441.045 30.5856 441.045 39.9996C441.045 45.5581 438.385 50.4952 434.268 53.6068L431.65 49.8865C434.678 47.5418 436.5 43.9273 436.5 39.9996C436.5 33.1679 431.02 27.6163 424.215 27.5014L424 27.4996V22.9541Z" fill="url(#paint4_linear_512_8523)"/>
<path d="M424 52.4997C426.421 52.4997 428.732 51.8133 430.721 50.5415L433.338 54.2606L433.265 54.3093C430.598 56.04 427.416 57.0451 424 57.0451C418.131 57.0451 412.955 54.079 409.889 49.564L413.737 47.1387C416.051 50.4611 419.847 52.4997 424 52.4997Z" fill="url(#paint5_linear_512_8523)"/>
<path d="M411.343 28.583L414.617 31.741C412.683 33.9355 411.57 36.7326 411.504 39.7157L411.501 39.9996C411.501 42.2021 412.068 44.3137 413.131 46.1786L409.283 48.603L409.242 48.5332C407.788 46.0236 406.955 43.1088 406.955 39.9996C406.955 35.6083 408.616 31.6049 411.343 28.583Z" fill="url(#paint6_linear_512_8523)"/>
<path opacity="0.3" d="M422.865 22.9912L422.865 27.5504C420.046 27.8044 417.437 28.9984 415.407 30.9223L412.133 27.7648C414.948 25.0336 418.702 23.2653 422.865 22.9912Z" fill="white"/>
<path fill-rule="evenodd" clip-rule="evenodd" d="M568.012 15H601.987C604.775 15 605.784 15.29 606.803 15.835C607.809 16.3678 608.632 17.1909 609.165 18.1975C609.71 19.2162 610 20.2262 610 23.0125V56.9875C610 59.775 609.71 60.7838 609.165 61.8025C608.632 62.8091 607.809 63.6322 606.803 64.165C605.784 64.71 604.774 65 601.987 65H568.012C565.225 65 564.216 64.71 563.197 64.165C562.191 63.6322 561.368 62.8091 560.835 61.8025C560.29 60.7838 560 59.775 560 56.9875V23.0125C560 20.225 560.29 19.2162 560.835 18.1975C561.368 17.1909 562.191 16.3678 563.197 15.835C564.216 15.29 565.225 15 568.012 15Z" fill="url(#paint7_linear_512_8523)"/>
<path d="M591.024 25L600 32.5L591.024 40V35H576.25C575.56 35 575 34.4404 575 33.75V31.25C575 30.5596 575.56 30 576.25 30H591.024V25Z" fill="url(#paint8_linear_512_8523)"/>
<path d="M579.01 55L570 47.5L579.01 40V45H593.75C594.44 45 595 45.5596 595 46.25V48.75C595 49.4404 594.44 50 593.75 50H579.01V55Z" fill="url(#paint9_linear_512_8523)"/>
<rect x="469" y="15" width="50" height="50" rx="6.25" fill="url(#paint10_linear_512_8523)"/>
<path fill-rule="evenodd" clip-rule="evenodd" d="M484 28.125H479V31.25V51.25C479 53.3213 480.679 55 482.75 55H506.5C507.19 55 507.75 54.4404 507.75 53.75V32.5C507.75 31.8096 507.19 31.25 506.5 31.25H484V28.125Z" fill="url(#paint11_linear_512_8523)"/>
<mask id="mask0_512_8523" style="mask-type:alpha" maskUnits="userSpaceOnUse" x="479" y="28" width="29" height="27">
<path fill-rule="evenodd" clip-rule="evenodd" d="M484 28.125H479V31.25V51.25C479 53.3213 480.679 55 482.75 55H506.5C507.19 55 507.75 54.4404 507.75 53.75V32.5C507.75 31.8096 507.19 31.25 506.5 31.25H484V28.125Z" fill="white"/>
</mask>
<g mask="url(#mask0_512_8523)">
</g>
<path d="M479 28.125C479 26.3991 480.399 25 482.125 25H499C499.69 25 500.25 25.5596 500.25 26.25V31.25H482.125C480.399 31.25 479 29.8509 479 28.125Z" fill="url(#paint12_linear_512_8523)"/>
<mask id="mask1_512_8523" style="mask-type:alpha" maskUnits="userSpaceOnUse" x="479" y="25" width="22" height="7">
<path d="M479 28.125C479 26.3991 480.399 25 482.125 25H499C499.69 25 500.25 25.5596 500.25 26.25V31.25H482.125C480.399 31.25 479 29.8509 479 28.125Z" fill="white"/>
</mask>
<g mask="url(#mask1_512_8523)">
</g>
<path fill-rule="evenodd" clip-rule="evenodd" d="M503.375 38.75C500.959 38.75 499 40.7088 499 43.125C499 45.5412 500.959 47.5 503.375 47.5H509V38.75H503.375ZM503.375 45C504.411 45 505.25 44.1605 505.25 43.125C505.25 42.0895 504.411 41.25 503.375 41.25C502.339 41.25 501.5 42.0895 501.5 43.125C501.5 44.1605 502.339 45 503.375 45Z" fill="url(#paint13_linear_512_8523)"/>
<rect x="469" y="78" width="50" height="2" fill="#00BFFF"/>
<path d="M61.808 32.9349L48.1809 24V28.9955L56.9228 34.6762L55.8943 37.9304H48.1809V42.0696H55.8943L56.9228 45.3238L48.1809 51.0045V56L61.808 47.0937L59.5796 40.0143L61.808 32.9349Z" fill="url(#paint14_linear_512_8523)"/>
<path d="M36.325 42.0696H44.0099V37.9304H36.2965L35.2966 34.6762L44.0099 28.9955V24L30.3828 32.9349L32.6111 40.0143L30.3828 47.0937L44.0385 56V51.0045L35.2966 45.3238L36.325 42.0696Z" fill="url(#paint15_linear_512_8523)"/>
<mask id="mask2_512_8523" style="mask-type:alpha" maskUnits="userSpaceOnUse" x="30" y="24" width="32" height="32">
<path d="M61.808 32.9349L48.1809 24V28.9955L56.9228 34.6762L55.8943 37.9304H48.1809V42.0696H55.8943L56.9228 45.3238L48.1809 51.0045V56L61.808 47.0937L59.5796 40.0143L61.808 32.9349Z" fill="url(#paint16_linear_512_8523)"/>
<path d="M36.325 42.0696H44.0099V37.9304H36.2965L35.2966 34.6762L44.0099 28.9955V24L30.3828 32.9349L32.6111 40.0143L30.3828 47.0937L44.0385 56V51.0045L35.2966 45.3238L36.325 42.0696Z" fill="url(#paint17_linear_512_8523)"/>
</mask>
<g mask="url(#mask2_512_8523)">
<rect x="30.4004" y="24" width="31.2" height="32" fill="url(#paint18_linear_512_8523)"/>
</g>
<path d="M78.3633 45.7041C78.3633 45.1709 78.2168 44.7227 77.9238 44.3594C77.6309 43.9902 77.127 43.6504 76.4121 43.3398C75.3633 42.959 74.5986 42.4639 74.1182 41.8545C73.6377 41.2393 73.3975 40.46 73.3975 39.5166C73.3975 38.5557 73.6289 37.7734 74.0918 37.1699C74.5605 36.5605 75.1963 36.1914 75.999 36.0625V34.1289H77.2383V36.0713C78.0586 36.2178 78.6914 36.6367 79.1367 37.3281C79.5879 38.0137 79.8135 38.9512 79.8135 40.1406H78.2754C78.2754 39.3262 78.126 38.6729 77.8271 38.1807C77.5283 37.6885 77.1182 37.4424 76.5967 37.4424C76.0752 37.4424 75.668 37.6211 75.375 37.9785C75.0879 38.3359 74.9443 38.8398 74.9443 39.4902C74.9443 40.082 75.0996 40.5566 75.4102 40.9141C75.7266 41.2656 76.2393 41.5908 76.9482 41.8896C78.0088 42.2881 78.7676 42.7861 79.2246 43.3838C79.6875 43.9756 79.9189 44.7432 79.9189 45.6865C79.9189 46.6475 79.6729 47.4326 79.1807 48.042C78.6885 48.6514 77.9824 49.0176 77.0625 49.1406V50.8281H75.8408V49.1406C74.915 49.0059 74.2061 48.6016 73.7139 47.9277C73.2217 47.2539 72.9756 46.3545 72.9756 45.2295H74.5225C74.5225 46.0439 74.6865 46.6709 75.0146 47.1104C75.3428 47.5498 75.8057 47.7695 76.4033 47.7695C77.0127 47.7695 77.4902 47.5879 77.8359 47.2246C78.1875 46.8555 78.3633 46.3486 78.3633 45.7041Z" fill="white" fill-opacity="0.6"/>
<path d="M90.8955 49H82.1514V47.5713L86.6094 41.6631C87.2826 40.7536 87.748 40.0088 88.0059 39.4287C88.2708 38.8415 88.4033 38.222 88.4033 37.5703C88.4033 36.7396 88.21 36.0664 87.8232 35.5508C87.4365 35.0352 86.9281 34.7773 86.2979 34.7773C85.5029 34.7773 84.887 35.0531 84.4502 35.6045C84.0205 36.1488 83.8057 36.9365 83.8057 37.9678H81.9043C81.9043 36.5283 82.2982 35.3646 83.0859 34.4766C83.8737 33.5885 84.9443 33.1445 86.2979 33.1445C87.5439 33.1445 88.5251 33.5277 89.2412 34.2939C89.9574 35.0531 90.3154 36.0664 90.3154 37.334C90.3154 38.8809 89.5098 40.7106 87.8984 42.8232L84.418 47.3779H90.8955V49ZM101.648 34.4766L96.2666 49H94.2793L99.6504 34.9922H92.6787V33.3594H101.648V34.4766ZM104.076 52.1152L102.948 51.3418C103.621 50.4036 103.972 49.4368 104.001 48.4414V46.6475H105.945V48.2051C105.945 48.9284 105.766 49.6517 105.408 50.375C105.057 51.0983 104.613 51.6784 104.076 52.1152ZM116.569 42.3291C116.569 44.6351 116.233 46.361 115.56 47.5068C114.886 48.6455 113.83 49.2148 112.391 49.2148C110.994 49.2148 109.952 48.667 109.265 47.5713C108.577 46.4756 108.219 44.8285 108.19 42.6299V39.9443C108.19 37.6598 108.527 35.9554 109.2 34.8311C109.881 33.7067 110.937 33.1445 112.369 33.1445C113.78 33.1445 114.822 33.6781 115.495 34.7451C116.175 35.8122 116.534 37.4271 116.569 39.5898V42.3291ZM114.668 39.6113C114.668 37.957 114.485 36.7396 114.12 35.959C113.755 35.1712 113.171 34.7773 112.369 34.7773C111.589 34.7773 111.016 35.1641 110.65 35.9375C110.285 36.7038 110.095 37.8639 110.081 39.418V42.6406C110.081 44.2878 110.271 45.5267 110.65 46.3574C111.03 47.181 111.61 47.5928 112.391 47.5928C113.164 47.5928 113.733 47.2025 114.099 46.4219C114.464 45.6413 114.654 44.4489 114.668 42.8447V39.6113ZM127.129 37.4414C127.129 38.222 126.953 38.9167 126.603 39.5254C126.259 40.1341 125.793 40.6104 125.206 40.9541C125.901 41.3122 126.445 41.8278 126.839 42.501C127.233 43.167 127.43 43.9261 127.43 44.7783C127.43 46.1247 127.047 47.2025 126.28 48.0117C125.521 48.8138 124.511 49.2148 123.251 49.2148C121.991 49.2148 120.977 48.8138 120.211 48.0117C119.452 47.2025 119.072 46.1247 119.072 44.7783C119.072 43.9189 119.266 43.1527 119.652 42.4795C120.046 41.7992 120.58 41.2871 121.253 40.9434C120.666 40.5996 120.204 40.127 119.867 39.5254C119.531 38.9167 119.362 38.222 119.362 37.4414C119.362 36.1237 119.717 35.0781 120.426 34.3047C121.142 33.5312 122.084 33.1445 123.251 33.1445C124.411 33.1445 125.346 33.5277 126.055 34.2939C126.771 35.0602 127.129 36.1094 127.129 37.4414ZM125.528 44.7354C125.528 43.8402 125.317 43.124 124.895 42.5869C124.472 42.0426 123.917 41.7705 123.229 41.7705C122.528 41.7705 121.973 42.0426 121.564 42.5869C121.163 43.1312 120.963 43.8473 120.963 44.7354C120.963 45.6377 121.16 46.3395 121.554 46.8408C121.955 47.3421 122.521 47.5928 123.251 47.5928C123.981 47.5928 124.544 47.3421 124.938 46.8408C125.331 46.3395 125.528 45.6377 125.528 44.7354ZM125.238 37.4736C125.238 36.6787 125.052 36.0306 124.68 35.5293C124.307 35.028 123.831 34.7773 123.251 34.7773C122.642 34.7773 122.159 35.0244 121.801 35.5186C121.443 36.0127 121.264 36.6644 121.264 37.4736C121.264 38.29 121.446 38.9382 121.812 39.418C122.177 39.8978 122.657 40.1377 123.251 40.1377C123.86 40.1377 124.343 39.8942 124.701 39.4072C125.059 38.9202 125.238 38.2757 125.238 37.4736ZM137.151 43.7471H138.892V45.3691H137.151V49H135.25V45.3691H129.342V44.1982L135.153 33.3594H137.151V43.7471ZM131.447 43.7471H135.25V36.3135L131.447 43.7471ZM141.115 47.958C141.115 47.6143 141.215 47.3278 141.416 47.0986C141.624 46.8695 141.932 46.7549 142.34 46.7549C142.748 46.7549 143.056 46.8695 143.264 47.0986C143.479 47.3278 143.586 47.6143 143.586 47.958C143.586 48.2874 143.479 48.5632 143.264 48.7852C143.056 49.0072 142.748 49.1182 142.34 49.1182C141.932 49.1182 141.624 49.0072 141.416 48.7852C141.215 48.5632 141.115 48.2874 141.115 47.958ZM147.399 41.1582L148.076 33.3594H154.876V35.1963H149.677L149.312 39.4609C149.956 39.0098 150.651 38.7842 151.396 38.7842C152.613 38.7842 153.569 39.2568 154.264 40.2021C154.958 41.1475 155.306 42.4186 155.306 44.0156C155.306 45.6341 154.926 46.9053 154.167 47.8291C153.415 48.7529 152.38 49.2148 151.062 49.2148C149.888 49.2148 148.932 48.8317 148.194 48.0654C147.457 47.2992 147.034 46.2393 146.927 44.8857H148.71C148.817 45.7809 149.072 46.4577 149.473 46.916C149.881 47.3672 150.411 47.5928 151.062 47.5928C151.8 47.5928 152.377 47.2741 152.792 46.6367C153.207 45.9922 153.415 45.1257 153.415 44.0371C153.415 43.013 153.189 42.1787 152.738 41.5342C152.294 40.8896 151.693 40.5674 150.934 40.5674C150.303 40.5674 149.799 40.7321 149.419 41.0615L148.914 41.5664L147.399 41.1582ZM163.749 42.3184C162.99 43.2852 162.102 43.7686 161.085 43.7686C159.946 43.7686 159.04 43.2887 158.367 42.3291C157.694 41.3695 157.357 40.1126 157.357 38.5586C157.357 36.9258 157.723 35.6152 158.453 34.627C159.191 33.6387 160.193 33.1445 161.461 33.1445C162.779 33.1445 163.806 33.7174 164.544 34.8633C165.289 36.002 165.661 37.5811 165.661 39.6006V40.1914C165.661 41.9245 165.529 43.3281 165.264 44.4023C165.006 45.4766 164.623 46.3431 164.114 47.002C163.606 47.6608 162.958 48.1621 162.17 48.5059C161.382 48.8424 160.397 49.0107 159.216 49.0107V47.335H159.549C160.895 47.3063 161.916 46.8981 162.61 46.1104C163.312 45.3154 163.692 44.0514 163.749 42.3184ZM161.407 42.125C161.866 42.125 162.313 41.9352 162.75 41.5557C163.187 41.1689 163.527 40.6641 163.771 40.041V39.2031C163.771 37.9069 163.545 36.8506 163.094 36.0342C162.643 35.2106 162.098 34.7988 161.461 34.7988C160.773 34.7988 160.226 35.139 159.817 35.8193C159.416 36.4925 159.216 37.3698 159.216 38.4512C159.216 39.5326 159.413 40.417 159.807 41.1045C160.201 41.7848 160.734 42.125 161.407 42.125Z" fill="white"/>
<path fill-rule="evenodd" clip-rule="evenodd" d="M379 51H378V100V101H379H585V120H586V101H790H791V100V51H790V100H379V51Z" fill="#2E3134"/>
<path fill-rule="evenodd" clip-rule="evenodd" d="M12 51H11V100V101H12H97V120H98V101H182H183V100V51H182V100H12V51Z" fill="#2E3134"/>
<path fill-rule="evenodd" clip-rule="evenodd" d="M903 51H902V100V101H903H1031V120H1032V101H1160H1161V100V51H1160V100H903V51Z" fill="#2E3134"/>
<defs>
<linearGradient id="paint0_linear_512_8523" x1="908.5" y1="40.5" x2="937.5" y2="69.5" gradientUnits="userSpaceOnUse">
<stop stop-color="#3F4142"/>
<stop offset="1" stop-color="#202223"/>
</linearGradient>
<linearGradient id="paint1_linear_512_8523" x1="701" y1="65" x2="651" y2="15" gradientUnits="userSpaceOnUse">
<stop stop-color="#0C0E0F"/>
<stop offset="1" stop-color="#23282B"/>
</linearGradient>
<linearGradient id="paint2_linear_512_8523" x1="771" y1="65" x2="721" y2="15" gradientUnits="userSpaceOnUse">
<stop stop-color="#0C0E0F"/>
<stop offset="1" stop-color="#23282B"/>
</linearGradient>
<linearGradient id="paint3_linear_512_8523" x1="449" y1="65" x2="399" y2="15" gradientUnits="userSpaceOnUse">
<stop stop-color="#0C0E0F"/>
<stop offset="1" stop-color="#23282B"/>
</linearGradient>
<linearGradient id="paint4_linear_512_8523" x1="429.887" y1="25.1505" x2="438.733" y2="50.0184" gradientUnits="userSpaceOnUse">
<stop stop-color="#556FF2"/>
<stop offset="1" stop-color="#00BFFF"/>
</linearGradient>
<linearGradient id="paint5_linear_512_8523" x1="432.154" y1="52.196" x2="411.578" y2="48.5402" gradientUnits="userSpaceOnUse">
<stop stop-color="#8C66FF"/>
<stop offset="1" stop-color="#5C26FF"/>
</linearGradient>
<linearGradient id="paint6_linear_512_8523" x1="410.786" y1="47.6195" x2="412.805" y2="30.3574" gradientUnits="userSpaceOnUse">
<stop stop-color="#FF9F19"/>
<stop offset="1" stop-color="#FFCC33"/>
</linearGradient>
<linearGradient id="paint7_linear_512_8523" x1="610" y1="65" x2="560" y2="15" gradientUnits="userSpaceOnUse">
<stop stop-color="#0C0E0F"/>
<stop offset="1" stop-color="#23282B"/>
</linearGradient>
<linearGradient id="paint8_linear_512_8523" x1="598.403" y1="41.2619" x2="600.941" y2="27.4217" gradientUnits="userSpaceOnUse">
<stop stop-color="#FF9F19"/>
<stop offset="1" stop-color="#FFCC33"/>
</linearGradient>
<linearGradient id="paint9_linear_512_8523" x1="557.499" y1="47.4996" x2="570.734" y2="69.5591" gradientUnits="userSpaceOnUse">
<stop stop-color="#556FF2"/>
<stop offset="1" stop-color="#00BFFF"/>
</linearGradient>
<linearGradient id="paint10_linear_512_8523" x1="519" y1="65" x2="469" y2="15" gradientUnits="userSpaceOnUse">
<stop stop-color="#0C0E0F"/>
<stop offset="1" stop-color="#23282B"/>
</linearGradient>
<linearGradient id="paint11_linear_512_8523" x1="522.125" y1="41.5625" x2="495.311" y2="12.8778" gradientUnits="userSpaceOnUse">
<stop stop-color="#5C26FF"/>
<stop offset="1" stop-color="#8C66FF"/>
</linearGradient>
<linearGradient id="paint12_linear_512_8523" x1="510.875" y1="28.125" x2="507.491" y2="16.6202" gradientUnits="userSpaceOnUse">
<stop stop-color="#556FF2"/>
<stop offset="1" stop-color="#00BFFF"/>
</linearGradient>
<linearGradient id="paint13_linear_512_8523" x1="508.361" y1="48.2362" x2="510.444" y2="40.4478" gradientUnits="userSpaceOnUse">
<stop stop-color="#FF9F1A"/>
<stop offset="1" stop-color="#FFCC33"/>
</linearGradient>
<linearGradient id="paint14_linear_512_8523" x1="57.3996" y1="58.2" x2="48.2716" y2="20.4858" gradientUnits="userSpaceOnUse">
<stop stop-color="#0B46F9"/>
<stop offset="1" stop-color="#BBFBE0"/>
</linearGradient>
<linearGradient id="paint15_linear_512_8523" x1="57.3996" y1="58.2" x2="48.2716" y2="20.4858" gradientUnits="userSpaceOnUse">
<stop stop-color="#0B46F9"/>
<stop offset="1" stop-color="#BBFBE0"/>
</linearGradient>
<linearGradient id="paint16_linear_512_8523" x1="57.3996" y1="58.2" x2="48.2716" y2="20.4858" gradientUnits="userSpaceOnUse">
<stop stop-color="#0B46F9"/>
<stop offset="1" stop-color="#BBFBE0"/>
</linearGradient>
<linearGradient id="paint17_linear_512_8523" x1="57.3996" y1="58.2" x2="48.2716" y2="20.4858" gradientUnits="userSpaceOnUse">
<stop stop-color="#0B46F9"/>
<stop offset="1" stop-color="#BBFBE0"/>
</linearGradient>
<linearGradient id="paint18_linear_512_8523" x1="32.4004" y1="31.2" x2="48.2004" y2="43" gradientUnits="userSpaceOnUse">
<stop offset="0.119792" stop-color="#8952FF" stop-opacity="0.87"/>
<stop offset="1" stop-color="#DABDFF" stop-opacity="0"/>
</linearGradient>
</defs>
</svg>
