<svg width="26" height="208" xmlns="http://www.w3.org/2000/svg"><g fill-rule="nonzero" fill="none"><path fill="#1F2033" opacity=".6" d="M7 7.143L14.143 0l1.428 1.429L7 10 2 5l1.429-1.429z"/><path d="M9.619 55.006H6.38c-.213 0-.385-.201-.385-.448s.172-.448.385-.448L7 54v-3l-.62-.116c-.213 0-.385-.201-.385-.448s.172-.448.385-.448h2.514c.077 0 .102-.032.113-.058-.003.015-.007.029-.007.07v4l.619.11c.213 0 .386.201.386.448s-.173.448-.386.448zM7 47h.98c.007 0 .013-.004.02-.004.007 0 .013.004.02.004H9v.94c.001.022.012.04.012.061 0 .022-.011.04-.012.061V49h-.967c-.012.001-.022.007-.033.007-.012 0-.022-.006-.033-.007H7v-.939c-.002-.021-.013-.038-.013-.06 0-.021.011-.039.013-.06V47zm1-4a8 8 0 1 0 0 16 8 8 0 0 0 0-16z" fill="#1F2033" opacity=".2"/><path d="M3.465 95.465a5 5 0 1 0 7.072 7.07 5 5 0 0 0-7.072-7.07zm10.855 12.27l-3.149-3.15c-2.741 2.05-6.63 1.857-9.12-.635a6.999 6.999 0 1 1 9.899-9.9c2.492 2.492 2.686 6.38.636 9.121l3.15 3.15a1 1 0 1 1-1.416 1.415v-.001z" fill="#1F2033" opacity=".4"/><path d="M4.6 148.546l6.215-6.214a.766.766 0 0 0 0-1.081.766.766 0 0 0-1.08 0l-7.512 7.511a.766.766 0 0 0 0 1.081l7.511 7.511a.766.766 0 0 0 1.081 0 .766.766 0 0 0 0-1.08l-6.214-6.215h20.642a.755.755 0 0 0 .536-1.292.755.755 0 0 0-.536-.221H4.6zm18.8 50l-6.215-6.214a.766.766 0 0 1 0-1.081.766.766 0 0 1 1.08 0l7.512 7.511a.766.766 0 0 1 0 1.081l-7.511 7.511a.766.766 0 0 1-1.081 0 .766.766 0 0 1 0-1.08l6.214-6.215H2.757a.755.755 0 0 1-.757-.756c0-.433.351-.757.757-.757H23.4z" fill="#FFF"/></g></svg>